Labtop Superwide Boldish.ufo
<glyph name="exclam" format="1">
  <advance width="179"/>
  <unicode hex="0021"/>
  <outline>
    <contour>
      <point x="137" y="124" type="line" smooth="yes"/>
      <point x="137" y="120"/>
      <point x="125" y="120" type="qcurve" smooth="yes"/>
      <point x="82" y="120" type="line" smooth="yes"/>
      <point x="69" y="120"/>
      <point x="69" y="124" type="qcurve" smooth="yes"/>
      <point x="69" y="799" type="line" smooth="yes"/>
      <point x="69" y="804"/>
      <point x="82" y="804" type="qcurve" smooth="yes"/>
      <point x="125" y="804" type="line" smooth="yes"/>
      <point x="137" y="804"/>
      <point x="137" y="799" type="qcurve" smooth="yes"/>
    </contour>
    <contour>
      <point x="135" y="4" type="line" smooth="yes"/>
      <point x="135" y="-1"/>
      <point x="122" y="-1" type="qcurve" smooth="yes"/>
      <point x="83" y="-1" type="line" smooth="yes"/>
      <point x="71" y="-1"/>
      <point x="71" y="4" type="qcurve" smooth="yes"/>
      <point x="71" y="40" type="line" smooth="yes"/>
      <point x="71" y="45"/>
      <point x="83" y="45" type="qcurve" smooth="yes"/>
      <point x="122" y="45" type="line" smooth="yes"/>
      <point x="135" y="45"/>
      <point x="135" y="40" type="qcurve" smooth="yes"/>
    </contour>
  </outline>
</glyph>
<glyph name="quotedbl" format="1">
  <advance width="427"/>
  <unicode hex="0022"/>
  <outline>
    <contour>
      <point x="370" y="567" type="line" smooth="yes"/>
      <point x="370" y="562"/>
      <point x="352" y="562" type="qcurve" smooth="yes"/>
      <point x="286" y="562" type="line" smooth="yes"/>
      <point x="269" y="562"/>
      <point x="269" y="567" type="qcurve" smooth="yes"/>
      <point x="269" y="750" type="line" smooth="yes"/>
      <point x="269" y="755"/>
      <point x="286" y="755" type="qcurve" smooth="yes"/>
      <point x="352" y="755" type="line" smooth="yes"/>
      <point x="370" y="755"/>
      <point x="370" y="750" type="qcurve" smooth="yes"/>
    </contour>
    <contour>
      <point x="199" y="567" type="line" smooth="yes"/>
      <point x="199" y="562"/>
      <point x="181" y="562" type="qcurve" smooth="yes"/>
      <point x="115" y="562" type="line" smooth="yes"/>
      <point x="98" y="562"/>
      <point x="98" y="567" type="qcurve" smooth="yes"/>
      <point x="98" y="750" type="line" smooth="yes"/>
      <point x="98" y="755"/>
      <point x="115" y="755" type="qcurve" smooth="yes"/>
      <point x="181" y="755" type="line" smooth="yes"/>
      <point x="199" y="755"/>
      <point x="199" y="750" type="qcurve" smooth="yes"/>
    </contour>
  </outline>
</glyph>
<glyph name="numbersign" format="1">
  <advance width="756"/>
  <unicode hex="0023"/>
  <outline>
    <contour>
      <point x="762" y="431" type="qcurve"/>
      <point x="758" y="399" type="line" smooth="yes"/>
      <point x="757" y="395"/>
      <point x="739" y="395" type="qcurve" smooth="yes"/>
      <point x="566" y="395" type="line"/>
      <point x="550" y="303" type="line"/>
      <point x="720" y="303" type="line"/>
      <point x="740" y="301"/>
      <point x="739" y="297" type="qcurve" smooth="yes"/>
      <point x="733" y="265" type="line"/>
      <point x="729" y="261"/>
      <point x="714" y="261" type="qcurve" smooth="yes"/>
      <point x="541" y="260" type="line"/>
      <point x="521" y="140" type="line"/>
      <point x="517" y="136"/>
      <point x="502" y="136" type="qcurve" smooth="yes"/>
      <point x="438" y="136" type="line"/>
      <point x="418" y="138"/>
      <point x="419" y="142" type="qcurve" smooth="yes"/>
      <point x="439" y="260" type="line"/>
      <point x="333" y="260" type="line"/>
      <point x="313" y="138" type="line"/>
      <point x="309" y="134"/>
      <point x="294" y="134" type="qcurve" smooth="yes"/>
      <point x="231" y="134" type="line"/>
      <point x="211" y="136"/>
      <point x="212" y="140" type="qcurve" smooth="yes"/>
      <point x="234" y="260" type="line"/>
      <point x="61" y="259" type="line" smooth="yes"/>
      <point x="60" y="259"/>
      <point x="51" y="260"/>
      <point x="48" y="260" type="qcurve"/>
      <point x="41" y="263"/>
      <point x="43" y="265" type="qcurve"/>
      <point x="50" y="298" type="line"/>
      <point x="54" y="302"/>
      <point x="68" y="302" type="qcurve" smooth="yes"/>
      <point x="240" y="302" type="line"/>
      <point x="257" y="393" type="line"/>
      <point x="85" y="392" type="line" smooth="yes"/>
      <point x="77" y="392"/>
      <point x="72" y="394" type="qcurve"/>
      <point x="68" y="394"/>
      <point x="66" y="396" type="qcurve" smooth="yes"/>
      <point x="66" y="397"/>
      <point x="67" y="398" type="qcurve" smooth="yes"/>
      <point x="75" y="431" type="line"/>
      <point x="79" y="435"/>
      <point x="93" y="435" type="qcurve" smooth="yes"/>
      <point x="263" y="435" type="line"/>
      <point x="286" y="557" type="line"/>
      <point x="290" y="561"/>
      <point x="305" y="561" type="qcurve" smooth="yes"/>
      <point x="368" y="561" type="line"/>
      <point x="386" y="559"/>
      <point x="387" y="555" type="qcurve"/>
      <point x="365" y="435" type="line"/>
      <point x="472" y="436" type="line"/>
      <point x="493" y="558" type="line"/>
      <point x="497" y="562"/>
      <point x="512" y="562" type="qcurve" smooth="yes"/>
      <point x="576" y="562" type="line"/>
      <point x="596" y="560"/>
      <point x="595" y="556" type="qcurve" smooth="yes"/>
      <point x="573" y="436" type="line"/>
      <point x="743" y="437" type="line"/>
      <point x="755" y="435"/>
    </contour>
    <contour>
      <point x="463" y="393" type="line"/>
      <point x="359" y="393" type="line"/>
      <point x="342" y="302" type="line"/>
      <point x="447" y="303" type="line"/>
    </contour>
  </outline>
</glyph>
<glyph name="dollar" format="1">
  <advance width="520"/>
  <unicode hex="0024"/>
  <outline>
    <contour>
      <point x="485" y="118" type="line" smooth="yes"/>
      <point x="485" y="6"/>
      <point x="328" y="-7" type="qcurve"/>
      <point x="328" y="-45" type="line" smooth="yes"/>
      <point x="328" y="-49"/>
      <point x="310" y="-49" type="qcurve" smooth="yes"/>
      <point x="255" y="-49" type="line" smooth="yes"/>
      <point x="237" y="-49"/>
      <point x="237" y="-45" type="qcurve" smooth="yes"/>
      <point x="237" y="-7" type="line"/>
      <point x="71" y="5"/>
      <point x="71" y="118" type="qcurve" smooth="yes"/>
      <point x="71" y="174" type="line" smooth="yes"/>
      <point x="71" y="179"/>
      <point x="89" y="179" type="qcurve" smooth="yes"/>
      <point x="153" y="179" type="line" smooth="yes"/>
      <point x="171" y="179"/>
      <point x="171" y="174" type="qcurve" smooth="yes"/>
      <point x="171" y="116" type="line" smooth="yes"/>
      <point x="171" y="44"/>
      <point x="237" y="32" type="qcurve"/>
      <point x="237" y="443" type="line"/>
      <point x="71" y="455"/>
      <point x="71" y="568" type="qcurve" smooth="yes"/>
      <point x="71" y="687" type="line" smooth="yes"/>
      <point x="71" y="799"/>
      <point x="237" y="811" type="qcurve"/>
      <point x="237" y="852" type="line" smooth="yes"/>
      <point x="237" y="857"/>
      <point x="255" y="857" type="qcurve" smooth="yes"/>
      <point x="310" y="857" type="line" smooth="yes"/>
      <point x="328" y="857"/>
      <point x="328" y="852" type="qcurve" smooth="yes"/>
      <point x="328" y="811" type="line"/>
      <point x="485" y="798"/>
      <point x="485" y="687" type="qcurve" smooth="yes"/>
      <point x="485" y="625" type="line" smooth="yes"/>
      <point x="485" y="620"/>
      <point x="467" y="620" type="qcurve" smooth="yes"/>
      <point x="409" y="620" type="line" smooth="yes"/>
      <point x="390" y="620"/>
      <point x="390" y="625" type="qcurve" smooth="yes"/>
      <point x="390" y="689" type="line" smooth="yes"/>
      <point x="390" y="761"/>
      <point x="328" y="773" type="qcurve"/>
      <point x="328" y="475" type="line"/>
      <point x="465" y="463"/>
      <point x="482" y="385" type="qcurve"/>
      <point x="485" y="385"/>
      <point x="485" y="383" type="qcurve" smooth="yes"/>
    </contour>
    <contour>
      <point x="237" y="479" type="qcurve"/>
      <point x="237" y="774" type="line"/>
      <point x="171" y="762"/>
      <point x="171" y="689" type="qcurve" smooth="yes"/>
      <point x="171" y="565" type="line" smooth="yes"/>
      <point x="171" y="493"/>
    </contour>
    <contour>
      <point x="390" y="116" type="qcurve" smooth="yes"/>
      <point x="390" y="372" type="line" smooth="yes"/>
      <point x="390" y="423"/>
      <point x="328" y="437" type="qcurve"/>
      <point x="328" y="32" type="line"/>
      <point x="390" y="46"/>
    </contour>
  </outline>
</glyph>
<glyph name="percent" format="1">
  <advance width="1111"/>
  <unicode hex="0025"/>
  <outline>
    <contour>
      <point x="1098" y="120" type="line" smooth="yes"/>
      <point x="1098" y="38"/>
      <point x="996" y="8" type="qcurve"/>
      <point x="997" y="8" type="line"/>
      <point x="955" y="-5"/>
      <point x="838" y="-5" type="qcurve" smooth="yes"/>
      <point x="778" y="-5"/>
      <point x="760" y="2" type="qcurve" smooth="yes"/>
      <point x="740" y="10"/>
      <point x="730" y="16" type="qcurve" smooth="yes"/>
      <point x="717" y="23" type="line" smooth="yes"/>
      <point x="663" y="52"/>
      <point x="663" y="120" type="qcurve" smooth="yes"/>
      <point x="663" y="278" type="line" smooth="yes"/>
      <point x="663" y="404"/>
      <point x="878" y="404" type="qcurve" smooth="yes"/>
      <point x="1098" y="404"/>
      <point x="1098" y="278" type="qcurve" smooth="yes"/>
    </contour>
    <contour>
      <point x="933" y="806" type="qcurve"/>
      <point x="931" y="804"/>
      <point x="928" y="803" type="qcurve"/>
      <point x="273" y="-6" type="line"/>
      <point x="267" y="-8"/>
      <point x="258" y="-8" type="qcurve" smooth="yes"/>
      <point x="196" y="-8" type="line" smooth="yes"/>
      <point x="176" y="-8"/>
      <point x="176" y="-3" type="qcurve"/>
      <point x="182" y="0" type="line"/>
      <point x="837" y="809" type="line"/>
      <point x="843" y="811"/>
      <point x="851" y="811" type="qcurve" smooth="yes"/>
      <point x="913" y="811" type="line" smooth="yes"/>
      <point x="933" y="811"/>
    </contour>
    <contour>
      <point x="491" y="524" type="line" smooth="yes"/>
      <point x="491" y="397"/>
      <point x="270" y="397" type="qcurve" smooth="yes"/>
      <point x="52" y="397"/>
      <point x="52" y="524" type="qcurve" smooth="yes"/>
      <point x="52" y="682" type="line" smooth="yes"/>
      <point x="52" y="806"/>
      <point x="270" y="806" type="qcurve" smooth="yes"/>
      <point x="491" y="806"/>
      <point x="491" y="682" type="qcurve" smooth="yes"/>
    </contour>
    <contour>
      <point x="994" y="118" type="qcurve" smooth="yes"/>
      <point x="994" y="281" type="line" smooth="yes"/>
      <point x="994" y="367"/>
      <point x="878" y="367" type="qcurve" smooth="yes"/>
      <point x="763" y="367"/>
      <point x="763" y="281" type="qcurve" smooth="yes"/>
      <point x="763" y="118" type="line" smooth="yes"/>
      <point x="763" y="70"/>
      <point x="779" y="54" type="qcurve"/>
      <point x="776" y="55" type="line"/>
      <point x="810" y="30"/>
      <point x="878" y="30" type="qcurve" smooth="yes"/>
      <point x="994" y="30"/>
    </contour>
    <contour>
      <point x="385" y="521" type="qcurve" smooth="yes"/>
      <point x="385" y="684" type="line" smooth="yes"/>
      <point x="385" y="771"/>
      <point x="270" y="771" type="qcurve" smooth="yes"/>
      <point x="156" y="771"/>
      <point x="156" y="684" type="qcurve" smooth="yes"/>
      <point x="156" y="521" type="line" smooth="yes"/>
      <point x="156" y="460"/>
      <point x="186" y="448" type="qcurve"/>
      <point x="214" y="434"/>
      <point x="270" y="434" type="qcurve" smooth="yes"/>
      <point x="385" y="434"/>
    </contour>
  </outline>
</glyph>
<glyph name="ampersand" format="1">
  <advance width="534"/>
  <unicode hex="0026"/>
  <outline>
    <contour>
      <point x="650" y="-103" type="line"/>
      <point x="632" y="-108" type="line"/>
      <point x="432" y="-108"/>
      <point x="417" y="4" type="qcurve"/>
      <point x="366" y="-8"/>
      <point x="264" y="-8" type="qcurve" smooth="yes"/>
      <point x="54" y="-8"/>
      <point x="54" y="118" type="qcurve" smooth="yes"/>
      <point x="54" y="360" type="line" smooth="yes"/>
      <point x="54" y="402"/>
      <point x="74" y="428" type="qcurve"/>
      <point x="73" y="428" type="line"/>
      <point x="90" y="449"/>
      <point x="156" y="467" type="qcurve"/>
      <point x="73" y="496"/>
      <point x="73" y="575" type="qcurve" smooth="yes"/>
      <point x="73" y="688" type="line" smooth="yes"/>
      <point x="73" y="812"/>
      <point x="285" y="812" type="qcurve" smooth="yes"/>
      <point x="499" y="812"/>
      <point x="499" y="688" type="qcurve" smooth="yes"/>
      <point x="499" y="575" type="line" smooth="yes"/>
      <point x="499" y="534"/>
      <point x="473" y="502" type="qcurve" smooth="yes"/>
      <point x="430" y="450"/>
      <point x="285" y="450" type="qcurve" smooth="yes"/>
      <point x="213" y="450"/>
      <point x="161" y="422" type="qcurve" smooth="yes"/>
      <point x="152" y="418"/>
      <point x="152" y="361" type="qcurve" smooth="yes"/>
      <point x="152" y="116" type="line" smooth="yes"/>
      <point x="152" y="27"/>
      <point x="264" y="27" type="qcurve" smooth="yes"/>
      <point x="331" y="27"/>
      <point x="365" y="35" type="qcurve" smooth="yes"/>
      <point x="416" y="48"/>
      <point x="416" y="99" type="qcurve" smooth="yes"/>
      <point x="416" y="232" type="line" smooth="yes"/>
      <point x="416" y="319"/>
      <point x="304" y="319" type="qcurve" smooth="yes"/>
      <point x="285" y="319"/>
      <point x="285" y="323" type="qcurve" smooth="yes"/>
      <point x="285" y="350" type="line" smooth="yes"/>
      <point x="285" y="355"/>
      <point x="304" y="355" type="qcurve" smooth="yes"/>
      <point x="505" y="355"/>
      <point x="517" y="248" type="qcurve"/>
      <point x="519" y="248"/>
      <point x="519" y="246" type="qcurve" smooth="yes"/>
      <point x="519" y="16" type="line" smooth="yes"/>
      <point x="519" y="-72"/>
      <point x="632" y="-72" type="qcurve" smooth="yes"/>
      <point x="650" y="-72"/>
      <point x="650" y="-77" type="qcurve" smooth="yes"/>
    </contour>
    <contour>
      <point x="397" y="573" type="qcurve" smooth="yes"/>
      <point x="397" y="690" type="line" smooth="yes"/>
      <point x="397" y="777"/>
      <point x="285" y="777" type="qcurve" smooth="yes"/>
      <point x="172" y="777"/>
      <point x="172" y="690" type="qcurve" smooth="yes"/>
      <point x="172" y="573" type="line" smooth="yes"/>
      <point x="172" y="485"/>
      <point x="285" y="485" type="qcurve" smooth="yes"/>
      <point x="397" y="485"/>
    </contour>
  </outline>
</glyph>
<glyph name="quotesingle" format="1">
  <advance width="197"/>
  <unicode hex="0027"/>
  <outline>
    <contour>
      <point x="149" y="567" type="line" smooth="yes"/>
      <point x="149" y="562"/>
      <point x="136" y="562" type="qcurve" smooth="yes"/>
      <point x="86" y="562" type="line" smooth="yes"/>
      <point x="73" y="562"/>
      <point x="73" y="567" type="qcurve" smooth="yes"/>
      <point x="73" y="750" type="line" smooth="yes"/>
      <point x="73" y="755"/>
      <point x="86" y="755" type="qcurve" smooth="yes"/>
      <point x="136" y="755" type="line" smooth="yes"/>
      <point x="149" y="755"/>
      <point x="149" y="750" type="qcurve" smooth="yes"/>
    </contour>
  </outline>
</glyph>
<glyph name="parenleft" format="1">
  <advance width="251"/>
  <unicode hex="0028"/>
  <outline>
    <contour>
      <point x="271" y="-224" type="line"/>
      <point x="255" y="-229" type="line"/>
      <point x="171" y="-228"/>
      <point x="136" y="-211" type="qcurve" smooth="yes"/>
      <point x="65" y="-178"/>
      <point x="65" y="-104" type="qcurve" smooth="yes"/>
      <point x="65" y="743" type="line" smooth="yes"/>
      <point x="65" y="816"/>
      <point x="136" y="849" type="qcurve" smooth="yes"/>
      <point x="172" y="866"/>
      <point x="255" y="868" type="qcurve" smooth="yes"/>
      <point x="271" y="868"/>
      <point x="271" y="863" type="qcurve" smooth="yes"/>
      <point x="271" y="837" type="line" smooth="yes"/>
      <point x="271" y="833"/>
      <point x="255" y="832" type="qcurve" smooth="yes"/>
      <point x="191" y="827"/>
      <point x="167" y="806" type="qcurve"/>
      <point x="168" y="806" type="line"/>
      <point x="154" y="792"/>
      <point x="154" y="744" type="qcurve" smooth="yes"/>
      <point x="154" y="-107" type="line" smooth="yes"/>
      <point x="154" y="-156"/>
      <point x="168" y="-168" type="qcurve"/>
      <point x="191" y="-193"/>
      <point x="255" y="-194" type="qcurve" smooth="yes"/>
      <point x="271" y="-194"/>
      <point x="271" y="-199" type="qcurve" smooth="yes"/>
    </contour>
  </outline>
</glyph>
<glyph name="parenright" format="1">
  <advance width="251"/>
  <unicode hex="0029"/>
  <outline>
    <contour>
      <point x="271" y="-104" type="line" smooth="yes"/>
      <point x="271" y="-180"/>
      <point x="201" y="-211" type="qcurve" smooth="yes"/>
      <point x="167" y="-227"/>
      <point x="82" y="-229" type="qcurve" smooth="yes"/>
      <point x="65" y="-229"/>
      <point x="65" y="-224" type="qcurve" smooth="yes"/>
      <point x="65" y="-199" type="line" smooth="yes"/>
      <point x="65" y="-194"/>
      <point x="82" y="-194" type="qcurve" smooth="yes"/>
      <point x="145" y="-192"/>
      <point x="168" y="-168" type="qcurve"/>
      <point x="183" y="-156"/>
      <point x="183" y="-107" type="qcurve" smooth="yes"/>
      <point x="183" y="744" type="line" smooth="yes"/>
      <point x="183" y="802"/>
      <point x="156" y="817" type="qcurve"/>
      <point x="157" y="817" type="line"/>
      <point x="131" y="828"/>
      <point x="81" y="832" type="qcurve" smooth="yes"/>
      <point x="65" y="833"/>
      <point x="65" y="837" type="qcurve" smooth="yes"/>
      <point x="65" y="863" type="line" smooth="yes"/>
      <point x="65" y="868"/>
      <point x="82" y="868" type="qcurve" smooth="yes"/>
      <point x="165" y="866"/>
      <point x="201" y="849" type="qcurve" smooth="yes"/>
      <point x="271" y="816"/>
      <point x="271" y="743" type="qcurve" smooth="yes"/>
    </contour>
  </outline>
</glyph>
<glyph name="asterisk" format="1">
  <advance width="665"/>
  <unicode hex="002A"/>
  <outline>
    <contour>
      <point x="630" y="562" type="qcurve"/>
      <point x="631" y="560"/>
      <point x="627" y="558"/>
      <point x="623" y="557" type="qcurve"/>
      <point x="590" y="524" type="line" smooth="yes"/>
      <point x="588" y="523"/>
      <point x="581" y="523" type="qcurve" smooth="yes"/>
      <point x="571" y="523" type="line"/>
      <point x="403" y="573" type="line"/>
      <point x="403" y="470" type="line" smooth="yes"/>
      <point x="403" y="466"/>
      <point x="385" y="466" type="qcurve" smooth="yes"/>
      <point x="315" y="466" type="line" smooth="yes"/>
      <point x="297" y="466"/>
      <point x="297" y="470" type="qcurve" smooth="yes"/>
      <point x="297" y="573" type="line"/>
      <point x="129" y="523" type="line"/>
      <point x="119" y="523" type="line" smooth="yes"/>
      <point x="113" y="523"/>
      <point x="111" y="524" type="qcurve" smooth="yes"/>
      <point x="76" y="557" type="line"/>
      <point x="69" y="560"/>
      <point x="69" y="562" type="qcurve"/>
      <point x="72" y="563"/>
      <point x="83" y="565" type="qcurve"/>
      <point x="257" y="617" type="line"/>
      <point x="82" y="669" type="line"/>
      <point x="70" y="671"/>
      <point x="69" y="673" type="qcurve" smooth="yes"/>
      <point x="66" y="676"/>
      <point x="73" y="678" type="qcurve" smooth="yes"/>
      <point x="76" y="678" type="line" smooth="yes"/>
      <point x="111" y="711" type="line" smooth="yes"/>
      <point x="113" y="712"/>
      <point x="119" y="712" type="qcurve" smooth="yes"/>
      <point x="129" y="712" type="line"/>
      <point x="297" y="661" type="line"/>
      <point x="297" y="764" type="line" smooth="yes"/>
      <point x="297" y="769"/>
      <point x="315" y="769" type="qcurve" smooth="yes"/>
      <point x="385" y="769" type="line" smooth="yes"/>
      <point x="403" y="769"/>
      <point x="403" y="764" type="qcurve" smooth="yes"/>
      <point x="403" y="661" type="line"/>
      <point x="571" y="712" type="line"/>
      <point x="581" y="712" type="line" smooth="yes"/>
      <point x="588" y="712"/>
      <point x="590" y="711" type="qcurve" smooth="yes"/>
      <point x="623" y="678" type="line"/>
      <point x="627" y="677"/>
      <point x="631" y="675"/>
      <point x="630" y="673" type="qcurve" smooth="yes"/>
      <point x="628" y="671"/>
      <point x="616" y="669" type="qcurve"/>
      <point x="443" y="617" type="line"/>
      <point x="616" y="565" type="line"/>
      <point x="627" y="563"/>
    </contour>
  </outline>
</glyph>
<glyph name="plus" format="1">
  <advance width="690"/>
  <unicode hex="002B"/>
  <outline>
    <contour>
      <point x="694" y="319" type="line" smooth="yes"/>
      <point x="694" y="314"/>
      <point x="675" y="314" type="qcurve" smooth="yes"/>
      <point x="415" y="314" type="line"/>
      <point x="415" y="175" type="line" smooth="yes"/>
      <point x="415" y="170"/>
      <point x="396" y="170" type="qcurve" smooth="yes"/>
      <point x="336" y="170" type="line" smooth="yes"/>
      <point x="317" y="170"/>
      <point x="317" y="175" type="qcurve" smooth="yes"/>
      <point x="317" y="314" type="line"/>
      <point x="57" y="314" type="line" smooth="yes"/>
      <point x="38" y="314"/>
      <point x="38" y="319" type="qcurve" smooth="yes"/>
      <point x="38" y="349" type="line" smooth="yes"/>
      <point x="38" y="354"/>
      <point x="57" y="354" type="qcurve" smooth="yes"/>
      <point x="317" y="354" type="line"/>
      <point x="317" y="492" type="line" smooth="yes"/>
      <point x="317" y="497"/>
      <point x="336" y="497" type="qcurve" smooth="yes"/>
      <point x="396" y="497" type="line" smooth="yes"/>
      <point x="415" y="497"/>
      <point x="415" y="492" type="qcurve" smooth="yes"/>
      <point x="415" y="354" type="line"/>
      <point x="675" y="354" type="line" smooth="yes"/>
      <point x="694" y="354"/>
      <point x="694" y="349" type="qcurve" smooth="yes"/>
    </contour>
  </outline>
</glyph>
<glyph name="comma" format="1">
  <advance width="211"/>
  <unicode hex="002C"/>
  <outline>
    <contour>
      <point x="159" y="41" type="line"/>
      <point x="126" y="-64" type="line"/>
      <point x="122" y="-67"/>
      <point x="112" y="-67" type="qcurve" smooth="yes"/>
      <point x="62" y="-67" type="line"/>
      <point x="44" y="-66"/>
      <point x="48" y="-61" type="qcurve"/>
      <point x="68" y="4" type="line"/>
      <point x="58" y="4" type="line" smooth="yes"/>
      <point x="43" y="4"/>
      <point x="43" y="8" type="qcurve" smooth="yes"/>
      <point x="43" y="42" type="line" smooth="yes"/>
      <point x="43" y="47"/>
      <point x="58" y="47" type="qcurve" smooth="yes"/>
      <point x="144" y="47" type="line" smooth="yes"/>
      <point x="159" y="47"/>
      <point x="159" y="42" type="qcurve" smooth="yes"/>
    </contour>
  </outline>
</glyph>
<glyph name="hyphen" format="1">
  <advance width="443"/>
  <unicode hex="002D"/>
  <outline>
    <contour>
      <point x="448" y="192" type="line" smooth="yes"/>
      <point x="448" y="185"/>
      <point x="414" y="185" type="qcurve" smooth="yes"/>
      <point x="99" y="185" type="line" smooth="yes"/>
      <point x="64" y="185"/>
      <point x="64" y="192" type="qcurve" smooth="yes"/>
      <point x="64" y="209" type="line" smooth="yes"/>
      <point x="64" y="216"/>
      <point x="99" y="216" type="qcurve" smooth="yes"/>
      <point x="414" y="216" type="line" smooth="yes"/>
      <point x="448" y="216"/>
      <point x="448" y="209" type="qcurve" smooth="yes"/>
    </contour>
  </outline>
</glyph>
<glyph name="period" format="1">
  <advance width="175"/>
  <unicode hex="002E"/>
  <outline>
    <contour>
      <point x="132" y="7" type="line" smooth="yes"/>
      <point x="132" y="3"/>
      <point x="119" y="3" type="qcurve" smooth="yes"/>
      <point x="80" y="3" type="line" smooth="yes"/>
      <point x="68" y="3"/>
      <point x="68" y="7" type="qcurve" smooth="yes"/>
      <point x="68" y="36" type="line" smooth="yes"/>
      <point x="68" y="40"/>
      <point x="80" y="40" type="qcurve" smooth="yes"/>
      <point x="119" y="40" type="line" smooth="yes"/>
      <point x="132" y="40"/>
      <point x="132" y="36" type="qcurve" smooth="yes"/>
    </contour>
  </outline>
</glyph>
<glyph name="slash" format="1">
  <advance width="543"/>
  <unicode hex="002F"/>
  <outline>
    <contour>
      <point x="574" y="806" type="qcurve"/>
      <point x="572" y="804"/>
      <point x="570" y="803" type="qcurve"/>
      <point x="107" y="2" type="line"/>
      <point x="101" y="0"/>
      <point x="91" y="0" type="qcurve" smooth="yes"/>
      <point x="30" y="0" type="line" smooth="yes"/>
      <point x="11" y="0"/>
      <point x="11" y="5" type="qcurve" smooth="yes"/>
      <point x="11" y="6"/>
      <point x="14" y="8" type="qcurve"/>
      <point x="477" y="809" type="line"/>
      <point x="485" y="811"/>
      <point x="493" y="811" type="qcurve" smooth="yes"/>
      <point x="555" y="811" type="line" smooth="yes"/>
      <point x="574" y="811"/>
    </contour>
  </outline>
</glyph>
<glyph name="zero" format="1">
  <advance width="520"/>
  <unicode hex="0030"/>
  <outline>
    <contour>
      <point x="485" y="118" type="line" smooth="yes"/>
      <point x="485" y="-8"/>
      <point x="277" y="-8" type="qcurve" smooth="yes"/>
      <point x="71" y="-8"/>
      <point x="71" y="118" type="qcurve" smooth="yes"/>
      <point x="71" y="687" type="line" smooth="yes"/>
      <point x="71" y="811"/>
      <point x="277" y="811" type="qcurve" smooth="yes"/>
      <point x="485" y="811"/>
      <point x="485" y="687" type="qcurve" smooth="yes"/>
    </contour>
    <contour>
      <point x="386" y="717" type="line"/>
      <point x="371" y="776"/>
      <point x="277" y="776" type="qcurve" smooth="yes"/>
      <point x="168" y="776"/>
      <point x="168" y="689" type="qcurve" smooth="yes"/>
      <point x="168" y="279" type="line"/>
    </contour>
    <contour>
      <point x="387" y="116" type="qcurve" smooth="yes"/>
      <point x="387" y="529" type="line"/>
      <point x="171" y="91" type="line"/>
      <point x="184" y="27"/>
      <point x="277" y="27" type="qcurve" smooth="yes"/>
      <point x="387" y="27"/>
    </contour>
  </outline>
</glyph>
<glyph name="one" format="1">
  <advance width="218"/>
  <unicode hex="0031"/>
  <outline>
    <contour>
      <point x="217" y="5" type="line" smooth="yes"/>
      <point x="217" y="0"/>
      <point x="200" y="0" type="qcurve" smooth="yes"/>
      <point x="56" y="0" type="line" smooth="yes"/>
      <point x="40" y="0"/>
      <point x="40" y="5" type="qcurve" smooth="yes"/>
      <point x="40" y="36" type="line" smooth="yes"/>
      <point x="40" y="40"/>
      <point x="56" y="40" type="qcurve" smooth="yes"/>
      <point x="83" y="40" type="line"/>
      <point x="83" y="745" type="line"/>
      <point x="45" y="736" type="line"/>
      <point x="25" y="734"/>
      <point x="25" y="741" type="qcurve" smooth="yes"/>
      <point x="25" y="771" type="line" smooth="yes"/>
      <point x="25" y="776"/>
      <point x="38" y="776" type="qcurve"/>
      <point x="152" y="804" type="line"/>
      <point x="172" y="806"/>
      <point x="172" y="799" type="qcurve" smooth="yes"/>
      <point x="172" y="40" type="line"/>
      <point x="200" y="40" type="line" smooth="yes"/>
      <point x="217" y="40"/>
      <point x="217" y="36" type="qcurve" smooth="yes"/>
    </contour>
  </outline>
</glyph>
<glyph name="two" format="1">
  <advance width="496"/>
  <unicode hex="0032"/>
  <outline>
    <contour>
      <point x="485" y="5" type="line" smooth="yes"/>
      <point x="485" y="0"/>
      <point x="467" y="0" type="qcurve" smooth="yes"/>
      <point x="89" y="0" type="line" smooth="yes"/>
      <point x="71" y="0"/>
      <point x="71" y="5" type="qcurve" smooth="yes"/>
      <point x="71" y="358" type="line" smooth="yes"/>
      <point x="71" y="436"/>
      <point x="173" y="456" type="qcurve"/>
      <point x="204" y="461"/>
      <point x="256" y="464" type="qcurve" smooth="yes"/>
      <point x="346" y="468"/>
      <point x="369" y="481" type="qcurve" smooth="yes"/>
      <point x="387" y="492"/>
      <point x="387" y="539" type="qcurve" smooth="yes"/>
      <point x="387" y="689" type="line" smooth="yes"/>
      <point x="387" y="775"/>
      <point x="277" y="775" type="qcurve" smooth="yes"/>
      <point x="168" y="775"/>
      <point x="168" y="689" type="qcurve" smooth="yes"/>
      <point x="168" y="629" type="line" smooth="yes"/>
      <point x="168" y="624"/>
      <point x="150" y="624" type="qcurve" smooth="yes"/>
      <point x="89" y="624" type="line" smooth="yes"/>
      <point x="71" y="624"/>
      <point x="71" y="629" type="qcurve" smooth="yes"/>
      <point x="71" y="687" type="line" smooth="yes"/>
      <point x="71" y="811"/>
      <point x="277" y="811" type="qcurve" smooth="yes"/>
      <point x="485" y="811"/>
      <point x="485" y="687" type="qcurve" smooth="yes"/>
      <point x="485" y="537" type="line" smooth="yes"/>
      <point x="485" y="475"/>
      <point x="436" y="450" type="qcurve"/>
      <point x="437" y="450" type="line"/>
      <point x="401" y="434"/>
      <point x="278" y="426" type="qcurve" smooth="yes"/>
      <point x="208" y="421"/>
      <point x="184" y="407" type="qcurve" smooth="yes"/>
      <point x="168" y="398"/>
      <point x="168" y="357" type="qcurve" smooth="yes"/>
      <point x="168" y="37" type="line"/>
      <point x="467" y="37" type="line" smooth="yes"/>
      <point x="485" y="37"/>
      <point x="485" y="32" type="qcurve" smooth="yes"/>
    </contour>
  </outline>
</glyph>
<glyph name="three" format="1">
  <advance width="483"/>
  <unicode hex="0033"/>
  <outline>
    <contour>
      <point x="463" y="118" type="line" smooth="yes"/>
      <point x="463" y="-8"/>
      <point x="255" y="-8" type="qcurve" smooth="yes"/>
      <point x="49" y="-8"/>
      <point x="49" y="118" type="qcurve" smooth="yes"/>
      <point x="49" y="179" type="line" smooth="yes"/>
      <point x="49" y="184"/>
      <point x="67" y="184" type="qcurve" smooth="yes"/>
      <point x="128" y="184" type="line" smooth="yes"/>
      <point x="146" y="184"/>
      <point x="146" y="179" type="qcurve" smooth="yes"/>
      <point x="146" y="116" type="line" smooth="yes"/>
      <point x="146" y="27"/>
      <point x="255" y="27" type="qcurve" smooth="yes"/>
      <point x="365" y="27"/>
      <point x="365" y="116" type="qcurve" smooth="yes"/>
      <point x="365" y="362" type="line" smooth="yes"/>
      <point x="365" y="422"/>
      <point x="329" y="435" type="qcurve" smooth="yes"/>
      <point x="305" y="444"/>
      <point x="237" y="444" type="qcurve" smooth="yes"/>
      <point x="177" y="444" type="line" smooth="yes"/>
      <point x="159" y="444"/>
      <point x="159" y="449" type="qcurve" smooth="yes"/>
      <point x="159" y="474" type="line" smooth="yes"/>
      <point x="159" y="479"/>
      <point x="177" y="479" type="qcurve" smooth="yes"/>
      <point x="237" y="479" type="line" smooth="yes"/>
      <point x="321" y="479"/>
      <point x="349" y="498" type="qcurve" smooth="yes"/>
      <point x="365" y="508"/>
      <point x="365" y="560" type="qcurve" smooth="yes"/>
      <point x="365" y="689" type="line" smooth="yes"/>
      <point x="365" y="776"/>
      <point x="255" y="776" type="qcurve" smooth="yes"/>
      <point x="146" y="776"/>
      <point x="146" y="689" type="qcurve" smooth="yes"/>
      <point x="146" y="629" type="line" smooth="yes"/>
      <point x="146" y="624"/>
      <point x="128" y="624" type="qcurve" smooth="yes"/>
      <point x="67" y="624" type="line" smooth="yes"/>
      <point x="49" y="624"/>
      <point x="49" y="629" type="qcurve" smooth="yes"/>
      <point x="49" y="687" type="line" smooth="yes"/>
      <point x="49" y="811"/>
      <point x="255" y="811" type="qcurve" smooth="yes"/>
      <point x="463" y="811"/>
      <point x="463" y="687" type="qcurve" smooth="yes"/>
      <point x="463" y="557" type="line" smooth="yes"/>
      <point x="463" y="486"/>
      <point x="364" y="460" type="qcurve"/>
      <point x="463" y="439"/>
      <point x="463" y="366" type="qcurve" smooth="yes"/>
    </contour>
  </outline>
</glyph>
<glyph name="four" format="1">
  <advance width="508"/>
  <unicode hex="0034"/>
  <outline>
    <contour>
      <point x="546" y="448" type="line" smooth="yes"/>
      <point x="546" y="443"/>
      <point x="527" y="443" type="qcurve" smooth="yes"/>
      <point x="447" y="443" type="line"/>
      <point x="447" y="5" type="line" smooth="yes"/>
      <point x="447" y="0"/>
      <point x="428" y="0" type="qcurve" smooth="yes"/>
      <point x="367" y="0" type="line" smooth="yes"/>
      <point x="348" y="0"/>
      <point x="348" y="5" type="qcurve" smooth="yes"/>
      <point x="348" y="443" type="line"/>
      <point x="24" y="443" type="line" smooth="yes"/>
      <point x="4" y="443"/>
      <point x="4" y="449" type="qcurve" smooth="yes"/>
      <point x="4" y="451"/>
      <point x="11" y="452" type="qcurve"/>
      <point x="351" y="804" type="line"/>
      <point x="428" y="804" type="line" smooth="yes"/>
      <point x="447" y="804"/>
      <point x="447" y="799" type="qcurve" smooth="yes"/>
      <point x="447" y="479" type="line"/>
      <point x="527" y="479" type="line" smooth="yes"/>
      <point x="546" y="479"/>
      <point x="546" y="474" type="qcurve" smooth="yes"/>
    </contour>
    <contour>
      <point x="348" y="479" type="line"/>
      <point x="348" y="692" type="line"/>
      <point x="142" y="479" type="line"/>
    </contour>
  </outline>
</glyph>
<glyph name="five" format="1">
  <advance width="520"/>
  <unicode hex="0035"/>
  <outline>
    <contour>
      <point x="485" y="118" type="line" smooth="yes"/>
      <point x="485" y="-8"/>
      <point x="277" y="-8" type="qcurve" smooth="yes"/>
      <point x="71" y="-8"/>
      <point x="71" y="118" type="qcurve" smooth="yes"/>
      <point x="71" y="179" type="line" smooth="yes"/>
      <point x="71" y="184"/>
      <point x="89" y="184" type="qcurve" smooth="yes"/>
      <point x="150" y="184" type="line" smooth="yes"/>
      <point x="168" y="184"/>
      <point x="168" y="179" type="qcurve" smooth="yes"/>
      <point x="168" y="116" type="line" smooth="yes"/>
      <point x="168" y="27"/>
      <point x="277" y="27" type="qcurve" smooth="yes"/>
      <point x="387" y="27"/>
      <point x="387" y="116" type="qcurve" smooth="yes"/>
      <point x="387" y="362" type="line" smooth="yes"/>
      <point x="387" y="416"/>
      <point x="371" y="426" type="qcurve" smooth="yes"/>
      <point x="343" y="445"/>
      <point x="259" y="445" type="qcurve" smooth="yes"/>
      <point x="89" y="445" type="line" smooth="yes"/>
      <point x="71" y="445"/>
      <point x="71" y="449" type="qcurve" smooth="yes"/>
      <point x="71" y="799" type="line" smooth="yes"/>
      <point x="71" y="804"/>
      <point x="89" y="804" type="qcurve" smooth="yes"/>
      <point x="467" y="804" type="line" smooth="yes"/>
      <point x="485" y="804"/>
      <point x="485" y="799" type="qcurve" smooth="yes"/>
      <point x="485" y="771" type="line" smooth="yes"/>
      <point x="485" y="767"/>
      <point x="467" y="767" type="qcurve" smooth="yes"/>
      <point x="168" y="767" type="line"/>
      <point x="168" y="480" type="line"/>
      <point x="274" y="480" type="line" smooth="yes"/>
      <point x="371" y="480"/>
      <point x="410" y="465" type="qcurve" smooth="yes"/>
      <point x="485" y="436"/>
      <point x="485" y="353" type="qcurve" smooth="yes"/>
    </contour>
  </outline>
</glyph>
<glyph name="six" format="1">
  <advance width="520"/>
  <unicode hex="0036"/>
  <outline>
    <contour>
      <point x="485" y="118" type="line" smooth="yes"/>
      <point x="485" y="-8"/>
      <point x="277" y="-8" type="qcurve" smooth="yes"/>
      <point x="71" y="-8"/>
      <point x="71" y="118" type="qcurve" smooth="yes"/>
      <point x="71" y="687" type="line" smooth="yes"/>
      <point x="71" y="811"/>
      <point x="277" y="811" type="qcurve" smooth="yes"/>
      <point x="485" y="811"/>
      <point x="485" y="687" type="qcurve" smooth="yes"/>
      <point x="485" y="624" type="line" smooth="yes"/>
      <point x="485" y="619"/>
      <point x="467" y="619" type="qcurve" smooth="yes"/>
      <point x="405" y="619" type="line" smooth="yes"/>
      <point x="387" y="619"/>
      <point x="387" y="624" type="qcurve" smooth="yes"/>
      <point x="387" y="689" type="line" smooth="yes"/>
      <point x="387" y="776"/>
      <point x="277" y="776" type="qcurve" smooth="yes"/>
      <point x="168" y="776"/>
      <point x="168" y="689" type="qcurve" smooth="yes"/>
      <point x="168" y="461" type="line"/>
      <point x="222" y="480"/>
      <point x="285" y="480" type="qcurve" smooth="yes"/>
      <point x="485" y="480"/>
      <point x="485" y="356" type="qcurve" smooth="yes"/>
    </contour>
    <contour>
      <point x="387" y="116" type="qcurve" smooth="yes"/>
      <point x="387" y="357" type="line" smooth="yes"/>
      <point x="387" y="445"/>
      <point x="285" y="445" type="qcurve" smooth="yes"/>
      <point x="168" y="445"/>
      <point x="168" y="357" type="qcurve" smooth="yes"/>
      <point x="168" y="116" type="line" smooth="yes"/>
      <point x="168" y="27"/>
      <point x="277" y="27" type="qcurve" smooth="yes"/>
      <point x="387" y="27"/>
    </contour>
  </outline>
</glyph>
<glyph name="seven" format="1">
  <advance width="407"/>
  <unicode hex="0037"/>
  <outline>
    <contour>
      <point x="441" y="797" type="qcurve"/>
      <point x="101" y="3" type="line"/>
      <point x="95" y="0"/>
      <point x="84" y="0" type="qcurve" smooth="yes"/>
      <point x="27" y="0" type="line" smooth="yes"/>
      <point x="8" y="0"/>
      <point x="8" y="4" type="qcurve"/>
      <point x="11" y="7" type="line"/>
      <point x="334" y="766" type="line"/>
      <point x="46" y="766" type="line" smooth="yes"/>
      <point x="27" y="766"/>
      <point x="27" y="771" type="qcurve" smooth="yes"/>
      <point x="27" y="799" type="line" smooth="yes"/>
      <point x="27" y="804"/>
      <point x="46" y="804" type="qcurve" smooth="yes"/>
      <point x="425" y="804" type="line" smooth="yes"/>
      <point x="443" y="804"/>
      <point x="443" y="800" type="qcurve" smooth="yes"/>
      <point x="443" y="799"/>
    </contour>
  </outline>
</glyph>
<glyph name="eight" format="1">
  <advance width="520"/>
  <unicode hex="0038"/>
  <outline>
    <contour>
      <point x="485" y="118" type="line" smooth="yes"/>
      <point x="485" y="-8"/>
      <point x="277" y="-8" type="qcurve" smooth="yes"/>
      <point x="71" y="-8"/>
      <point x="71" y="118" type="qcurve" smooth="yes"/>
      <point x="71" y="360" type="line" smooth="yes"/>
      <point x="71" y="439"/>
      <point x="152" y="466" type="qcurve"/>
      <point x="71" y="494"/>
      <point x="71" y="574" type="qcurve" smooth="yes"/>
      <point x="71" y="687" type="line" smooth="yes"/>
      <point x="71" y="811"/>
      <point x="277" y="811" type="qcurve" smooth="yes"/>
      <point x="485" y="811"/>
      <point x="485" y="687" type="qcurve" smooth="yes"/>
      <point x="485" y="574" type="line" smooth="yes"/>
      <point x="485" y="494"/>
      <point x="404" y="466" type="qcurve"/>
      <point x="485" y="439"/>
      <point x="485" y="360" type="qcurve" smooth="yes"/>
    </contour>
    <contour>
      <point x="387" y="572" type="qcurve" smooth="yes"/>
      <point x="387" y="689" type="line" smooth="yes"/>
      <point x="387" y="776"/>
      <point x="277" y="776" type="qcurve" smooth="yes"/>
      <point x="168" y="776"/>
      <point x="168" y="689" type="qcurve" smooth="yes"/>
      <point x="168" y="572" type="line" smooth="yes"/>
      <point x="168" y="484"/>
      <point x="277" y="484" type="qcurve" smooth="yes"/>
      <point x="387" y="484"/>
    </contour>
    <contour>
      <point x="387" y="116" type="qcurve" smooth="yes"/>
      <point x="387" y="361" type="line" smooth="yes"/>
      <point x="387" y="449"/>
      <point x="277" y="449" type="qcurve" smooth="yes"/>
      <point x="168" y="449"/>
      <point x="168" y="361" type="qcurve" smooth="yes"/>
      <point x="168" y="116" type="line" smooth="yes"/>
      <point x="168" y="27"/>
      <point x="277" y="27" type="qcurve" smooth="yes"/>
      <point x="387" y="27"/>
    </contour>
  </outline>
</glyph>
<glyph name="nine" format="1">
  <advance width="520"/>
  <unicode hex="0039"/>
  <outline>
    <contour>
      <point x="485" y="118" type="line" smooth="yes"/>
      <point x="485" y="-8"/>
      <point x="277" y="-8" type="qcurve" smooth="yes"/>
      <point x="71" y="-8"/>
      <point x="71" y="118" type="qcurve" smooth="yes"/>
      <point x="71" y="179" type="line" smooth="yes"/>
      <point x="71" y="184"/>
      <point x="89" y="184" type="qcurve" smooth="yes"/>
      <point x="150" y="184" type="line" smooth="yes"/>
      <point x="168" y="184"/>
      <point x="168" y="179" type="qcurve" smooth="yes"/>
      <point x="168" y="116" type="line" smooth="yes"/>
      <point x="168" y="27"/>
      <point x="277" y="27" type="qcurve" smooth="yes"/>
      <point x="387" y="27"/>
      <point x="387" y="116" type="qcurve" smooth="yes"/>
      <point x="387" y="459" type="line"/>
      <point x="333" y="442"/>
      <point x="263" y="442" type="qcurve" smooth="yes"/>
      <point x="71" y="442"/>
      <point x="71" y="565" type="qcurve" smooth="yes"/>
      <point x="71" y="687" type="line" smooth="yes"/>
      <point x="71" y="811"/>
      <point x="277" y="811" type="qcurve" smooth="yes"/>
      <point x="485" y="811"/>
      <point x="485" y="687" type="qcurve" smooth="yes"/>
    </contour>
    <contour>
      <point x="387" y="565" type="qcurve" smooth="yes"/>
      <point x="387" y="689" type="line" smooth="yes"/>
      <point x="387" y="776"/>
      <point x="277" y="776" type="qcurve" smooth="yes"/>
      <point x="168" y="776"/>
      <point x="168" y="689" type="qcurve" smooth="yes"/>
      <point x="168" y="565" type="line" smooth="yes"/>
      <point x="168" y="478"/>
      <point x="272" y="478" type="qcurve" smooth="yes"/>
      <point x="387" y="478"/>
    </contour>
  </outline>
</glyph>
<glyph name="colon" format="1">
  <advance width="175"/>
  <unicode hex="003A"/>
  <outline>
    <contour>
      <point x="132" y="322" type="line" smooth="yes"/>
      <point x="132" y="317"/>
      <point x="119" y="317" type="qcurve" smooth="yes"/>
      <point x="80" y="317" type="line" smooth="yes"/>
      <point x="68" y="317"/>
      <point x="68" y="322" type="qcurve" smooth="yes"/>
      <point x="68" y="359" type="line" smooth="yes"/>
      <point x="68" y="364"/>
      <point x="80" y="364" type="qcurve" smooth="yes"/>
      <point x="119" y="364" type="line" smooth="yes"/>
      <point x="132" y="364"/>
      <point x="132" y="359" type="qcurve" smooth="yes"/>
    </contour>
    <contour>
      <point x="132" y="9" type="line" smooth="yes"/>
      <point x="132" y="4"/>
      <point x="119" y="4" type="qcurve" smooth="yes"/>
      <point x="80" y="4" type="line" smooth="yes"/>
      <point x="68" y="4"/>
      <point x="68" y="9" type="qcurve" smooth="yes"/>
      <point x="68" y="45" type="line" smooth="yes"/>
      <point x="68" y="50"/>
      <point x="80" y="50" type="qcurve" smooth="yes"/>
      <point x="119" y="50" type="line" smooth="yes"/>
      <point x="132" y="50"/>
      <point x="132" y="45" type="qcurve" smooth="yes"/>
    </contour>
  </outline>
</glyph>
<glyph name="semicolon" format="1">
  <advance width="211"/>
  <unicode hex="003B"/>
  <outline>
    <contour>
      <point x="159" y="324" type="line" smooth="yes"/>
      <point x="159" y="319"/>
      <point x="144" y="319" type="qcurve" smooth="yes"/>
      <point x="97" y="319" type="line" smooth="yes"/>
      <point x="82" y="319"/>
      <point x="82" y="324" type="qcurve" smooth="yes"/>
      <point x="82" y="361" type="line" smooth="yes"/>
      <point x="82" y="366"/>
      <point x="97" y="366" type="qcurve" smooth="yes"/>
      <point x="144" y="366" type="line" smooth="yes"/>
      <point x="159" y="366"/>
      <point x="159" y="361" type="qcurve" smooth="yes"/>
    </contour>
    <contour>
      <point x="159" y="44" type="line"/>
      <point x="126" y="-68" type="line"/>
      <point x="122" y="-71"/>
      <point x="112" y="-71" type="qcurve" smooth="yes"/>
      <point x="62" y="-71" type="line"/>
      <point x="44" y="-70"/>
      <point x="48" y="-65" type="qcurve"/>
      <point x="68" y="4" type="line"/>
      <point x="58" y="4" type="line" smooth="yes"/>
      <point x="43" y="4"/>
      <point x="43" y="9" type="qcurve" smooth="yes"/>
      <point x="43" y="45" type="line" smooth="yes"/>
      <point x="43" y="50"/>
      <point x="58" y="50" type="qcurve" smooth="yes"/>
      <point x="144" y="50" type="line" smooth="yes"/>
      <point x="159" y="50"/>
      <point x="159" y="45" type="qcurve" smooth="yes"/>
    </contour>
  </outline>
</glyph>
<glyph name="less" format="1">
  <advance width="833"/>
  <unicode hex="003C"/>
  <outline>
    <contour>
      <point x="784" y="142" type="line" smooth="yes"/>
      <point x="784" y="134"/>
      <point x="760" y="137" type="qcurve"/>
      <point x="120" y="314" type="line"/>
      <point x="106" y="316"/>
      <point x="106" y="319" type="qcurve" smooth="yes"/>
      <point x="106" y="341" type="line" smooth="yes"/>
      <point x="106" y="344"/>
      <point x="120" y="346" type="qcurve"/>
      <point x="760" y="522" type="line"/>
      <point x="784" y="525"/>
      <point x="784" y="518" type="qcurve" smooth="yes"/>
      <point x="784" y="480" type="line"/>
      <point x="770" y="475" type="line"/>
      <point x="260" y="330" type="line"/>
      <point x="770" y="184" type="line"/>
      <point x="784" y="179" type="line"/>
    </contour>
  </outline>
</glyph>
<glyph name="equal" format="1">
  <advance width="1233"/>
  <unicode hex="003D"/>
  <outline>
    <contour>
      <point x="1137" y="370" type="line" smooth="yes"/>
      <point x="1137" y="365"/>
      <point x="1117" y="365" type="qcurve" smooth="yes"/>
      <point x="154" y="365" type="line" smooth="yes"/>
      <point x="135" y="365"/>
      <point x="135" y="370" type="qcurve" smooth="yes"/>
      <point x="135" y="402" type="line" smooth="yes"/>
      <point x="135" y="407"/>
      <point x="154" y="407" type="qcurve" smooth="yes"/>
      <point x="1117" y="407" type="line" smooth="yes"/>
      <point x="1137" y="407"/>
      <point x="1137" y="402" type="qcurve" smooth="yes"/>
    </contour>
    <contour>
      <point x="1137" y="237" type="line" smooth="yes"/>
      <point x="1137" y="233"/>
      <point x="1117" y="233" type="qcurve" smooth="yes"/>
      <point x="154" y="233" type="line" smooth="yes"/>
      <point x="135" y="233"/>
      <point x="135" y="237" type="qcurve" smooth="yes"/>
      <point x="135" y="270" type="line" smooth="yes"/>
      <point x="135" y="275"/>
      <point x="154" y="275" type="qcurve" smooth="yes"/>
      <point x="1117" y="275" type="line" smooth="yes"/>
      <point x="1137" y="275"/>
      <point x="1137" y="270" type="qcurve" smooth="yes"/>
    </contour>
  </outline>
</glyph>
<glyph name="greater" format="1">
  <advance width="833"/>
  <unicode hex="003E"/>
  <outline>
    <contour>
      <point x="784" y="319" type="line"/>
      <point x="770" y="314" type="line"/>
      <point x="129" y="137" type="line"/>
      <point x="106" y="134"/>
      <point x="106" y="142" type="qcurve" smooth="yes"/>
      <point x="106" y="179" type="line" smooth="yes"/>
      <point x="106" y="182"/>
      <point x="120" y="184" type="qcurve"/>
      <point x="630" y="330" type="line"/>
      <point x="120" y="475" type="line"/>
      <point x="106" y="477"/>
      <point x="106" y="480" type="qcurve" smooth="yes"/>
      <point x="106" y="518" type="line" smooth="yes"/>
      <point x="106" y="525"/>
      <point x="129" y="522" type="qcurve"/>
      <point x="770" y="346" type="line"/>
      <point x="784" y="341" type="line"/>
    </contour>
  </outline>
</glyph>
<glyph name="question" format="1">
  <advance width="458"/>
  <unicode hex="003F"/>
  <outline>
    <contour>
      <point x="423" y="569" type="line" smooth="yes"/>
      <point x="423" y="504"/>
      <point x="362" y="470" type="qcurve" smooth="yes"/>
      <point x="331" y="452"/>
      <point x="265" y="446" type="qcurve"/>
      <point x="265" y="124" type="line" smooth="yes"/>
      <point x="265" y="120"/>
      <point x="246" y="120" type="qcurve" smooth="yes"/>
      <point x="184" y="120" type="line" smooth="yes"/>
      <point x="166" y="120"/>
      <point x="166" y="124" type="qcurve" smooth="yes"/>
      <point x="166" y="474" type="line" smooth="yes"/>
      <point x="166" y="479"/>
      <point x="184" y="479" type="qcurve" smooth="yes"/>
      <point x="260" y="479"/>
      <point x="285" y="488" type="qcurve" smooth="yes"/>
      <point x="325" y="501"/>
      <point x="325" y="568" type="qcurve" smooth="yes"/>
      <point x="325" y="688" type="line" smooth="yes"/>
      <point x="325" y="775"/>
      <point x="215" y="775" type="qcurve" smooth="yes"/>
      <point x="106" y="775"/>
      <point x="106" y="688" type="qcurve" smooth="yes"/>
      <point x="106" y="629" type="line" smooth="yes"/>
      <point x="106" y="624"/>
      <point x="88" y="624" type="qcurve" smooth="yes"/>
      <point x="24" y="624" type="line" smooth="yes"/>
      <point x="5" y="624"/>
      <point x="5" y="629" type="qcurve" smooth="yes"/>
      <point x="5" y="686" type="line" smooth="yes"/>
      <point x="5" y="811"/>
      <point x="215" y="811" type="qcurve" smooth="yes"/>
      <point x="423" y="811"/>
      <point x="423" y="686" type="qcurve" smooth="yes"/>
    </contour>
    <contour>
      <point x="261" y="9" type="line" smooth="yes"/>
      <point x="261" y="4"/>
      <point x="243" y="4" type="qcurve" smooth="yes"/>
      <point x="184" y="4" type="line" smooth="yes"/>
      <point x="166" y="4"/>
      <point x="166" y="9" type="qcurve" smooth="yes"/>
      <point x="166" y="45" type="line" smooth="yes"/>
      <point x="166" y="50"/>
      <point x="184" y="50" type="qcurve" smooth="yes"/>
      <point x="243" y="50" type="line" smooth="yes"/>
      <point x="261" y="50"/>
      <point x="261" y="45" type="qcurve" smooth="yes"/>
    </contour>
  </outline>
</glyph>
<glyph name="at" format="1">
  <advance width="1275"/>
  <unicode hex="0040"/>
  <outline>
    <contour>
      <point x="1250" y="392" type="qcurve" smooth="yes"/>
      <point x="1250" y="313"/>
      <point x="1210" y="222" type="qcurve"/>
      <point x="1168" y="135"/>
      <point x="1086" y="86" type="qcurve" smooth="yes"/>
      <point x="994" y="32"/>
      <point x="882" y="32" type="qcurve" smooth="yes"/>
      <point x="744" y="32"/>
      <point x="739" y="101" type="qcurve" smooth="yes"/>
      <point x="738" y="115" type="line"/>
      <point x="694" y="104"/>
      <point x="619" y="104" type="qcurve" smooth="yes"/>
      <point x="426" y="104"/>
      <point x="426" y="200" type="qcurve" smooth="yes"/>
      <point x="426" y="219"/>
      <point x="435" y="264" type="qcurve" smooth="yes"/>
      <point x="459" y="387"/>
      <point x="681" y="387" type="qcurve" smooth="yes"/>
      <point x="751" y="387"/>
      <point x="795" y="376" type="qcurve"/>
      <point x="807" y="433" type="line"/>
      <point x="807" y="436" type="line"/>
      <point x="809" y="450"/>
      <point x="809" y="454" type="qcurve" smooth="yes"/>
      <point x="809" y="519"/>
      <point x="710" y="519" type="qcurve" smooth="yes"/>
      <point x="596" y="519"/>
      <point x="572" y="421" type="qcurve"/>
      <point x="568" y="417"/>
      <point x="553" y="417" type="qcurve" smooth="yes"/>
      <point x="490" y="417" type="line" smooth="yes"/>
      <point x="470" y="417"/>
      <point x="470" y="421" type="qcurve" smooth="yes"/>
      <point x="470" y="422"/>
      <point x="472" y="424" type="qcurve" smooth="yes"/>
      <point x="476" y="432" type="line"/>
      <point x="474" y="431" type="line"/>
      <point x="499" y="555"/>
      <point x="718" y="555" type="qcurve" smooth="yes"/>
      <point x="915" y="555"/>
      <point x="915" y="456" type="qcurve" smooth="yes"/>
      <point x="915" y="452"/>
      <point x="910" y="429" type="qcurve" smooth="yes"/>
      <point x="836" y="113" type="line"/>
      <point x="836" y="74"/>
      <point x="894" y="74" type="qcurve" smooth="yes"/>
      <point x="980" y="74"/>
      <point x="1053" y="131" type="qcurve"/>
      <point x="1153" y="207"/>
      <point x="1153" y="394" type="qcurve" smooth="yes"/>
      <point x="1153" y="516"/>
      <point x="1048" y="589" type="qcurve" smooth="yes"/>
      <point x="924" y="676"/>
      <point x="708" y="676" type="qcurve" smooth="yes"/>
      <point x="507" y="676"/>
      <point x="358" y="588" type="qcurve" smooth="yes"/>
      <point x="161" y="472"/>
      <point x="161" y="266" type="qcurve" smooth="yes"/>
      <point x="161" y="123"/>
      <point x="273" y="38" type="qcurve" smooth="yes"/>
      <point x="416" y="-72"/>
      <point x="660" y="-72" type="qcurve" smooth="yes"/>
      <point x="867" y="-72"/>
      <point x="1056" y="20" type="qcurve" smooth="yes"/>
      <point x="1059" y="21"/>
      <point x="1068" y="21" type="qcurve" smooth="yes"/>
      <point x="1073" y="21"/>
      <point x="1079" y="19" type="qcurve"/>
      <point x="1094" y="0" type="line"/>
      <point x="1098" y="-1"/>
      <point x="1098" y="-3" type="qcurve" smooth="yes"/>
      <point x="1098" y="-6"/>
      <point x="1089" y="-7" type="qcurve"/>
      <point x="904" y="-112"/>
      <point x="668" y="-112" type="qcurve" smooth="yes"/>
      <point x="415" y="-112"/>
      <point x="261" y="-24" type="qcurve" smooth="yes"/>
      <point x="60" y="90"/>
      <point x="60" y="273" type="qcurve" smooth="yes"/>
      <point x="60" y="424"/>
      <point x="194" y="547" type="qcurve" smooth="yes"/>
      <point x="378" y="716"/>
      <point x="712" y="716" type="qcurve" smooth="yes"/>
      <point x="936" y="716"/>
      <point x="1076" y="636" type="qcurve" smooth="yes"/>
      <point x="1250" y="537"/>
    </contour>
    <contour>
      <point x="774" y="292" type="line"/>
      <point x="772" y="352"/>
      <point x="673" y="352" type="qcurve" smooth="yes"/>
      <point x="550" y="352"/>
      <point x="538" y="263" type="qcurve" smooth="yes"/>
      <point x="526" y="175" type="line"/>
      <point x="526" y="154"/>
      <point x="590" y="142" type="qcurve" smooth="yes"/>
      <point x="606" y="138"/>
      <point x="625" y="138" type="qcurve" smooth="yes"/>
      <point x="728" y="138"/>
      <point x="757" y="201" type="qcurve"/>
      <point x="755" y="200" type="line"/>
    </contour>
  </outline>
</glyph>
<glyph name="A" format="1">
  <advance width="520"/>
  <unicode hex="0041"/>
  <outline>
    <contour>
      <point x="538" y="6" type="line"/>
      <point x="544" y="0"/>
      <point x="520" y="0" type="qcurve" smooth="yes"/>
      <point x="459" y="0" type="line" smooth="yes"/>
      <point x="445" y="0"/>
      <point x="441" y="4" type="qcurve"/>
      <point x="344" y="374" type="line"/>
      <point x="212" y="374" type="line"/>
      <point x="110" y="4" type="line" smooth="yes"/>
      <point x="109" y="0"/>
      <point x="93" y="0" type="qcurve" smooth="yes"/>
      <point x="37" y="0" type="line" smooth="yes"/>
      <point x="13" y="0"/>
      <point x="19" y="6" type="qcurve"/>
      <point x="235" y="800" type="line"/>
      <point x="239" y="804"/>
      <point x="253" y="804" type="qcurve" smooth="yes"/>
      <point x="305" y="804" type="line" smooth="yes"/>
      <point x="318" y="804"/>
      <point x="322" y="800" type="qcurve"/>
    </contour>
    <contour>
      <point x="333" y="415" type="line"/>
      <point x="278" y="624" type="line"/>
      <point x="221" y="415" type="line"/>
    </contour>
  </outline>
</glyph>
<glyph name="B" format="1">
  <advance width="509"/>
  <unicode hex="0042"/>
  <outline>
    <contour>
      <point x="481" y="128" type="line" smooth="yes"/>
      <point x="481" y="59"/>
      <point x="442" y="31" type="qcurve"/>
      <point x="401" y="0"/>
      <point x="272" y="0" type="qcurve" smooth="yes"/>
      <point x="88" y="0" type="line" smooth="yes"/>
      <point x="69" y="0"/>
      <point x="69" y="5" type="qcurve" smooth="yes"/>
      <point x="69" y="799" type="line" smooth="yes"/>
      <point x="69" y="804"/>
      <point x="88" y="804" type="qcurve" smooth="yes"/>
      <point x="272" y="804" type="line" smooth="yes"/>
      <point x="481" y="804"/>
      <point x="481" y="688" type="qcurve" smooth="yes"/>
      <point x="481" y="559" type="line" smooth="yes"/>
      <point x="481" y="488"/>
      <point x="385" y="463" type="qcurve"/>
      <point x="481" y="438"/>
      <point x="481" y="366" type="qcurve" smooth="yes"/>
    </contour>
    <contour>
      <point x="386" y="563" type="qcurve" smooth="yes"/>
      <point x="386" y="685" type="line" smooth="yes"/>
      <point x="386" y="747"/>
      <point x="349" y="759" type="qcurve" smooth="yes"/>
      <point x="323" y="767"/>
      <point x="255" y="767" type="qcurve" smooth="yes"/>
      <point x="168" y="767" type="line"/>
      <point x="168" y="480" type="line"/>
      <point x="255" y="480" type="line" smooth="yes"/>
      <point x="336" y="480"/>
      <point x="368" y="499" type="qcurve" smooth="yes"/>
      <point x="386" y="510"/>
    </contour>
    <contour>
      <point x="386" y="118" type="qcurve" smooth="yes"/>
      <point x="386" y="364" type="line" smooth="yes"/>
      <point x="386" y="425"/>
      <point x="348" y="437" type="qcurve" smooth="yes"/>
      <point x="321" y="445"/>
      <point x="255" y="445" type="qcurve" smooth="yes"/>
      <point x="168" y="445" type="line"/>
      <point x="168" y="36" type="line"/>
      <point x="255" y="36" type="line" smooth="yes"/>
      <point x="336" y="36"/>
      <point x="368" y="54" type="qcurve" smooth="yes"/>
      <point x="386" y="64"/>
    </contour>
  </outline>
</glyph>
<glyph name="C" format="1">
  <advance width="483"/>
  <unicode hex="0043"/>
  <outline>
    <contour>
      <point x="485" y="118" type="line" smooth="yes"/>
      <point x="485" y="-8"/>
      <point x="277" y="-8" type="qcurve" smooth="yes"/>
      <point x="71" y="-8"/>
      <point x="71" y="118" type="qcurve" smooth="yes"/>
      <point x="71" y="687" type="line" smooth="yes"/>
      <point x="71" y="811"/>
      <point x="277" y="811" type="qcurve" smooth="yes"/>
      <point x="485" y="811"/>
      <point x="485" y="687" type="qcurve" smooth="yes"/>
      <point x="485" y="629" type="line" smooth="yes"/>
      <point x="485" y="624"/>
      <point x="467" y="624" type="qcurve" smooth="yes"/>
      <point x="405" y="624" type="line" smooth="yes"/>
      <point x="387" y="624"/>
      <point x="387" y="629" type="qcurve" smooth="yes"/>
      <point x="387" y="689" type="line" smooth="yes"/>
      <point x="387" y="776"/>
      <point x="277" y="776" type="qcurve" smooth="yes"/>
      <point x="168" y="776"/>
      <point x="168" y="689" type="qcurve" smooth="yes"/>
      <point x="168" y="116" type="line" smooth="yes"/>
      <point x="168" y="27"/>
      <point x="277" y="27" type="qcurve" smooth="yes"/>
      <point x="387" y="27"/>
      <point x="387" y="116" type="qcurve" smooth="yes"/>
      <point x="387" y="179" type="line" smooth="yes"/>
      <point x="387" y="184"/>
      <point x="405" y="184" type="qcurve" smooth="yes"/>
      <point x="467" y="184" type="line" smooth="yes"/>
      <point x="485" y="184"/>
      <point x="485" y="179" type="qcurve" smooth="yes"/>
    </contour>
  </outline>
</glyph>
<glyph name="D" format="1">
  <advance width="505"/>
  <unicode hex="0044"/>
  <outline>
    <contour>
      <point x="485" y="115" type="line" smooth="yes"/>
      <point x="485" y="0"/>
      <point x="274" y="0" type="qcurve" smooth="yes"/>
      <point x="89" y="0" type="line" smooth="yes"/>
      <point x="71" y="0"/>
      <point x="71" y="5" type="qcurve" smooth="yes"/>
      <point x="71" y="799" type="line" smooth="yes"/>
      <point x="71" y="804"/>
      <point x="89" y="804" type="qcurve" smooth="yes"/>
      <point x="274" y="804" type="line" smooth="yes"/>
      <point x="403" y="804"/>
      <point x="443" y="770" type="qcurve"/>
      <point x="441" y="770" type="line"/>
      <point x="485" y="744"/>
      <point x="485" y="676" type="qcurve" smooth="yes"/>
    </contour>
    <contour>
      <point x="387" y="118" type="qcurve" smooth="yes"/>
      <point x="387" y="686" type="line" smooth="yes"/>
      <point x="387" y="745"/>
      <point x="350" y="758" type="qcurve" smooth="yes"/>
      <point x="326" y="766"/>
      <point x="259" y="766" type="qcurve" smooth="yes"/>
      <point x="168" y="766" type="line"/>
      <point x="168" y="36" type="line"/>
      <point x="259" y="36" type="line" smooth="yes"/>
      <point x="344" y="36"/>
      <point x="371" y="54" type="qcurve" smooth="yes"/>
      <point x="387" y="64"/>
    </contour>
  </outline>
</glyph>
<glyph name="E" format="1">
  <advance width="468"/>
  <unicode hex="0045"/>
  <outline>
    <contour>
      <point x="477" y="5" type="line" smooth="yes"/>
      <point x="477" y="0"/>
      <point x="459" y="0" type="qcurve" smooth="yes"/>
      <point x="87" y="0" type="line" smooth="yes"/>
      <point x="69" y="0"/>
      <point x="69" y="5" type="qcurve" smooth="yes"/>
      <point x="69" y="799" type="line" smooth="yes"/>
      <point x="69" y="804"/>
      <point x="87" y="804" type="qcurve" smooth="yes"/>
      <point x="459" y="804" type="line" smooth="yes"/>
      <point x="477" y="804"/>
      <point x="477" y="799" type="qcurve" smooth="yes"/>
      <point x="477" y="772" type="line" smooth="yes"/>
      <point x="477" y="767"/>
      <point x="459" y="767" type="qcurve" smooth="yes"/>
      <point x="168" y="767" type="line"/>
      <point x="168" y="480" type="line"/>
      <point x="459" y="480" type="line" smooth="yes"/>
      <point x="477" y="480"/>
      <point x="477" y="475" type="qcurve" smooth="yes"/>
      <point x="477" y="450" type="line" smooth="yes"/>
      <point x="477" y="445"/>
      <point x="459" y="445" type="qcurve" smooth="yes"/>
      <point x="168" y="445" type="line"/>
      <point x="168" y="36" type="line"/>
      <point x="459" y="36" type="line" smooth="yes"/>
      <point x="477" y="36"/>
      <point x="477" y="31" type="qcurve" smooth="yes"/>
    </contour>
  </outline>
</glyph>
<glyph name="F" format="1">
  <advance width="455"/>
  <unicode hex="0046"/>
  <outline>
    <contour>
      <point x="486" y="771" type="line" smooth="yes"/>
      <point x="486" y="766"/>
      <point x="468" y="766" type="qcurve" smooth="yes"/>
      <point x="177" y="766" type="line"/>
      <point x="177" y="483" type="line"/>
      <point x="426" y="483" type="line" smooth="yes"/>
      <point x="444" y="483"/>
      <point x="444" y="478" type="qcurve" smooth="yes"/>
      <point x="444" y="451" type="line" smooth="yes"/>
      <point x="444" y="446"/>
      <point x="426" y="446" type="qcurve" smooth="yes"/>
      <point x="177" y="446" type="line"/>
      <point x="177" y="5" type="line" smooth="yes"/>
      <point x="177" y="0"/>
      <point x="158" y="0" type="qcurve" smooth="yes"/>
      <point x="97" y="0" type="line" smooth="yes"/>
      <point x="78" y="0"/>
      <point x="78" y="5" type="qcurve" smooth="yes"/>
      <point x="78" y="799" type="line" smooth="yes"/>
      <point x="78" y="804"/>
      <point x="97" y="804" type="qcurve" smooth="yes"/>
      <point x="468" y="804" type="line" smooth="yes"/>
      <point x="486" y="804"/>
      <point x="486" y="799" type="qcurve" smooth="yes"/>
    </contour>
  </outline>
</glyph>
<glyph name="G" format="1">
  <advance width="520"/>
  <unicode hex="0047"/>
  <outline>
    <contour>
      <point x="485" y="118" type="line" smooth="yes"/>
      <point x="485" y="-8"/>
      <point x="277" y="-8" type="qcurve" smooth="yes"/>
      <point x="71" y="-8"/>
      <point x="71" y="118" type="qcurve" smooth="yes"/>
      <point x="71" y="687" type="line" smooth="yes"/>
      <point x="71" y="811"/>
      <point x="277" y="811" type="qcurve" smooth="yes"/>
      <point x="485" y="811"/>
      <point x="485" y="687" type="qcurve" smooth="yes"/>
      <point x="485" y="629" type="line" smooth="yes"/>
      <point x="485" y="624"/>
      <point x="467" y="624" type="qcurve" smooth="yes"/>
      <point x="405" y="624" type="line" smooth="yes"/>
      <point x="387" y="624"/>
      <point x="387" y="629" type="qcurve" smooth="yes"/>
      <point x="387" y="689" type="line" smooth="yes"/>
      <point x="387" y="776"/>
      <point x="277" y="776" type="qcurve" smooth="yes"/>
      <point x="168" y="776"/>
      <point x="168" y="689" type="qcurve" smooth="yes"/>
      <point x="168" y="116" type="line" smooth="yes"/>
      <point x="168" y="27"/>
      <point x="277" y="27" type="qcurve" smooth="yes"/>
      <point x="387" y="27"/>
      <point x="387" y="116" type="qcurve" smooth="yes"/>
      <point x="387" y="442" type="line"/>
      <point x="303" y="442" type="line" smooth="yes"/>
      <point x="285" y="442"/>
      <point x="285" y="447" type="qcurve" smooth="yes"/>
      <point x="285" y="478" type="line" smooth="yes"/>
      <point x="285" y="483"/>
      <point x="303" y="483" type="qcurve" smooth="yes"/>
      <point x="467" y="483" type="line" smooth="yes"/>
      <point x="485" y="483"/>
      <point x="485" y="478" type="qcurve" smooth="yes"/>
    </contour>
  </outline>
</glyph>
<glyph name="H" format="1">
  <advance width="512"/>
  <unicode hex="0048"/>
  <outline>
    <contour>
      <point x="489" y="5" type="line" smooth="yes"/>
      <point x="489" y="0"/>
      <point x="470" y="0" type="qcurve" smooth="yes"/>
      <point x="412" y="0" type="line" smooth="yes"/>
      <point x="394" y="0"/>
      <point x="394" y="5" type="qcurve" smooth="yes"/>
      <point x="394" y="445" type="line"/>
      <point x="175" y="445" type="line"/>
      <point x="175" y="5" type="line" smooth="yes"/>
      <point x="175" y="0"/>
      <point x="157" y="0" type="qcurve" smooth="yes"/>
      <point x="95" y="0" type="line" smooth="yes"/>
      <point x="77" y="0"/>
      <point x="77" y="5" type="qcurve" smooth="yes"/>
      <point x="77" y="799" type="line" smooth="yes"/>
      <point x="77" y="804"/>
      <point x="95" y="804" type="qcurve" smooth="yes"/>
      <point x="157" y="804" type="line" smooth="yes"/>
      <point x="175" y="804"/>
      <point x="175" y="799" type="qcurve" smooth="yes"/>
      <point x="175" y="480" type="line"/>
      <point x="394" y="480" type="line"/>
      <point x="394" y="799" type="line" smooth="yes"/>
      <point x="394" y="804"/>
      <point x="412" y="804" type="qcurve" smooth="yes"/>
      <point x="470" y="804" type="line" smooth="yes"/>
      <point x="489" y="804"/>
      <point x="489" y="799" type="qcurve" smooth="yes"/>
    </contour>
  </outline>
</glyph>
<glyph name="I" format="1">
  <advance width="176"/>
  <unicode hex="0049"/>
  <outline>
    <contour>
      <point x="182" y="6" type="line" smooth="yes"/>
      <point x="182" y="1"/>
      <point x="166" y="1" type="qcurve" smooth="yes"/>
      <point x="46" y="1" type="line" smooth="yes"/>
      <point x="30" y="1"/>
      <point x="30" y="6" type="qcurve" smooth="yes"/>
      <point x="30" y="37" type="line" smooth="yes"/>
      <point x="30" y="41"/>
      <point x="46" y="41" type="qcurve" smooth="yes"/>
      <point x="63" y="41" type="line"/>
      <point x="63" y="761" type="line"/>
      <point x="46" y="761" type="line" smooth="yes"/>
      <point x="30" y="761"/>
      <point x="30" y="766" type="qcurve" smooth="yes"/>
      <point x="30" y="797" type="line" smooth="yes"/>
      <point x="30" y="802"/>
      <point x="46" y="802" type="qcurve" smooth="yes"/>
      <point x="166" y="802" type="line" smooth="yes"/>
      <point x="182" y="802"/>
      <point x="182" y="797" type="qcurve" smooth="yes"/>
      <point x="182" y="766" type="line" smooth="yes"/>
      <point x="182" y="761"/>
      <point x="166" y="761" type="qcurve" smooth="yes"/>
      <point x="147" y="761" type="line"/>
      <point x="147" y="41" type="line"/>
      <point x="166" y="41" type="line" smooth="yes"/>
      <point x="182" y="41"/>
      <point x="182" y="37" type="qcurve" smooth="yes"/>
    </contour>
  </outline>
</glyph>
<glyph name="J" format="1">
  <advance width="484"/>
  <unicode hex="004A"/>
  <outline>
    <contour>
      <point x="449" y="118" type="line" smooth="yes"/>
      <point x="449" y="-8"/>
      <point x="241" y="-8" type="qcurve" smooth="yes"/>
      <point x="31" y="-8"/>
      <point x="31" y="118" type="qcurve" smooth="yes"/>
      <point x="31" y="179" type="line" smooth="yes"/>
      <point x="31" y="184"/>
      <point x="49" y="184" type="qcurve" smooth="yes"/>
      <point x="113" y="184" type="line" smooth="yes"/>
      <point x="131" y="184"/>
      <point x="131" y="179" type="qcurve" smooth="yes"/>
      <point x="131" y="116" type="line" smooth="yes"/>
      <point x="131" y="62"/>
      <point x="160" y="42" type="qcurve" smooth="yes"/>
      <point x="182" y="27"/>
      <point x="241" y="27" type="qcurve" smooth="yes"/>
      <point x="350" y="27"/>
      <point x="350" y="116" type="qcurve" smooth="yes"/>
      <point x="350" y="799" type="line" smooth="yes"/>
      <point x="350" y="804"/>
      <point x="369" y="804" type="qcurve" smooth="yes"/>
      <point x="431" y="804" type="line" smooth="yes"/>
      <point x="449" y="804"/>
      <point x="449" y="799" type="qcurve" smooth="yes"/>
    </contour>
  </outline>
</glyph>
<glyph name="K" format="1">
  <advance width="538"/>
  <unicode hex="004B"/>
  <outline>
    <contour>
      <point x="492" y="5" type="line" smooth="yes"/>
      <point x="492" y="0"/>
      <point x="474" y="0" type="qcurve" smooth="yes"/>
      <point x="416" y="0" type="line" smooth="yes"/>
      <point x="397" y="0"/>
      <point x="397" y="5" type="qcurve" smooth="yes"/>
      <point x="397" y="364" type="line" smooth="yes"/>
      <point x="397" y="425"/>
      <point x="359" y="437" type="qcurve" smooth="yes"/>
      <point x="332" y="445"/>
      <point x="266" y="445" type="qcurve" smooth="yes"/>
      <point x="179" y="445" type="line"/>
      <point x="179" y="5" type="line" smooth="yes"/>
      <point x="179" y="0"/>
      <point x="160" y="0" type="qcurve" smooth="yes"/>
      <point x="98" y="0" type="line" smooth="yes"/>
      <point x="80" y="0"/>
      <point x="80" y="5" type="qcurve" smooth="yes"/>
      <point x="80" y="799" type="line" smooth="yes"/>
      <point x="80" y="804"/>
      <point x="98" y="804" type="qcurve" smooth="yes"/>
      <point x="160" y="804" type="line" smooth="yes"/>
      <point x="179" y="804"/>
      <point x="179" y="799" type="qcurve" smooth="yes"/>
      <point x="179" y="480" type="line"/>
      <point x="266" y="480" type="line" smooth="yes"/>
      <point x="347" y="480"/>
      <point x="379" y="499" type="qcurve" smooth="yes"/>
      <point x="397" y="510"/>
      <point x="397" y="563" type="qcurve" smooth="yes"/>
      <point x="397" y="799" type="line" smooth="yes"/>
      <point x="397" y="804"/>
      <point x="416" y="804" type="qcurve" smooth="yes"/>
      <point x="474" y="804" type="line" smooth="yes"/>
      <point x="492" y="804"/>
      <point x="492" y="799" type="qcurve" smooth="yes"/>
      <point x="492" y="559" type="line" smooth="yes"/>
      <point x="492" y="488"/>
      <point x="396" y="463" type="qcurve"/>
      <point x="492" y="438"/>
      <point x="492" y="366" type="qcurve" smooth="yes"/>
    </contour>
  </outline>
</glyph>
<glyph name="L" format="1">
  <advance width="448"/>
  <unicode hex="004C"/>
  <outline>
    <contour>
      <point x="485" y="5" type="line" smooth="yes"/>
      <point x="485" y="0"/>
      <point x="466" y="0" type="qcurve" smooth="yes"/>
      <point x="93" y="0" type="line" smooth="yes"/>
      <point x="75" y="0"/>
      <point x="75" y="5" type="qcurve" smooth="yes"/>
      <point x="75" y="799" type="line" smooth="yes"/>
      <point x="75" y="804"/>
      <point x="93" y="804" type="qcurve" smooth="yes"/>
      <point x="155" y="804" type="line" smooth="yes"/>
      <point x="173" y="804"/>
      <point x="173" y="799" type="qcurve" smooth="yes"/>
      <point x="173" y="36" type="line"/>
      <point x="466" y="36" type="line" smooth="yes"/>
      <point x="485" y="36"/>
      <point x="485" y="31" type="qcurve" smooth="yes"/>
    </contour>
  </outline>
</glyph>
<glyph name="M" format="1">
  <advance width="872"/>
  <unicode hex="004D"/>
  <outline>
    <contour>
      <point x="834" y="5" type="line" smooth="yes"/>
      <point x="834" y="0"/>
      <point x="815" y="0" type="qcurve" smooth="yes"/>
      <point x="752" y="0" type="line" smooth="yes"/>
      <point x="733" y="0"/>
      <point x="733" y="5" type="qcurve" smooth="yes"/>
      <point x="733" y="588" type="line"/>
      <point x="494" y="51" type="line"/>
      <point x="488" y="48"/>
      <point x="477" y="48" type="qcurve" smooth="yes"/>
      <point x="425" y="48" type="line" smooth="yes"/>
      <point x="414" y="48"/>
      <point x="408" y="51" type="qcurve"/>
      <point x="180" y="577" type="line"/>
      <point x="180" y="5" type="line" smooth="yes"/>
      <point x="180" y="0"/>
      <point x="161" y="0" type="qcurve" smooth="yes"/>
      <point x="97" y="0" type="line" smooth="yes"/>
      <point x="78" y="0"/>
      <point x="78" y="5" type="qcurve" smooth="yes"/>
      <point x="78" y="799" type="line" smooth="yes"/>
      <point x="78" y="804"/>
      <point x="97" y="804" type="qcurve" smooth="yes"/>
      <point x="163" y="804" type="line" smooth="yes"/>
      <point x="174" y="804"/>
      <point x="180" y="801" type="qcurve"/>
      <point x="450" y="169" type="line"/>
      <point x="731" y="801" type="line"/>
      <point x="737" y="804"/>
      <point x="748" y="804" type="qcurve" smooth="yes"/>
      <point x="815" y="804" type="line" smooth="yes"/>
      <point x="834" y="804"/>
      <point x="834" y="799" type="qcurve" smooth="yes"/>
    </contour>
  </outline>
</glyph>
<glyph name="O" format="1">
  <advance width="520"/>
  <unicode hex="004F"/>
  <outline>
    <contour>
      <point x="485" y="118" type="line" smooth="yes"/>
      <point x="485" y="-8"/>
      <point x="277" y="-8" type="qcurve" smooth="yes"/>
      <point x="71" y="-8"/>
      <point x="71" y="118" type="qcurve" smooth="yes"/>
      <point x="71" y="687" type="line" smooth="yes"/>
      <point x="71" y="811"/>
      <point x="277" y="811" type="qcurve" smooth="yes"/>
      <point x="485" y="811"/>
      <point x="485" y="687" type="qcurve" smooth="yes"/>
    </contour>
    <contour>
      <point x="387" y="116" type="qcurve" smooth="yes"/>
      <point x="387" y="689" type="line" smooth="yes"/>
      <point x="387" y="776"/>
      <point x="277" y="776" type="qcurve" smooth="yes"/>
      <point x="168" y="776"/>
      <point x="168" y="689" type="qcurve" smooth="yes"/>
      <point x="168" y="116" type="line" smooth="yes"/>
      <point x="168" y="27"/>
      <point x="277" y="27" type="qcurve" smooth="yes"/>
      <point x="387" y="27"/>
    </contour>
  </outline>
</glyph>
<glyph name="P" format="1">
  <advance width="510"/>
  <unicode hex="0050"/>
  <outline>
    <contour>
      <point x="500" y="560" type="line" smooth="yes"/>
      <point x="500" y="446"/>
      <point x="290" y="446" type="qcurve" smooth="yes"/>
      <point x="186" y="446" type="line"/>
      <point x="186" y="5" type="line" smooth="yes"/>
      <point x="186" y="0"/>
      <point x="168" y="0" type="qcurve" smooth="yes"/>
      <point x="106" y="0" type="line" smooth="yes"/>
      <point x="88" y="0"/>
      <point x="88" y="5" type="qcurve" smooth="yes"/>
      <point x="88" y="799" type="line" smooth="yes"/>
      <point x="88" y="804"/>
      <point x="106" y="804" type="qcurve" smooth="yes"/>
      <point x="290" y="804" type="line" smooth="yes"/>
      <point x="387" y="804"/>
      <point x="432" y="787" type="qcurve"/>
      <point x="500" y="758"/>
      <point x="500" y="676" type="qcurve" smooth="yes"/>
    </contour>
    <contour>
      <point x="405" y="564" type="qcurve" smooth="yes"/>
      <point x="405" y="686" type="line" smooth="yes"/>
      <point x="405" y="747"/>
      <point x="366" y="759" type="qcurve" smooth="yes"/>
      <point x="345" y="766"/>
      <point x="273" y="766" type="qcurve" smooth="yes"/>
      <point x="186" y="766" type="line"/>
      <point x="186" y="483" type="line"/>
      <point x="273" y="483" type="line" smooth="yes"/>
      <point x="355" y="483"/>
      <point x="387" y="500" type="qcurve"/>
      <point x="386" y="500" type="line"/>
      <point x="405" y="513"/>
    </contour>
  </outline>
</glyph>
<glyph name="Q" format="1">
  <advance width="520"/>
  <unicode hex="0051"/>
  <outline>
    <contour>
      <point x="485" y="118" type="line" smooth="yes"/>
      <point x="485" y="11"/>
      <point x="337" y="-4" type="qcurve"/>
      <point x="337" y="-55" type="line" smooth="yes"/>
      <point x="337" y="-143"/>
      <point x="447" y="-143" type="qcurve" smooth="yes"/>
      <point x="465" y="-143"/>
      <point x="465" y="-148" type="qcurve" smooth="yes"/>
      <point x="465" y="-173" type="line" smooth="yes"/>
      <point x="465" y="-178"/>
      <point x="447" y="-178" type="qcurve" smooth="yes"/>
      <point x="239" y="-178"/>
      <point x="239" y="-53" type="qcurve" smooth="yes"/>
      <point x="239" y="-7" type="line"/>
      <point x="71" y="5"/>
      <point x="71" y="118" type="qcurve" smooth="yes"/>
      <point x="71" y="688" type="line" smooth="yes"/>
      <point x="71" y="813"/>
      <point x="277" y="813" type="qcurve" smooth="yes"/>
      <point x="485" y="813"/>
      <point x="485" y="688" type="qcurve" smooth="yes"/>
    </contour>
    <contour>
      <point x="387" y="116" type="qcurve" smooth="yes"/>
      <point x="387" y="690" type="line" smooth="yes"/>
      <point x="387" y="777"/>
      <point x="277" y="777" type="qcurve" smooth="yes"/>
      <point x="168" y="777"/>
      <point x="168" y="690" type="qcurve" smooth="yes"/>
      <point x="168" y="489" type="line"/>
      <point x="337" y="477"/>
      <point x="337" y="365" type="qcurve" smooth="yes"/>
      <point x="337" y="34" type="line"/>
      <point x="387" y="49"/>
    </contour>
    <contour>
      <point x="239" y="31" type="qcurve"/>
      <point x="239" y="367" type="line" smooth="yes"/>
      <point x="239" y="441"/>
      <point x="168" y="452" type="qcurve"/>
      <point x="168" y="116" type="line" smooth="yes"/>
      <point x="168" y="43"/>
    </contour>
  </outline>
</glyph>
<glyph name="R" format="1">
  <advance width="543"/>
  <unicode hex="0052"/>
  <outline>
    <contour>
      <point x="492" y="5" type="line" smooth="yes"/>
      <point x="492" y="0"/>
      <point x="474" y="0" type="qcurve" smooth="yes"/>
      <point x="416" y="0" type="line" smooth="yes"/>
      <point x="397" y="0"/>
      <point x="397" y="5" type="qcurve" smooth="yes"/>
      <point x="397" y="353" type="line" smooth="yes"/>
      <point x="397" y="401"/>
      <point x="376" y="415" type="qcurve" smooth="yes"/>
      <point x="342" y="436"/>
      <point x="266" y="436" type="qcurve" smooth="yes"/>
      <point x="179" y="436" type="line"/>
      <point x="179" y="5" type="line" smooth="yes"/>
      <point x="179" y="0"/>
      <point x="160" y="0" type="qcurve" smooth="yes"/>
      <point x="98" y="0" type="line" smooth="yes"/>
      <point x="80" y="0"/>
      <point x="80" y="5" type="qcurve" smooth="yes"/>
      <point x="80" y="799" type="line" smooth="yes"/>
      <point x="80" y="804"/>
      <point x="98" y="804" type="qcurve" smooth="yes"/>
      <point x="283" y="804" type="line" smooth="yes"/>
      <point x="382" y="804"/>
      <point x="425" y="787" type="qcurve" smooth="yes"/>
      <point x="492" y="759"/>
      <point x="492" y="676" type="qcurve" smooth="yes"/>
      <point x="492" y="555" type="line" smooth="yes"/>
      <point x="492" y="482"/>
      <point x="396" y="458" type="qcurve"/>
      <point x="492" y="432"/>
      <point x="492" y="357" type="qcurve" smooth="yes"/>
    </contour>
    <contour>
      <point x="397" y="558" type="qcurve" smooth="yes"/>
      <point x="397" y="686" type="line" smooth="yes"/>
      <point x="397" y="747"/>
      <point x="359" y="759" type="qcurve" smooth="yes"/>
      <point x="338" y="766"/>
      <point x="266" y="766" type="qcurve" smooth="yes"/>
      <point x="179" y="766" type="line"/>
      <point x="179" y="476" type="line"/>
      <point x="266" y="476" type="line" smooth="yes"/>
      <point x="347" y="476"/>
      <point x="379" y="495" type="qcurve" smooth="yes"/>
      <point x="397" y="506"/>
    </contour>
  </outline>
</glyph>
<glyph name="S" format="1">
  <advance width="487"/>
  <unicode hex="0053"/>
  <outline>
    <contour>
      <point x="467" y="118" type="line" smooth="yes"/>
      <point x="467" y="-8"/>
      <point x="263" y="-8" type="qcurve" smooth="yes"/>
      <point x="53" y="-8"/>
      <point x="53" y="118" type="qcurve" smooth="yes"/>
      <point x="53" y="174" type="line" smooth="yes"/>
      <point x="53" y="179"/>
      <point x="71" y="179" type="qcurve" smooth="yes"/>
      <point x="135" y="179" type="line" smooth="yes"/>
      <point x="153" y="179"/>
      <point x="153" y="174" type="qcurve" smooth="yes"/>
      <point x="153" y="116" type="line" smooth="yes"/>
      <point x="153" y="29"/>
      <point x="263" y="29" type="qcurve" smooth="yes"/>
      <point x="372" y="29"/>
      <point x="372" y="116" type="qcurve" smooth="yes"/>
      <point x="372" y="371" type="line" smooth="yes"/>
      <point x="372" y="441"/>
      <point x="263" y="441" type="qcurve" smooth="yes"/>
      <point x="53" y="441"/>
      <point x="53" y="567" type="qcurve" smooth="yes"/>
      <point x="53" y="687" type="line" smooth="yes"/>
      <point x="53" y="811"/>
      <point x="263" y="811" type="qcurve" smooth="yes"/>
      <point x="467" y="811"/>
      <point x="467" y="687" type="qcurve" smooth="yes"/>
      <point x="467" y="624" type="line" smooth="yes"/>
      <point x="467" y="619"/>
      <point x="449" y="619" type="qcurve" smooth="yes"/>
      <point x="390" y="619" type="line" smooth="yes"/>
      <point x="372" y="619"/>
      <point x="372" y="624" type="qcurve" smooth="yes"/>
      <point x="372" y="689" type="line" smooth="yes"/>
      <point x="372" y="777"/>
      <point x="263" y="777" type="qcurve" smooth="yes"/>
      <point x="153" y="777"/>
      <point x="153" y="689" type="qcurve" smooth="yes"/>
      <point x="153" y="564" type="line" smooth="yes"/>
      <point x="153" y="475"/>
      <point x="263" y="475" type="qcurve" smooth="yes"/>
      <point x="445" y="475"/>
      <point x="464" y="384" type="qcurve"/>
      <point x="467" y="384"/>
      <point x="467" y="382" type="qcurve" smooth="yes"/>
    </contour>
  </outline>
</glyph>
<glyph name="T" format="1">
  <advance width="508"/>
  <unicode hex="0054"/>
  <outline>
    <contour>
      <point x="529" y="771" type="line" smooth="yes"/>
      <point x="529" y="766"/>
      <point x="510" y="766" type="qcurve" smooth="yes"/>
      <point x="326" y="766" type="line"/>
      <point x="326" y="5" type="line" smooth="yes"/>
      <point x="326" y="0"/>
      <point x="308" y="0" type="qcurve" smooth="yes"/>
      <point x="245" y="0" type="line" smooth="yes"/>
      <point x="226" y="0"/>
      <point x="226" y="5" type="qcurve" smooth="yes"/>
      <point x="226" y="766" type="line"/>
      <point x="35" y="766" type="line" smooth="yes"/>
      <point x="17" y="766"/>
      <point x="17" y="771" type="qcurve" smooth="yes"/>
      <point x="17" y="799" type="line" smooth="yes"/>
      <point x="17" y="804"/>
      <point x="35" y="804" type="qcurve" smooth="yes"/>
      <point x="510" y="804" type="line" smooth="yes"/>
      <point x="529" y="804"/>
      <point x="529" y="799" type="qcurve" smooth="yes"/>
    </contour>
  </outline>
</glyph>
<glyph name="U" format="1">
  <advance width="520"/>
  <unicode hex="0055"/>
  <outline>
    <contour>
      <point x="485" y="118" type="line" smooth="yes"/>
      <point x="485" y="-8"/>
      <point x="277" y="-8" type="qcurve" smooth="yes"/>
      <point x="71" y="-8"/>
      <point x="71" y="118" type="qcurve" smooth="yes"/>
      <point x="71" y="799" type="line" smooth="yes"/>
      <point x="71" y="804"/>
      <point x="89" y="804" type="qcurve" smooth="yes"/>
      <point x="150" y="804" type="line" smooth="yes"/>
      <point x="168" y="804"/>
      <point x="168" y="799" type="qcurve" smooth="yes"/>
      <point x="168" y="116" type="line" smooth="yes"/>
      <point x="168" y="27"/>
      <point x="277" y="27" type="qcurve" smooth="yes"/>
      <point x="387" y="27"/>
      <point x="387" y="116" type="qcurve" smooth="yes"/>
      <point x="387" y="799" type="line" smooth="yes"/>
      <point x="387" y="804"/>
      <point x="405" y="804" type="qcurve" smooth="yes"/>
      <point x="467" y="804" type="line" smooth="yes"/>
      <point x="485" y="804"/>
      <point x="485" y="799" type="qcurve" smooth="yes"/>
    </contour>
  </outline>
</glyph>
<glyph name="V" format="1">
  <advance width="520"/>
  <unicode hex="0056"/>
  <outline>
    <contour>
      <point x="538" y="798" type="qcurve"/>
      <point x="322" y="4" type="line"/>
      <point x="318" y="0"/>
      <point x="305" y="0" type="qcurve" smooth="yes"/>
      <point x="253" y="0" type="line" smooth="yes"/>
      <point x="239" y="0"/>
      <point x="235" y="4" type="qcurve"/>
      <point x="19" y="798" type="line"/>
      <point x="13" y="804"/>
      <point x="37" y="804" type="qcurve" smooth="yes"/>
      <point x="100" y="804" type="line" smooth="yes"/>
      <point x="114" y="804"/>
      <point x="118" y="800" type="qcurve"/>
      <point x="279" y="200" type="line"/>
      <point x="439" y="800" type="line"/>
      <point x="443" y="804"/>
      <point x="457" y="804" type="qcurve" smooth="yes"/>
      <point x="520" y="804" type="line" smooth="yes"/>
      <point x="544" y="804"/>
    </contour>
  </outline>
</glyph>
<glyph name="W" format="1">
  <advance width="872"/>
  <unicode hex="0057"/>
  <outline>
    <contour>
      <point x="836" y="118" type="line" smooth="yes"/>
      <point x="836" y="-8"/>
      <point x="629" y="-8" type="qcurve" smooth="yes"/>
      <point x="619" y="-8" type="line" smooth="yes"/>
      <point x="484" y="-8"/>
      <point x="451" y="67" type="qcurve"/>
      <point x="450" y="65"/>
      <point x="445" y="56" type="qcurve"/>
      <point x="400" y="-8"/>
      <point x="289" y="-8" type="qcurve" smooth="yes"/>
      <point x="284" y="-8" type="line" smooth="yes"/>
      <point x="74" y="-8"/>
      <point x="74" y="118" type="qcurve" smooth="yes"/>
      <point x="74" y="799" type="line" smooth="yes"/>
      <point x="74" y="804"/>
      <point x="93" y="804" type="qcurve" smooth="yes"/>
      <point x="156" y="804" type="line" smooth="yes"/>
      <point x="175" y="804"/>
      <point x="175" y="799" type="qcurve" smooth="yes"/>
      <point x="175" y="116" type="line" smooth="yes"/>
      <point x="175" y="27"/>
      <point x="289" y="27" type="qcurve" smooth="yes"/>
      <point x="344" y="27"/>
      <point x="382" y="107" type="qcurve" smooth="yes"/>
      <point x="403" y="152"/>
      <point x="403" y="223" type="qcurve" smooth="yes"/>
      <point x="403" y="799" type="line" smooth="yes"/>
      <point x="403" y="804"/>
      <point x="422" y="804" type="qcurve" smooth="yes"/>
      <point x="486" y="804" type="line" smooth="yes"/>
      <point x="505" y="804"/>
      <point x="505" y="799" type="qcurve" smooth="yes"/>
      <point x="505" y="223" type="line" smooth="yes"/>
      <point x="505" y="151"/>
      <point x="524" y="107" type="qcurve" smooth="yes"/>
      <point x="559" y="27"/>
      <point x="619" y="27" type="qcurve" smooth="yes"/>
      <point x="733" y="27"/>
      <point x="733" y="116" type="qcurve" smooth="yes"/>
      <point x="733" y="799" type="line" smooth="yes"/>
      <point x="733" y="804"/>
      <point x="752" y="804" type="qcurve" smooth="yes"/>
      <point x="817" y="804" type="line" smooth="yes"/>
      <point x="836" y="804"/>
      <point x="836" y="799" type="qcurve" smooth="yes"/>
    </contour>
  </outline>
</glyph>
<glyph name="X" format="1">
  <advance width="520"/>
  <unicode hex="0058"/>
  <outline>
    <contour>
      <point x="520" y="0" type="qcurve" smooth="yes"/>
      <point x="449" y="0" type="line" smooth="yes"/>
      <point x="439" y="0"/>
      <point x="433" y="3" type="qcurve"/>
      <point x="277" y="314" type="line"/>
      <point x="117" y="3" type="line"/>
      <point x="111" y="0"/>
      <point x="100" y="0" type="qcurve" smooth="yes"/>
      <point x="37" y="0" type="line" smooth="yes"/>
      <point x="18" y="0"/>
      <point x="18" y="4" type="qcurve" smooth="yes"/>
      <point x="18" y="5"/>
      <point x="20" y="7" type="qcurve" smooth="yes"/>
      <point x="227" y="412" type="line"/>
      <point x="21" y="797" type="line"/>
      <point x="18" y="798"/>
      <point x="18" y="800" type="qcurve" smooth="yes"/>
      <point x="18" y="804"/>
      <point x="37" y="804" type="qcurve" smooth="yes"/>
      <point x="106" y="804" type="line" smooth="yes"/>
      <point x="117" y="804"/>
      <point x="123" y="801" type="qcurve"/>
      <point x="279" y="493" type="line"/>
      <point x="441" y="801" type="line"/>
      <point x="447" y="804"/>
      <point x="457" y="804" type="qcurve" smooth="yes"/>
      <point x="520" y="804" type="line" smooth="yes"/>
      <point x="538" y="804"/>
      <point x="538" y="800" type="qcurve" smooth="yes"/>
      <point x="538" y="799"/>
      <point x="536" y="797" type="qcurve" smooth="yes"/>
      <point x="327" y="404" type="line"/>
      <point x="536" y="7" type="line" smooth="yes"/>
      <point x="538" y="5"/>
      <point x="538" y="4" type="qcurve" smooth="yes"/>
      <point x="538" y="0"/>
    </contour>
  </outline>
</glyph>
<glyph name="Y" format="1">
  <advance width="496"/>
  <unicode hex="0059"/>
  <outline>
    <contour>
      <point x="529" y="799" type="qcurve" smooth="yes"/>
      <point x="529" y="798"/>
      <point x="526" y="796" type="qcurve"/>
      <point x="318" y="412" type="line"/>
      <point x="318" y="5" type="line" smooth="yes"/>
      <point x="318" y="0"/>
      <point x="299" y="0" type="qcurve" smooth="yes"/>
      <point x="236" y="0" type="line" smooth="yes"/>
      <point x="217" y="0"/>
      <point x="217" y="5" type="qcurve" smooth="yes"/>
      <point x="217" y="414" type="line"/>
      <point x="220" y="412" type="line"/>
      <point x="12" y="797" type="line"/>
      <point x="9" y="798"/>
      <point x="9" y="800" type="qcurve" smooth="yes"/>
      <point x="9" y="804"/>
      <point x="28" y="804" type="qcurve" smooth="yes"/>
      <point x="97" y="804" type="line" smooth="yes"/>
      <point x="107" y="804"/>
      <point x="113" y="801" type="qcurve"/>
      <point x="270" y="493" type="line"/>
      <point x="432" y="801" type="line"/>
      <point x="438" y="804"/>
      <point x="448" y="804" type="qcurve" smooth="yes"/>
      <point x="511" y="804" type="line" smooth="yes"/>
      <point x="529" y="804"/>
    </contour>
  </outline>
</glyph>
<glyph name="Z" format="1">
  <advance width="481"/>
  <unicode hex="005A"/>
  <outline>
    <contour>
      <point x="483" y="797" type="qcurve"/>
      <point x="150" y="36" type="line"/>
      <point x="461" y="36" type="line" smooth="yes"/>
      <point x="479" y="36"/>
      <point x="479" y="31" type="qcurve" smooth="yes"/>
      <point x="479" y="5" type="line" smooth="yes"/>
      <point x="479" y="0"/>
      <point x="461" y="0" type="qcurve" smooth="yes"/>
      <point x="53" y="0" type="line" smooth="yes"/>
      <point x="34" y="0"/>
      <point x="34" y="4" type="qcurve"/>
      <point x="37" y="7" type="line"/>
      <point x="371" y="766" type="line"/>
      <point x="61" y="766" type="line" smooth="yes"/>
      <point x="42" y="766"/>
      <point x="42" y="771" type="qcurve" smooth="yes"/>
      <point x="42" y="799" type="line" smooth="yes"/>
      <point x="42" y="804"/>
      <point x="61" y="804" type="qcurve" smooth="yes"/>
      <point x="467" y="804" type="line" smooth="yes"/>
      <point x="485" y="804"/>
      <point x="485" y="800" type="qcurve" smooth="yes"/>
      <point x="485" y="799"/>
    </contour>
  </outline>
</glyph>
<glyph name="bracketleft" format="1">
  <advance width="250"/>
  <unicode hex="005B"/>
  <outline>
    <contour>
      <point x="266" y="-217" type="line" smooth="yes"/>
      <point x="266" y="-222"/>
      <point x="250" y="-222" type="qcurve" smooth="yes"/>
      <point x="85" y="-222" type="line" smooth="yes"/>
      <point x="68" y="-222"/>
      <point x="68" y="-217" type="qcurve" smooth="yes"/>
      <point x="68" y="854" type="line" smooth="yes"/>
      <point x="68" y="859"/>
      <point x="85" y="859" type="qcurve" smooth="yes"/>
      <point x="250" y="859" type="line" smooth="yes"/>
      <point x="266" y="859"/>
      <point x="266" y="854" type="qcurve" smooth="yes"/>
      <point x="266" y="828" type="line" smooth="yes"/>
      <point x="266" y="823"/>
      <point x="250" y="823" type="qcurve" smooth="yes"/>
      <point x="158" y="823" type="line"/>
      <point x="158" y="-187" type="line"/>
      <point x="250" y="-187" type="line" smooth="yes"/>
      <point x="266" y="-187"/>
      <point x="266" y="-192" type="qcurve" smooth="yes"/>
    </contour>
  </outline>
</glyph>
<glyph name="backslash" format="1">
  <advance width="543"/>
  <unicode hex="005C"/>
  <outline>
    <contour>
      <point x="555" y="0" type="qcurve" smooth="yes"/>
      <point x="493" y="0" type="line" smooth="yes"/>
      <point x="485" y="0"/>
      <point x="477" y="2" type="qcurve"/>
      <point x="14" y="803" type="line"/>
      <point x="11" y="804"/>
      <point x="11" y="806" type="qcurve" smooth="yes"/>
      <point x="11" y="811"/>
      <point x="30" y="811" type="qcurve" smooth="yes"/>
      <point x="91" y="811" type="line" smooth="yes"/>
      <point x="101" y="811"/>
      <point x="107" y="809" type="qcurve"/>
      <point x="570" y="8" type="line"/>
      <point x="574" y="7"/>
      <point x="574" y="5" type="qcurve" smooth="yes"/>
      <point x="574" y="0"/>
    </contour>
  </outline>
</glyph>
<glyph name="bracketright" format="1">
  <advance width="250"/>
  <unicode hex="005D"/>
  <outline>
    <contour>
      <point x="266" y="-217" type="line" smooth="yes"/>
      <point x="266" y="-222"/>
      <point x="250" y="-222" type="qcurve" smooth="yes"/>
      <point x="85" y="-222" type="line" smooth="yes"/>
      <point x="68" y="-222"/>
      <point x="68" y="-217" type="qcurve" smooth="yes"/>
      <point x="68" y="-192" type="line" smooth="yes"/>
      <point x="68" y="-187"/>
      <point x="85" y="-187" type="qcurve" smooth="yes"/>
      <point x="176" y="-187" type="line"/>
      <point x="176" y="823" type="line"/>
      <point x="85" y="823" type="line" smooth="yes"/>
      <point x="68" y="823"/>
      <point x="68" y="828" type="qcurve" smooth="yes"/>
      <point x="68" y="854" type="line" smooth="yes"/>
      <point x="68" y="859"/>
      <point x="85" y="859" type="qcurve" smooth="yes"/>
      <point x="250" y="859" type="line" smooth="yes"/>
      <point x="266" y="859"/>
      <point x="266" y="854" type="qcurve" smooth="yes"/>
    </contour>
  </outline>
</glyph>
<glyph name="asciicircum" format="1">
  <advance width="560"/>
  <unicode hex="005E"/>
  <outline>
    <contour>
      <point x="404" y="522" type="line" smooth="yes"/>
      <point x="405" y="521"/>
      <point x="405" y="520" type="qcurve" smooth="yes"/>
      <point x="405" y="516"/>
      <point x="388" y="516" type="qcurve" smooth="yes"/>
      <point x="332" y="516" type="line" smooth="yes"/>
      <point x="320" y="516"/>
      <point x="316" y="520" type="qcurve"/>
      <point x="297" y="590" type="line"/>
      <point x="278" y="520" type="line"/>
      <point x="274" y="516"/>
      <point x="262" y="516" type="qcurve" smooth="yes"/>
      <point x="206" y="516" type="line" smooth="yes"/>
      <point x="189" y="516"/>
      <point x="189" y="520" type="qcurve" smooth="yes"/>
      <point x="189" y="521"/>
      <point x="190" y="522" type="qcurve" smooth="yes"/>
      <point x="257" y="770" type="line"/>
      <point x="261" y="774"/>
      <point x="273" y="774" type="qcurve" smooth="yes"/>
      <point x="321" y="774" type="line" smooth="yes"/>
      <point x="333" y="774"/>
      <point x="337" y="770" type="qcurve"/>
    </contour>
  </outline>
</glyph>
<glyph name="underscore" format="1">
  <advance width="1078"/>
  <unicode hex="005F"/>
  <outline>
    <contour>
      <point x="1118" y="-73" type="line" smooth="yes"/>
      <point x="1118" y="-77"/>
      <point x="1099" y="-77" type="qcurve" smooth="yes"/>
      <point x="17" y="-77" type="line" smooth="yes"/>
      <point x="-2" y="-77"/>
      <point x="-2" y="-73" type="qcurve" smooth="yes"/>
      <point x="-2" y="-48" type="line" smooth="yes"/>
      <point x="-2" y="-44"/>
      <point x="17" y="-44" type="qcurve" smooth="yes"/>
      <point x="1099" y="-44" type="line" smooth="yes"/>
      <point x="1118" y="-44"/>
      <point x="1118" y="-48" type="qcurve" smooth="yes"/>
    </contour>
  </outline>
</glyph>
<glyph name="grave" format="1">
  <advance width="249"/>
  <unicode hex="0060"/>
  <outline>
    <contour>
      <point x="236" y="625" type="qcurve" smooth="yes"/>
      <point x="234" y="622"/>
      <point x="223" y="621" type="qcurve"/>
      <point x="165" y="604" type="line"/>
      <point x="157" y="604" type="line" smooth="yes"/>
      <point x="151" y="604"/>
      <point x="149" y="605" type="qcurve" smooth="yes"/>
      <point x="46" y="721" type="line"/>
      <point x="42" y="722"/>
      <point x="40" y="724"/>
      <point x="41" y="726" type="qcurve"/>
      <point x="44" y="728"/>
      <point x="54" y="730" type="qcurve" smooth="yes"/>
      <point x="110" y="746" type="line"/>
      <point x="118" y="746" type="line" smooth="yes"/>
      <point x="125" y="746"/>
      <point x="126" y="745" type="qcurve" smooth="yes"/>
      <point x="230" y="630" type="line"/>
      <point x="234" y="629"/>
      <point x="237" y="627"/>
    </contour>
  </outline>
</glyph>
<glyph name="a" format="1">
  <advance width="520"/>
  <unicode hex="0061"/>
  <outline>
    <contour>
      <point x="485" y="117" type="line" smooth="yes"/>
      <point x="485" y="99"/>
      <point x="481" y="84" type="qcurve"/>
      <point x="481" y="1" type="line" smooth="yes"/>
      <point x="481" y="-4"/>
      <point x="463" y="-4" type="qcurve" smooth="yes"/>
      <point x="403" y="-4" type="line" smooth="yes"/>
      <point x="385" y="-4"/>
      <point x="385" y="1" type="qcurve" smooth="yes"/>
      <point x="385" y="3" type="line"/>
      <point x="339" y="-8"/>
      <point x="277" y="-8" type="qcurve" smooth="yes"/>
      <point x="71" y="-8"/>
      <point x="71" y="117" type="qcurve" smooth="yes"/>
      <point x="71" y="237" type="line" smooth="yes"/>
      <point x="71" y="361"/>
      <point x="277" y="361" type="qcurve" smooth="yes"/>
      <point x="338" y="361"/>
      <point x="387" y="350" type="qcurve"/>
      <point x="387" y="448" type="line" smooth="yes"/>
      <point x="387" y="536"/>
      <point x="277" y="536" type="qcurve" smooth="yes"/>
      <point x="168" y="536"/>
      <point x="168" y="448" type="qcurve" smooth="yes"/>
      <point x="168" y="418" type="line" smooth="yes"/>
      <point x="168" y="413"/>
      <point x="150" y="413" type="qcurve" smooth="yes"/>
      <point x="89" y="413" type="line" smooth="yes"/>
      <point x="71" y="413"/>
      <point x="71" y="418" type="qcurve" smooth="yes"/>
      <point x="71" y="446" type="line" smooth="yes"/>
      <point x="71" y="571"/>
      <point x="277" y="571" type="qcurve" smooth="yes"/>
      <point x="485" y="571"/>
      <point x="485" y="446" type="qcurve" smooth="yes"/>
    </contour>
    <contour>
      <point x="386" y="89" type="qcurve"/>
      <point x="385" y="88" type="line"/>
      <point x="385" y="265" type="line"/>
      <point x="373" y="325"/>
      <point x="277" y="325" type="qcurve" smooth="yes"/>
      <point x="168" y="325"/>
      <point x="168" y="240" type="qcurve" smooth="yes"/>
      <point x="168" y="115" type="line" smooth="yes"/>
      <point x="168" y="57"/>
      <point x="197" y="40" type="qcurve"/>
      <point x="197" y="41" type="line"/>
      <point x="225" y="27"/>
      <point x="277" y="27" type="qcurve" smooth="yes"/>
      <point x="371" y="27"/>
    </contour>
  </outline>
</glyph>
<glyph name="b" format="1">
  <advance width="502"/>
  <unicode hex="0062"/>
  <outline>
    <contour>
      <point x="485" y="118" type="line" smooth="yes"/>
      <point x="485" y="-8"/>
      <point x="277" y="-8" type="qcurve" smooth="yes"/>
      <point x="210" y="-8"/>
      <point x="168" y="4" type="qcurve"/>
      <point x="168" y="1" type="line" smooth="yes"/>
      <point x="168" y="-4"/>
      <point x="150" y="-4" type="qcurve" smooth="yes"/>
      <point x="89" y="-4" type="line" smooth="yes"/>
      <point x="71" y="-4"/>
      <point x="71" y="1" type="qcurve" smooth="yes"/>
      <point x="71" y="789" type="line" smooth="yes"/>
      <point x="71" y="794"/>
      <point x="89" y="794" type="qcurve" smooth="yes"/>
      <point x="150" y="794" type="line" smooth="yes"/>
      <point x="168" y="794"/>
      <point x="168" y="789" type="qcurve" smooth="yes"/>
      <point x="168" y="563" type="line"/>
      <point x="212" y="574"/>
      <point x="277" y="574" type="qcurve" smooth="yes"/>
      <point x="485" y="574"/>
      <point x="485" y="448" type="qcurve" smooth="yes"/>
    </contour>
    <contour>
      <point x="387" y="116" type="qcurve" smooth="yes"/>
      <point x="387" y="450" type="line" smooth="yes"/>
      <point x="387" y="538"/>
      <point x="277" y="538" type="qcurve" smooth="yes"/>
      <point x="168" y="538"/>
      <point x="168" y="450" type="qcurve" smooth="yes"/>
      <point x="168" y="116" type="line" smooth="yes"/>
      <point x="168" y="27"/>
      <point x="277" y="27" type="qcurve" smooth="yes"/>
      <point x="387" y="27"/>
    </contour>
  </outline>
</glyph>
<glyph name="c" format="1">
  <advance width="496"/>
  <unicode hex="0063"/>
  <outline>
    <contour>
      <point x="485" y="117" type="line" smooth="yes"/>
      <point x="485" y="-8"/>
      <point x="277" y="-8" type="qcurve" smooth="yes"/>
      <point x="71" y="-8"/>
      <point x="71" y="117" type="qcurve" smooth="yes"/>
      <point x="71" y="446" type="line" smooth="yes"/>
      <point x="71" y="571"/>
      <point x="277" y="571" type="qcurve" smooth="yes"/>
      <point x="485" y="571"/>
      <point x="485" y="446" type="qcurve" smooth="yes"/>
      <point x="485" y="390" type="line" smooth="yes"/>
      <point x="485" y="385"/>
      <point x="467" y="385" type="qcurve" smooth="yes"/>
      <point x="405" y="385" type="line" smooth="yes"/>
      <point x="387" y="385"/>
      <point x="387" y="390" type="qcurve" smooth="yes"/>
      <point x="387" y="448" type="line" smooth="yes"/>
      <point x="387" y="536"/>
      <point x="277" y="536" type="qcurve" smooth="yes"/>
      <point x="168" y="536"/>
      <point x="168" y="448" type="qcurve" smooth="yes"/>
      <point x="168" y="115" type="line" smooth="yes"/>
      <point x="168" y="27"/>
      <point x="277" y="27" type="qcurve" smooth="yes"/>
      <point x="387" y="27"/>
      <point x="387" y="115" type="qcurve" smooth="yes"/>
      <point x="387" y="178" type="line" smooth="yes"/>
      <point x="387" y="183"/>
      <point x="405" y="183" type="qcurve" smooth="yes"/>
      <point x="467" y="183" type="line" smooth="yes"/>
      <point x="485" y="183"/>
      <point x="485" y="178" type="qcurve" smooth="yes"/>
    </contour>
  </outline>
</glyph>
<glyph name="d" format="1">
  <advance width="520"/>
  <unicode hex="0064"/>
  <outline>
    <contour>
      <point x="485" y="1" type="line" smooth="yes"/>
      <point x="485" y="-4"/>
      <point x="467" y="-4" type="qcurve" smooth="yes"/>
      <point x="409" y="-4" type="line" smooth="yes"/>
      <point x="390" y="-4"/>
      <point x="390" y="1" type="qcurve" smooth="yes"/>
      <point x="390" y="4" type="line"/>
      <point x="346" y="-8"/>
      <point x="281" y="-8" type="qcurve" smooth="yes"/>
      <point x="71" y="-8"/>
      <point x="71" y="118" type="qcurve" smooth="yes"/>
      <point x="71" y="448" type="line" smooth="yes"/>
      <point x="71" y="574"/>
      <point x="281" y="574" type="qcurve" smooth="yes"/>
      <point x="344" y="574"/>
      <point x="390" y="563" type="qcurve"/>
      <point x="390" y="789" type="line" smooth="yes"/>
      <point x="390" y="794"/>
      <point x="409" y="794" type="qcurve" smooth="yes"/>
      <point x="467" y="794" type="line" smooth="yes"/>
      <point x="485" y="794"/>
      <point x="485" y="789" type="qcurve" smooth="yes"/>
    </contour>
    <contour>
      <point x="387" y="116" type="qcurve" smooth="yes"/>
      <point x="387" y="450" type="line" smooth="yes"/>
      <point x="387" y="538"/>
      <point x="281" y="538" type="qcurve" smooth="yes"/>
      <point x="168" y="538"/>
      <point x="168" y="450" type="qcurve" smooth="yes"/>
      <point x="168" y="116" type="line" smooth="yes"/>
      <point x="168" y="27"/>
      <point x="281" y="27" type="qcurve" smooth="yes"/>
      <point x="387" y="27"/>
    </contour>
  </outline>
</glyph>
<glyph name="e" format="1">
  <advance width="507"/>
  <unicode hex="0065"/>
  <outline>
    <contour>
      <point x="485" y="117" type="line" smooth="yes"/>
      <point x="485" y="-8"/>
      <point x="277" y="-8" type="qcurve" smooth="yes"/>
      <point x="71" y="-8"/>
      <point x="71" y="117" type="qcurve" smooth="yes"/>
      <point x="71" y="446" type="line" smooth="yes"/>
      <point x="71" y="571"/>
      <point x="277" y="571" type="qcurve" smooth="yes"/>
      <point x="485" y="571"/>
      <point x="485" y="446" type="qcurve" smooth="yes"/>
      <point x="485" y="301" type="line" smooth="yes"/>
      <point x="485" y="296"/>
      <point x="467" y="296" type="qcurve" smooth="yes"/>
      <point x="168" y="296" type="line"/>
      <point x="168" y="115" type="line" smooth="yes"/>
      <point x="168" y="27"/>
      <point x="277" y="27" type="qcurve" smooth="yes"/>
      <point x="387" y="27"/>
      <point x="387" y="115" type="qcurve" smooth="yes"/>
      <point x="387" y="134" type="line" smooth="yes"/>
      <point x="387" y="139"/>
      <point x="405" y="139" type="qcurve" smooth="yes"/>
      <point x="467" y="139" type="line" smooth="yes"/>
      <point x="485" y="139"/>
      <point x="485" y="134" type="qcurve" smooth="yes"/>
    </contour>
    <contour>
      <point x="387" y="336" type="line"/>
      <point x="387" y="448" type="line" smooth="yes"/>
      <point x="387" y="536"/>
      <point x="277" y="536" type="qcurve" smooth="yes"/>
      <point x="168" y="536"/>
      <point x="168" y="448" type="qcurve" smooth="yes"/>
      <point x="168" y="336" type="line"/>
    </contour>
  </outline>
</glyph>
<glyph name="f" format="1">
  <advance width="464"/>
  <unicode hex="0066"/>
  <outline>
    <contour>
      <point x="498" y="661" type="line" smooth="yes"/>
      <point x="498" y="656"/>
      <point x="480" y="656" type="qcurve" smooth="yes"/>
      <point x="416" y="656" type="line" smooth="yes"/>
      <point x="398" y="656"/>
      <point x="398" y="661" type="qcurve" smooth="yes"/>
      <point x="398" y="681" type="line" smooth="yes"/>
      <point x="398" y="728"/>
      <point x="384" y="742" type="qcurve" smooth="yes"/>
      <point x="358" y="768"/>
      <point x="288" y="768" type="qcurve" smooth="yes"/>
      <point x="179" y="768"/>
      <point x="179" y="681" type="qcurve" smooth="yes"/>
      <point x="179" y="573" type="line"/>
      <point x="409" y="573" type="line" smooth="yes"/>
      <point x="427" y="573"/>
      <point x="427" y="568" type="qcurve" smooth="yes"/>
      <point x="427" y="538" type="line" smooth="yes"/>
      <point x="427" y="533"/>
      <point x="409" y="533" type="qcurve" smooth="yes"/>
      <point x="179" y="533" type="line"/>
      <point x="179" y="-3" type="line" smooth="yes"/>
      <point x="179" y="-8"/>
      <point x="161" y="-8" type="qcurve" smooth="yes"/>
      <point x="99" y="-8" type="line" smooth="yes"/>
      <point x="80" y="-8"/>
      <point x="80" y="-3" type="qcurve" smooth="yes"/>
      <point x="80" y="678" type="line" smooth="yes"/>
      <point x="80" y="804"/>
      <point x="288" y="804" type="qcurve" smooth="yes"/>
      <point x="498" y="804"/>
      <point x="498" y="678" type="qcurve" smooth="yes"/>
    </contour>
  </outline>
</glyph>
<glyph name="g" format="1">
  <advance width="520"/>
  <unicode hex="0067"/>
  <outline>
    <contour>
      <point x="487" y="-104" type="line" smooth="yes"/>
      <point x="487" y="-228"/>
      <point x="281" y="-228" type="qcurve" smooth="yes"/>
      <point x="71" y="-228"/>
      <point x="71" y="-104" type="qcurve" smooth="yes"/>
      <point x="71" y="-42" type="line" smooth="yes"/>
      <point x="71" y="-38"/>
      <point x="89" y="-38" type="qcurve" smooth="yes"/>
      <point x="153" y="-38" type="line" smooth="yes"/>
      <point x="172" y="-38"/>
      <point x="172" y="-42" type="qcurve" smooth="yes"/>
      <point x="172" y="-107" type="line" smooth="yes"/>
      <point x="172" y="-162"/>
      <point x="200" y="-180" type="qcurve" smooth="yes"/>
      <point x="222" y="-194"/>
      <point x="281" y="-194" type="qcurve" smooth="yes"/>
      <point x="390" y="-194"/>
      <point x="390" y="-107" type="qcurve" smooth="yes"/>
      <point x="390" y="4" type="line"/>
      <point x="345" y="-8"/>
      <point x="277" y="-8" type="qcurve" smooth="yes"/>
      <point x="71" y="-8"/>
      <point x="71" y="118" type="qcurve" smooth="yes"/>
      <point x="71" y="448" type="line" smooth="yes"/>
      <point x="71" y="574"/>
      <point x="277" y="574" type="qcurve" smooth="yes"/>
      <point x="348" y="574"/>
      <point x="390" y="561" type="qcurve"/>
      <point x="390" y="567" type="line" smooth="yes"/>
      <point x="390" y="572"/>
      <point x="409" y="572" type="qcurve" smooth="yes"/>
      <point x="469" y="572" type="line" smooth="yes"/>
      <point x="487" y="572"/>
      <point x="487" y="567" type="qcurve" smooth="yes"/>
    </contour>
    <contour>
      <point x="387" y="116" type="qcurve" smooth="yes"/>
      <point x="387" y="450" type="line" smooth="yes"/>
      <point x="387" y="538"/>
      <point x="277" y="538" type="qcurve" smooth="yes"/>
      <point x="168" y="538"/>
      <point x="168" y="450" type="qcurve" smooth="yes"/>
      <point x="168" y="116" type="line" smooth="yes"/>
      <point x="168" y="27"/>
      <point x="277" y="27" type="qcurve" smooth="yes"/>
      <point x="387" y="27"/>
    </contour>
  </outline>
</glyph>
<glyph name="h" format="1">
  <advance width="520"/>
  <unicode hex="0068"/>
  <outline>
    <contour>
      <point x="486" y="-3" type="line" smooth="yes"/>
      <point x="486" y="-8"/>
      <point x="467" y="-8" type="qcurve" smooth="yes"/>
      <point x="405" y="-8" type="line" smooth="yes"/>
      <point x="387" y="-8"/>
      <point x="387" y="-3" type="qcurve" smooth="yes"/>
      <point x="387" y="453" type="line" smooth="yes"/>
      <point x="387" y="542"/>
      <point x="278" y="542" type="qcurve" smooth="yes"/>
      <point x="168" y="542"/>
      <point x="168" y="453" type="qcurve" smooth="yes"/>
      <point x="168" y="-3" type="line" smooth="yes"/>
      <point x="168" y="-8"/>
      <point x="150" y="-8" type="qcurve" smooth="yes"/>
      <point x="84" y="-8" type="line" smooth="yes"/>
      <point x="66" y="-8"/>
      <point x="66" y="-3" type="qcurve" smooth="yes"/>
      <point x="66" y="799" type="line" smooth="yes"/>
      <point x="66" y="804"/>
      <point x="84" y="804" type="qcurve" smooth="yes"/>
      <point x="146" y="804" type="line" smooth="yes"/>
      <point x="164" y="804"/>
      <point x="164" y="799" type="qcurve" smooth="yes"/>
      <point x="164" y="564" type="line"/>
      <point x="210" y="577"/>
      <point x="278" y="577" type="qcurve" smooth="yes"/>
      <point x="486" y="577"/>
      <point x="486" y="451" type="qcurve" smooth="yes"/>
    </contour>
  </outline>
</glyph>
<glyph name="i" format="1">
  <advance width="223"/>
  <unicode hex="0069"/>
  <outline>
    <contour>
      <point x="173" y="660" type="line" smooth="yes"/>
      <point x="173" y="655"/>
      <point x="154" y="655" type="qcurve" smooth="yes"/>
      <point x="91" y="655" type="line" smooth="yes"/>
      <point x="74" y="655"/>
      <point x="74" y="660" type="qcurve" smooth="yes"/>
      <point x="74" y="691" type="line" smooth="yes"/>
      <point x="74" y="696"/>
      <point x="91" y="696" type="qcurve" smooth="yes"/>
      <point x="154" y="696" type="line" smooth="yes"/>
      <point x="173" y="696"/>
      <point x="173" y="691" type="qcurve" smooth="yes"/>
    </contour>
    <contour>
      <point x="173" y="5" type="line" smooth="yes"/>
      <point x="173" y="0"/>
      <point x="154" y="0" type="qcurve" smooth="yes"/>
      <point x="91" y="0" type="line" smooth="yes"/>
      <point x="74" y="0"/>
      <point x="74" y="5" type="qcurve" smooth="yes"/>
      <point x="74" y="571" type="line" smooth="yes"/>
      <point x="74" y="576"/>
      <point x="91" y="576" type="qcurve" smooth="yes"/>
      <point x="154" y="576" type="line" smooth="yes"/>
      <point x="173" y="576"/>
      <point x="173" y="571" type="qcurve" smooth="yes"/>
    </contour>
  </outline>
</glyph>
<glyph name="j" format="1">
  <advance width="175"/>
  <unicode hex="006A"/>
  <outline>
    <contour>
      <point x="153" y="663" type="line" smooth="yes"/>
      <point x="153" y="658"/>
      <point x="136" y="658" type="qcurve" smooth="yes"/>
      <point x="81" y="658" type="line" smooth="yes"/>
      <point x="64" y="658"/>
      <point x="64" y="663" type="qcurve" smooth="yes"/>
      <point x="64" y="695" type="line" smooth="yes"/>
      <point x="64" y="699"/>
      <point x="81" y="699" type="qcurve" smooth="yes"/>
      <point x="136" y="699" type="line" smooth="yes"/>
      <point x="153" y="699"/>
      <point x="153" y="695" type="qcurve" smooth="yes"/>
    </contour>
    <contour>
      <point x="148" y="-104" type="line" smooth="yes"/>
      <point x="148" y="-229"/>
      <point x="-42" y="-229" type="qcurve" smooth="yes"/>
      <point x="-59" y="-229"/>
      <point x="-59" y="-224" type="qcurve" smooth="yes"/>
      <point x="-59" y="-199" type="line" smooth="yes"/>
      <point x="-59" y="-194"/>
      <point x="-42" y="-194" type="qcurve" smooth="yes"/>
      <point x="61" y="-194"/>
      <point x="61" y="-107" type="qcurve" smooth="yes"/>
      <point x="61" y="568" type="line" smooth="yes"/>
      <point x="61" y="573"/>
      <point x="77" y="573" type="qcurve" smooth="yes"/>
      <point x="131" y="573" type="line" smooth="yes"/>
      <point x="148" y="573"/>
      <point x="148" y="568" type="qcurve" smooth="yes"/>
    </contour>
  </outline>
</glyph>
<glyph name="k" format="1">
  <advance width="512"/>
  <unicode hex="006B"/>
  <outline>
    <contour>
      <point x="483" y="5" type="line" smooth="yes"/>
      <point x="483" y="0"/>
      <point x="465" y="0" type="qcurve" smooth="yes"/>
      <point x="407" y="0" type="line" smooth="yes"/>
      <point x="388" y="0"/>
      <point x="388" y="5" type="qcurve" smooth="yes"/>
      <point x="388" y="246" type="line" smooth="yes"/>
      <point x="388" y="305"/>
      <point x="350" y="317" type="qcurve" smooth="yes"/>
      <point x="335" y="322"/>
      <point x="257" y="322" type="qcurve" smooth="yes"/>
      <point x="170" y="322" type="line"/>
      <point x="170" y="5" type="line" smooth="yes"/>
      <point x="170" y="0"/>
      <point x="151" y="0" type="qcurve" smooth="yes"/>
      <point x="89" y="0" type="line" smooth="yes"/>
      <point x="71" y="0"/>
      <point x="71" y="5" type="qcurve" smooth="yes"/>
      <point x="71" y="799" type="line" smooth="yes"/>
      <point x="71" y="804"/>
      <point x="89" y="804" type="qcurve" smooth="yes"/>
      <point x="151" y="804" type="line" smooth="yes"/>
      <point x="170" y="804"/>
      <point x="170" y="799" type="qcurve" smooth="yes"/>
      <point x="170" y="362" type="line"/>
      <point x="257" y="362" type="line" smooth="yes"/>
      <point x="338" y="362"/>
      <point x="370" y="380" type="qcurve" smooth="yes"/>
      <point x="388" y="390"/>
      <point x="388" y="444" type="qcurve" smooth="yes"/>
      <point x="388" y="572" type="line" smooth="yes"/>
      <point x="388" y="577"/>
      <point x="407" y="577" type="qcurve" smooth="yes"/>
      <point x="465" y="578" type="line" smooth="yes"/>
      <point x="483" y="578"/>
      <point x="483" y="573" type="qcurve" smooth="yes"/>
      <point x="483" y="441" type="line" smooth="yes"/>
      <point x="483" y="369"/>
      <point x="396" y="345" type="qcurve"/>
      <point x="483" y="322"/>
      <point x="483" y="248" type="qcurve" smooth="yes"/>
    </contour>
  </outline>
</glyph>
<glyph name="l" format="1">
  <advance width="146"/>
  <unicode hex="006C"/>
  <outline>
    <contour>
      <point x="123" y="8" type="line" smooth="yes"/>
      <point x="123" y="3"/>
      <point x="104" y="3" type="qcurve" smooth="yes"/>
      <point x="41" y="3" type="line" smooth="yes"/>
      <point x="23" y="3"/>
      <point x="23" y="8" type="qcurve" smooth="yes"/>
      <point x="23" y="753" type="line"/>
      <point x="24" y="756"/>
      <point x="33" y="757" type="qcurve"/>
      <point x="95" y="790" type="line"/>
      <point x="105" y="791"/>
      <point x="114" y="790" type="qcurve" smooth="yes"/>
      <point x="123" y="788"/>
      <point x="123" y="786" type="qcurve" smooth="yes"/>
    </contour>
  </outline>
</glyph>
<glyph name="m" format="1">
  <advance width="859"/>
  <unicode hex="006D"/>
  <outline>
    <contour>
      <point x="838" y="-3" type="line" smooth="yes"/>
      <point x="838" y="-8"/>
      <point x="819" y="-8" type="qcurve" smooth="yes"/>
      <point x="755" y="-8" type="line" smooth="yes"/>
      <point x="736" y="-8"/>
      <point x="736" y="-3" type="qcurve" smooth="yes"/>
      <point x="736" y="451" type="line" smooth="yes"/>
      <point x="736" y="540"/>
      <point x="508" y="540"/>
      <point x="508" y="451" type="qcurve" smooth="yes"/>
      <point x="508" y="-3" type="line" smooth="yes"/>
      <point x="508" y="-8"/>
      <point x="489" y="-8" type="qcurve" smooth="yes"/>
      <point x="422" y="-8" type="line" smooth="yes"/>
      <point x="403" y="-8"/>
      <point x="403" y="-3" type="qcurve" smooth="yes"/>
      <point x="403" y="451" type="line" smooth="yes"/>
      <point x="403" y="540"/>
      <point x="175" y="540"/>
      <point x="175" y="451" type="qcurve" smooth="yes"/>
      <point x="175" y="-3" type="line" smooth="yes"/>
      <point x="175" y="-8"/>
      <point x="156" y="-8" type="qcurve" smooth="yes"/>
      <point x="87" y="-8" type="line" smooth="yes"/>
      <point x="68" y="-8"/>
      <point x="68" y="-3" type="qcurve" smooth="yes"/>
      <point x="68" y="569" type="line" smooth="yes"/>
      <point x="68" y="574"/>
      <point x="87" y="574" type="qcurve" smooth="yes"/>
      <point x="152" y="574" type="line" smooth="yes"/>
      <point x="171" y="574"/>
      <point x="171" y="569" type="qcurve" smooth="yes"/>
      <point x="171" y="561" type="line"/>
      <point x="219" y="574"/>
      <point x="289" y="574" type="qcurve" smooth="yes"/>
      <point x="402" y="574"/>
      <point x="455" y="542" type="qcurve"/>
      <point x="505" y="574"/>
      <point x="622" y="574" type="qcurve" smooth="yes"/>
      <point x="838" y="574"/>
      <point x="838" y="449" type="qcurve" smooth="yes"/>
    </contour>
  </outline>
</glyph>
<glyph name="n" format="1">
  <advance width="509"/>
  <unicode hex="006E"/>
  <outline>
    <contour>
      <point x="486" y="-3" type="line" smooth="yes"/>
      <point x="486" y="-8"/>
      <point x="467" y="-8" type="qcurve" smooth="yes"/>
      <point x="405" y="-8" type="line" smooth="yes"/>
      <point x="387" y="-8"/>
      <point x="387" y="-3" type="qcurve" smooth="yes"/>
      <point x="387" y="451" type="line" smooth="yes"/>
      <point x="387" y="540"/>
      <point x="278" y="540" type="qcurve" smooth="yes"/>
      <point x="168" y="540"/>
      <point x="168" y="451" type="qcurve" smooth="yes"/>
      <point x="168" y="-3" type="line" smooth="yes"/>
      <point x="168" y="-8"/>
      <point x="150" y="-8" type="qcurve" smooth="yes"/>
      <point x="84" y="-8" type="line" smooth="yes"/>
      <point x="66" y="-8"/>
      <point x="66" y="-3" type="qcurve" smooth="yes"/>
      <point x="66" y="569" type="line" smooth="yes"/>
      <point x="66" y="574"/>
      <point x="84" y="574" type="qcurve" smooth="yes"/>
      <point x="146" y="574" type="line" smooth="yes"/>
      <point x="164" y="574"/>
      <point x="164" y="569" type="qcurve" smooth="yes"/>
      <point x="164" y="561" type="line"/>
      <point x="210" y="574"/>
      <point x="278" y="574" type="qcurve" smooth="yes"/>
      <point x="486" y="574"/>
      <point x="486" y="449" type="qcurve" smooth="yes"/>
    </contour>
  </outline>
</glyph>
<glyph name="o" format="1">
  <advance width="505"/>
  <unicode hex="006F"/>
  <outline>
    <contour>
      <point x="485" y="117" type="line" smooth="yes"/>
      <point x="485" y="-8"/>
      <point x="277" y="-8" type="qcurve" smooth="yes"/>
      <point x="71" y="-8"/>
      <point x="71" y="117" type="qcurve" smooth="yes"/>
      <point x="71" y="446" type="line" smooth="yes"/>
      <point x="71" y="571"/>
      <point x="277" y="571" type="qcurve" smooth="yes"/>
      <point x="485" y="571"/>
      <point x="485" y="446" type="qcurve" smooth="yes"/>
    </contour>
    <contour>
      <point x="387" y="115" type="qcurve" smooth="yes"/>
      <point x="387" y="448" type="line" smooth="yes"/>
      <point x="387" y="536"/>
      <point x="277" y="536" type="qcurve" smooth="yes"/>
      <point x="168" y="536"/>
      <point x="168" y="448" type="qcurve" smooth="yes"/>
      <point x="168" y="115" type="line" smooth="yes"/>
      <point x="168" y="27"/>
      <point x="277" y="27" type="qcurve" smooth="yes"/>
      <point x="387" y="27"/>
    </contour>
  </outline>
</glyph>
<glyph name="p" format="1">
  <advance width="502"/>
  <unicode hex="0070"/>
  <outline>
    <contour>
      <point x="476" y="118" type="line" smooth="yes"/>
      <point x="476" y="-9"/>
      <point x="266" y="-9" type="qcurve" smooth="yes"/>
      <point x="201" y="-9"/>
      <point x="157" y="2" type="qcurve"/>
      <point x="157" y="-223" type="line" smooth="yes"/>
      <point x="157" y="-228"/>
      <point x="139" y="-228" type="qcurve" smooth="yes"/>
      <point x="80" y="-228" type="line" smooth="yes"/>
      <point x="62" y="-228"/>
      <point x="62" y="-223" type="qcurve" smooth="yes"/>
      <point x="62" y="564" type="line" smooth="yes"/>
      <point x="62" y="569"/>
      <point x="80" y="569" type="qcurve" smooth="yes"/>
      <point x="139" y="569" type="line" smooth="yes"/>
      <point x="157" y="569"/>
      <point x="157" y="564" type="qcurve" smooth="yes"/>
      <point x="157" y="562" type="line"/>
      <point x="201" y="573"/>
      <point x="266" y="573" type="qcurve" smooth="yes"/>
      <point x="476" y="573"/>
      <point x="476" y="448" type="qcurve" smooth="yes"/>
    </contour>
    <contour>
      <point x="378" y="115" type="qcurve" smooth="yes"/>
      <point x="378" y="449" type="line" smooth="yes"/>
      <point x="378" y="538"/>
      <point x="266" y="538" type="qcurve" smooth="yes"/>
      <point x="159" y="538"/>
      <point x="159" y="449" type="qcurve" smooth="yes"/>
      <point x="159" y="115" type="line" smooth="yes"/>
      <point x="159" y="27"/>
      <point x="266" y="27" type="qcurve" smooth="yes"/>
      <point x="378" y="27"/>
    </contour>
  </outline>
</glyph>
<glyph name="q" format="1">
  <advance width="502"/>
  <unicode hex="0071"/>
  <outline>
    <contour>
      <point x="476" y="-223" type="line" smooth="yes"/>
      <point x="476" y="-228"/>
      <point x="458" y="-228" type="qcurve" smooth="yes"/>
      <point x="396" y="-228" type="line" smooth="yes"/>
      <point x="378" y="-228"/>
      <point x="378" y="-223" type="qcurve" smooth="yes"/>
      <point x="378" y="2" type="line"/>
      <point x="329" y="-9"/>
      <point x="268" y="-9" type="qcurve" smooth="yes"/>
      <point x="62" y="-9"/>
      <point x="62" y="118" type="qcurve" smooth="yes"/>
      <point x="62" y="448" type="line" smooth="yes"/>
      <point x="62" y="573"/>
      <point x="268" y="573" type="qcurve" smooth="yes"/>
      <point x="329" y="573"/>
      <point x="378" y="562" type="qcurve"/>
      <point x="378" y="564" type="line" smooth="yes"/>
      <point x="378" y="569"/>
      <point x="396" y="569" type="qcurve" smooth="yes"/>
      <point x="458" y="569" type="line" smooth="yes"/>
      <point x="476" y="569"/>
      <point x="476" y="564" type="qcurve" smooth="yes"/>
    </contour>
    <contour>
      <point x="378" y="115" type="qcurve" smooth="yes"/>
      <point x="378" y="449" type="line" smooth="yes"/>
      <point x="378" y="538"/>
      <point x="268" y="538" type="qcurve" smooth="yes"/>
      <point x="159" y="538"/>
      <point x="159" y="449" type="qcurve" smooth="yes"/>
      <point x="159" y="115" type="line" smooth="yes"/>
      <point x="159" y="27"/>
      <point x="268" y="27" type="qcurve" smooth="yes"/>
      <point x="378" y="27"/>
    </contour>
  </outline>
</glyph>
<glyph name="r" format="1">
  <advance width="508"/>
  <unicode hex="0072"/>
  <outline>
    <contour>
      <point x="487" y="383" type="line" smooth="yes"/>
      <point x="487" y="378"/>
      <point x="469" y="378" type="qcurve" smooth="yes"/>
      <point x="405" y="378" type="line" smooth="yes"/>
      <point x="387" y="378"/>
      <point x="387" y="383" type="qcurve" smooth="yes"/>
      <point x="387" y="446" type="line" smooth="yes"/>
      <point x="387" y="504"/>
      <point x="358" y="519" type="qcurve"/>
      <point x="359" y="519" type="line"/>
      <point x="329" y="533"/>
      <point x="277" y="533" type="qcurve" smooth="yes"/>
      <point x="196" y="533"/>
      <point x="172" y="479" type="qcurve"/>
      <point x="173" y="481" type="line"/>
      <point x="173" y="476"/>
      <point x="172" y="473" type="qcurve"/>
      <point x="172" y="464" type="line"/>
      <point x="172" y="2" type="line" smooth="yes"/>
      <point x="172" y="-3"/>
      <point x="153" y="-3" type="qcurve" smooth="yes"/>
      <point x="89" y="-3" type="line" smooth="yes"/>
      <point x="71" y="-3"/>
      <point x="71" y="2" type="qcurve" smooth="yes"/>
      <point x="71" y="569" type="line" smooth="yes"/>
      <point x="71" y="574"/>
      <point x="89" y="574" type="qcurve" smooth="yes"/>
      <point x="155" y="574" type="line" smooth="yes"/>
      <point x="173" y="574"/>
      <point x="173" y="569" type="qcurve" smooth="yes"/>
      <point x="173" y="558" type="line"/>
      <point x="219" y="570"/>
      <point x="301" y="570" type="qcurve" smooth="yes"/>
      <point x="385" y="570"/>
      <point x="424" y="549" type="qcurve" smooth="yes"/>
      <point x="487" y="514"/>
      <point x="487" y="443" type="qcurve" smooth="yes"/>
    </contour>
  </outline>
</glyph>
<glyph name="s" format="1">
  <advance width="487"/>
  <unicode hex="0073"/>
  <outline>
    <contour>
      <point x="472" y="117" type="line" smooth="yes"/>
      <point x="472" y="-8"/>
      <point x="268" y="-8" type="qcurve" smooth="yes"/>
      <point x="58" y="-8"/>
      <point x="58" y="117" type="qcurve" smooth="yes"/>
      <point x="58" y="173" type="line" smooth="yes"/>
      <point x="58" y="178"/>
      <point x="77" y="178" type="qcurve" smooth="yes"/>
      <point x="140" y="178" type="line" smooth="yes"/>
      <point x="159" y="178"/>
      <point x="159" y="173" type="qcurve" smooth="yes"/>
      <point x="159" y="115" type="line" smooth="yes"/>
      <point x="159" y="29"/>
      <point x="268" y="29" type="qcurve" smooth="yes"/>
      <point x="378" y="29"/>
      <point x="378" y="115" type="qcurve" smooth="yes"/>
      <point x="378" y="220" type="line" smooth="yes"/>
      <point x="378" y="289"/>
      <point x="268" y="289" type="qcurve" smooth="yes"/>
      <point x="58" y="289"/>
      <point x="58" y="413" type="qcurve" smooth="yes"/>
      <point x="58" y="446" type="line" smooth="yes"/>
      <point x="58" y="571"/>
      <point x="268" y="571" type="qcurve" smooth="yes"/>
      <point x="472" y="571"/>
      <point x="472" y="446" type="qcurve" smooth="yes"/>
      <point x="472" y="402" type="line" smooth="yes"/>
      <point x="472" y="397"/>
      <point x="454" y="397" type="qcurve" smooth="yes"/>
      <point x="396" y="397" type="line" smooth="yes"/>
      <point x="378" y="397"/>
      <point x="378" y="402" type="qcurve" smooth="yes"/>
      <point x="378" y="448" type="line" smooth="yes"/>
      <point x="378" y="536"/>
      <point x="268" y="536" type="qcurve" smooth="yes"/>
      <point x="159" y="536"/>
      <point x="159" y="448" type="qcurve" smooth="yes"/>
      <point x="159" y="420" type="line" smooth="yes"/>
      <point x="159" y="323"/>
      <point x="268" y="323" type="qcurve" smooth="yes"/>
      <point x="451" y="323"/>
      <point x="470" y="232" type="qcurve"/>
      <point x="472" y="232"/>
      <point x="472" y="230" type="qcurve" smooth="yes"/>
    </contour>
  </outline>
</glyph>
<glyph name="t" format="1">
  <advance width="334"/>
  <unicode hex="0074"/>
  <outline>
    <contour>
      <point x="362" y="542" type="line" smooth="yes"/>
      <point x="362" y="537"/>
      <point x="344" y="537" type="qcurve" smooth="yes"/>
      <point x="167" y="537" type="line"/>
      <point x="167" y="5" type="line" smooth="yes"/>
      <point x="167" y="0"/>
      <point x="149" y="0" type="qcurve" smooth="yes"/>
      <point x="90" y="0" type="line" smooth="yes"/>
      <point x="72" y="0"/>
      <point x="72" y="5" type="qcurve" smooth="yes"/>
      <point x="72" y="695" type="line" smooth="yes"/>
      <point x="72" y="700"/>
      <point x="90" y="700" type="qcurve" smooth="yes"/>
      <point x="149" y="700" type="line" smooth="yes"/>
      <point x="167" y="700"/>
      <point x="167" y="695" type="qcurve" smooth="yes"/>
      <point x="167" y="577" type="line"/>
      <point x="344" y="577" type="line" smooth="yes"/>
      <point x="362" y="577"/>
      <point x="362" y="572" type="qcurve" smooth="yes"/>
    </contour>
  </outline>
</glyph>
<glyph name="u" format="1">
  <advance width="520"/>
  <unicode hex="0075"/>
  <outline>
    <contour>
      <point x="485" y="117" type="line" smooth="yes"/>
      <point x="485" y="-8"/>
      <point x="277" y="-8" type="qcurve" smooth="yes"/>
      <point x="71" y="-8"/>
      <point x="71" y="117" type="qcurve" smooth="yes"/>
      <point x="71" y="569" type="line" smooth="yes"/>
      <point x="71" y="574"/>
      <point x="89" y="574" type="qcurve" smooth="yes"/>
      <point x="150" y="574" type="line" smooth="yes"/>
      <point x="168" y="574"/>
      <point x="168" y="569" type="qcurve" smooth="yes"/>
      <point x="168" y="115" type="line" smooth="yes"/>
      <point x="168" y="27"/>
      <point x="277" y="27" type="qcurve" smooth="yes"/>
      <point x="387" y="27"/>
      <point x="387" y="115" type="qcurve" smooth="yes"/>
      <point x="387" y="569" type="line" smooth="yes"/>
      <point x="387" y="574"/>
      <point x="405" y="574" type="qcurve" smooth="yes"/>
      <point x="467" y="574" type="line" smooth="yes"/>
      <point x="485" y="574"/>
      <point x="485" y="569" type="qcurve" smooth="yes"/>
    </contour>
  </outline>
</glyph>
<glyph name="v" format="1">
  <advance width="399"/>
  <unicode hex="0076"/>
  <outline>
    <contour>
      <point x="425" y="566" type="line"/>
      <point x="263" y="4" type="line"/>
      <point x="259" y="0"/>
      <point x="246" y="0" type="qcurve" smooth="yes"/>
      <point x="197" y="0" type="line" smooth="yes"/>
      <point x="183" y="0"/>
      <point x="179" y="4" type="qcurve"/>
      <point x="17" y="566" type="line"/>
      <point x="11" y="572"/>
      <point x="35" y="572" type="qcurve" smooth="yes"/>
      <point x="97" y="572" type="line" smooth="yes"/>
      <point x="110" y="572"/>
      <point x="114" y="568" type="qcurve"/>
      <point x="220" y="190" type="line"/>
      <point x="329" y="568" type="line"/>
      <point x="333" y="572"/>
      <point x="346" y="572" type="qcurve" smooth="yes"/>
      <point x="408" y="572" type="line" smooth="yes"/>
      <point x="426" y="572"/>
      <point x="426" y="567" type="qcurve"/>
    </contour>
  </outline>
</glyph>
<glyph name="w" format="1">
  <advance width="872"/>
  <unicode hex="0077"/>
  <outline>
    <contour>
      <point x="836" y="117" type="line" smooth="yes"/>
      <point x="836" y="-8"/>
      <point x="629" y="-8" type="qcurve" smooth="yes"/>
      <point x="619" y="-8" type="line" smooth="yes"/>
      <point x="484" y="-8"/>
      <point x="451" y="67" type="qcurve"/>
      <point x="450" y="65"/>
      <point x="445" y="56" type="qcurve"/>
      <point x="400" y="-8"/>
      <point x="289" y="-8" type="qcurve" smooth="yes"/>
      <point x="284" y="-8" type="line" smooth="yes"/>
      <point x="74" y="-8"/>
      <point x="74" y="117" type="qcurve" smooth="yes"/>
      <point x="74" y="569" type="line" smooth="yes"/>
      <point x="74" y="574"/>
      <point x="93" y="574" type="qcurve" smooth="yes"/>
      <point x="156" y="574" type="line" smooth="yes"/>
      <point x="175" y="574"/>
      <point x="175" y="569" type="qcurve" smooth="yes"/>
      <point x="175" y="115" type="line" smooth="yes"/>
      <point x="175" y="27"/>
      <point x="289" y="27" type="qcurve" smooth="yes"/>
      <point x="345" y="27"/>
      <point x="382" y="106" type="qcurve" smooth="yes"/>
      <point x="403" y="151"/>
      <point x="403" y="222" type="qcurve" smooth="yes"/>
      <point x="403" y="569" type="line" smooth="yes"/>
      <point x="403" y="574"/>
      <point x="422" y="574" type="qcurve" smooth="yes"/>
      <point x="486" y="574" type="line" smooth="yes"/>
      <point x="505" y="574"/>
      <point x="505" y="569" type="qcurve" smooth="yes"/>
      <point x="505" y="222" type="line" smooth="yes"/>
      <point x="505" y="150"/>
      <point x="524" y="106" type="qcurve" smooth="yes"/>
      <point x="557" y="27"/>
      <point x="619" y="27" type="qcurve" smooth="yes"/>
      <point x="733" y="27"/>
      <point x="733" y="115" type="qcurve" smooth="yes"/>
      <point x="733" y="569" type="line" smooth="yes"/>
      <point x="733" y="574"/>
      <point x="752" y="574" type="qcurve" smooth="yes"/>
      <point x="817" y="574" type="line" smooth="yes"/>
      <point x="836" y="574"/>
      <point x="836" y="569" type="qcurve" smooth="yes"/>
    </contour>
  </outline>
</glyph>
<glyph name="x" format="1">
  <advance width="450"/>
  <unicode hex="0078"/>
  <outline>
    <contour>
      <point x="453" y="2" type="qcurve" smooth="yes"/>
      <point x="393" y="2" type="line" smooth="yes"/>
      <point x="385" y="2"/>
      <point x="377" y="4" type="qcurve"/>
      <point x="248" y="226" type="line"/>
      <point x="126" y="4" type="line"/>
      <point x="118" y="2"/>
      <point x="110" y="2" type="qcurve" smooth="yes"/>
      <point x="44" y="2" type="line" smooth="yes"/>
      <point x="25" y="2"/>
      <point x="25" y="7" type="qcurve" smooth="yes"/>
      <point x="25" y="8"/>
      <point x="28" y="10" type="qcurve"/>
      <point x="192" y="296" type="line"/>
      <point x="49" y="563" type="line"/>
      <point x="46" y="564"/>
      <point x="46" y="566" type="qcurve" smooth="yes"/>
      <point x="46" y="570"/>
      <point x="64" y="570" type="qcurve" smooth="yes"/>
      <point x="125" y="570" type="line" smooth="yes"/>
      <point x="134" y="570"/>
      <point x="140" y="568" type="qcurve"/>
      <point x="246" y="378" type="line"/>
      <point x="357" y="568" type="line"/>
      <point x="365" y="570"/>
      <point x="373" y="570" type="qcurve" smooth="yes"/>
      <point x="437" y="570" type="line" smooth="yes"/>
      <point x="456" y="570"/>
      <point x="456" y="565" type="qcurve"/>
      <point x="454" y="563"/>
      <point x="452" y="562" type="qcurve"/>
      <point x="307" y="304" type="line"/>
      <point x="469" y="10" type="line"/>
      <point x="472" y="8"/>
      <point x="472" y="7" type="qcurve" smooth="yes"/>
      <point x="472" y="2"/>
    </contour>
  </outline>
</glyph>
<glyph name="y" format="1">
  <advance width="520"/>
  <unicode hex="0079"/>
  <outline>
    <contour>
      <point x="487" y="-104" type="line" smooth="yes"/>
      <point x="487" y="-228"/>
      <point x="281" y="-228" type="qcurve" smooth="yes"/>
      <point x="71" y="-228"/>
      <point x="71" y="-104" type="qcurve" smooth="yes"/>
      <point x="71" y="-42" type="line" smooth="yes"/>
      <point x="71" y="-38"/>
      <point x="89" y="-38" type="qcurve" smooth="yes"/>
      <point x="153" y="-38" type="line" smooth="yes"/>
      <point x="172" y="-38"/>
      <point x="172" y="-42" type="qcurve" smooth="yes"/>
      <point x="172" y="-107" type="line" smooth="yes"/>
      <point x="172" y="-162"/>
      <point x="200" y="-180" type="qcurve" smooth="yes"/>
      <point x="222" y="-194"/>
      <point x="281" y="-194" type="qcurve" smooth="yes"/>
      <point x="390" y="-194"/>
      <point x="390" y="-107" type="qcurve" smooth="yes"/>
      <point x="390" y="4" type="line"/>
      <point x="345" y="-8"/>
      <point x="277" y="-8" type="qcurve" smooth="yes"/>
      <point x="71" y="-8"/>
      <point x="71" y="118" type="qcurve" smooth="yes"/>
      <point x="71" y="572" type="line" smooth="yes"/>
      <point x="71" y="577"/>
      <point x="89" y="577" type="qcurve" smooth="yes"/>
      <point x="150" y="577" type="line" smooth="yes"/>
      <point x="168" y="577"/>
      <point x="168" y="572" type="qcurve" smooth="yes"/>
      <point x="168" y="116" type="line" smooth="yes"/>
      <point x="168" y="27"/>
      <point x="277" y="27" type="qcurve" smooth="yes"/>
      <point x="387" y="27"/>
      <point x="387" y="116" type="qcurve" smooth="yes"/>
      <point x="387" y="572" type="line" smooth="yes"/>
      <point x="387" y="577"/>
      <point x="405" y="577" type="qcurve" smooth="yes"/>
      <point x="467" y="577" type="line" smooth="yes"/>
      <point x="485" y="577"/>
      <point x="485" y="572" type="qcurve" smooth="yes"/>
      <point x="485" y="569" type="line"/>
      <point x="487" y="569"/>
      <point x="487" y="567" type="qcurve" smooth="yes"/>
    </contour>
  </outline>
</glyph>
<glyph name="z" format="1">
  <advance width="451"/>
  <unicode hex="007A"/>
  <outline>
    <contour>
      <point x="477" y="570" type="qcurve" smooth="yes"/>
      <point x="477" y="568"/>
      <point x="473" y="567" type="qcurve"/>
      <point x="124" y="35" type="line"/>
      <point x="436" y="35" type="line" smooth="yes"/>
      <point x="455" y="35"/>
      <point x="455" y="30" type="qcurve" smooth="yes"/>
      <point x="455" y="5" type="line" smooth="yes"/>
      <point x="455" y="0"/>
      <point x="436" y="0" type="qcurve" smooth="yes"/>
      <point x="31" y="0" type="line" smooth="yes"/>
      <point x="12" y="0"/>
      <point x="12" y="5" type="qcurve"/>
      <point x="14" y="7"/>
      <point x="17" y="8" type="qcurve"/>
      <point x="363" y="538" type="line"/>
      <point x="52" y="538" type="line" smooth="yes"/>
      <point x="33" y="538"/>
      <point x="33" y="543" type="qcurve" smooth="yes"/>
      <point x="33" y="570" type="line" smooth="yes"/>
      <point x="33" y="575"/>
      <point x="52" y="575" type="qcurve" smooth="yes"/>
      <point x="458" y="575" type="line" smooth="yes"/>
      <point x="477" y="575"/>
    </contour>
  </outline>
</glyph>
<glyph name="braceleft" format="1">
  <advance width="491"/>
  <unicode hex="007B"/>
  <outline>
    <contour>
      <point x="464" y="-224" type="line"/>
      <point x="446" y="-229" type="line"/>
      <point x="239" y="-224"/>
      <point x="239" y="-116" type="qcurve" smooth="yes"/>
      <point x="239" y="-112"/>
      <point x="240" y="-109" type="qcurve"/>
      <point x="240" y="-103" type="line"/>
      <point x="281" y="303" type="line"/>
      <point x="77" y="338" type="line"/>
      <point x="62" y="338"/>
      <point x="62" y="343" type="qcurve" smooth="yes"/>
      <point x="62" y="371" type="line" smooth="yes"/>
      <point x="62" y="376"/>
      <point x="77" y="376" type="qcurve"/>
      <point x="281" y="410" type="line"/>
      <point x="240" y="742" type="line" smooth="yes"/>
      <point x="239" y="747"/>
      <point x="239" y="758" type="qcurve" smooth="yes"/>
      <point x="239" y="860"/>
      <point x="445" y="868" type="qcurve" smooth="yes"/>
      <point x="464" y="869"/>
      <point x="464" y="863" type="qcurve" smooth="yes"/>
      <point x="464" y="837" type="line" smooth="yes"/>
      <point x="464" y="834"/>
      <point x="447" y="832" type="qcurve"/>
      <point x="391" y="829"/>
      <point x="371" y="819" type="qcurve" smooth="yes"/>
      <point x="337" y="803"/>
      <point x="337" y="756" type="qcurve" smooth="yes"/>
      <point x="337" y="753"/>
      <point x="338" y="750" type="qcurve"/>
      <point x="338" y="745" type="line"/>
      <point x="377" y="386" type="line" smooth="yes"/>
      <point x="377" y="381"/>
      <point x="361" y="381" type="qcurve"/>
      <point x="236" y="357" type="line"/>
      <point x="361" y="334" type="line"/>
      <point x="377" y="334"/>
      <point x="377" y="329" type="qcurve" smooth="yes"/>
      <point x="338" y="-107" type="line" smooth="yes"/>
      <point x="338" y="-110"/>
      <point x="337" y="-113" type="qcurve"/>
      <point x="337" y="-118" type="line" smooth="yes"/>
      <point x="337" y="-152"/>
      <point x="354" y="-169" type="qcurve"/>
      <point x="352" y="-168" type="line"/>
      <point x="380" y="-193"/>
      <point x="446" y="-194" type="qcurve" smooth="yes"/>
      <point x="464" y="-194"/>
      <point x="464" y="-199" type="qcurve" smooth="yes"/>
    </contour>
  </outline>
</glyph>
<glyph name="bar" format="1">
  <advance width="747"/>
  <unicode hex="007C"/>
  <outline>
    <contour>
      <point x="427" y="-257" type="line" smooth="yes"/>
      <point x="427" y="-262"/>
      <point x="413" y="-262" type="qcurve" smooth="yes"/>
      <point x="360" y="-262" type="line" smooth="yes"/>
      <point x="347" y="-262"/>
      <point x="347" y="-257" type="qcurve" smooth="yes"/>
      <point x="347" y="852" type="line" smooth="yes"/>
      <point x="347" y="857"/>
      <point x="360" y="857" type="qcurve" smooth="yes"/>
      <point x="413" y="857" type="line" smooth="yes"/>
      <point x="427" y="857"/>
      <point x="427" y="852" type="qcurve" smooth="yes"/>
    </contour>
  </outline>
</glyph>
<glyph name="braceright" format="1">
  <advance width="491"/>
  <unicode hex="007D"/>
  <outline>
    <contour>
      <point x="464" y="343" type="line" smooth="yes"/>
      <point x="464" y="338"/>
      <point x="448" y="338" type="qcurve"/>
      <point x="244" y="303" type="line"/>
      <point x="284" y="-103" type="line" smooth="yes"/>
      <point x="284" y="-107"/>
      <point x="285" y="-110" type="qcurve"/>
      <point x="285" y="-116" type="line" smooth="yes"/>
      <point x="285" y="-225"/>
      <point x="80" y="-229" type="qcurve" smooth="yes"/>
      <point x="62" y="-229"/>
      <point x="62" y="-224" type="qcurve" smooth="yes"/>
      <point x="62" y="-199" type="line" smooth="yes"/>
      <point x="62" y="-194"/>
      <point x="80" y="-194" type="qcurve" smooth="yes"/>
      <point x="146" y="-192"/>
      <point x="171" y="-169" type="qcurve" smooth="yes"/>
      <point x="186" y="-155"/>
      <point x="186" y="-119" type="qcurve" smooth="yes"/>
      <point x="186" y="-107" type="line"/>
      <point x="147" y="329" type="line"/>
      <point x="151" y="333"/>
      <point x="163" y="334" type="qcurve"/>
      <point x="288" y="357" type="line"/>
      <point x="163" y="381" type="line"/>
      <point x="145" y="382"/>
      <point x="147" y="386" type="qcurve"/>
      <point x="186" y="756" type="line"/>
      <point x="186" y="802"/>
      <point x="153" y="819" type="qcurve" smooth="yes"/>
      <point x="133" y="829"/>
      <point x="79" y="832" type="qcurve"/>
      <point x="62" y="834"/>
      <point x="62" y="837" type="qcurve" smooth="yes"/>
      <point x="62" y="863" type="line" smooth="yes"/>
      <point x="62" y="869"/>
      <point x="81" y="868" type="qcurve" smooth="yes"/>
      <point x="285" y="860"/>
      <point x="285" y="757" type="qcurve" smooth="yes"/>
      <point x="285" y="747"/>
      <point x="284" y="742" type="qcurve" smooth="yes"/>
      <point x="244" y="410" type="line"/>
      <point x="448" y="376" type="line"/>
      <point x="464" y="376"/>
      <point x="464" y="371" type="qcurve" smooth="yes"/>
    </contour>
  </outline>
</glyph>
<glyph name="asciitilde" format="1">
  <advance width="938"/>
  <unicode hex="007E"/>
  <outline>
    <contour>
      <point x="916" y="393" type="qcurve"/>
      <point x="907" y="358" type="line"/>
      <point x="903" y="354"/>
      <point x="895" y="354" type="qcurve"/>
      <point x="768" y="306"/>
      <point x="667" y="306" type="qcurve" smooth="yes"/>
      <point x="594" y="306"/>
      <point x="454" y="350" type="qcurve" smooth="yes"/>
      <point x="453" y="350"/>
      <point x="443" y="354"/>
      <point x="440" y="355" type="qcurve"/>
      <point x="441" y="355" type="line"/>
      <point x="408" y="367"/>
      <point x="352" y="380" type="qcurve" smooth="yes"/>
      <point x="336" y="383"/>
      <point x="324" y="383" type="qcurve" smooth="yes"/>
      <point x="310" y="383" type="line" smooth="yes"/>
      <point x="230" y="383"/>
      <point x="83" y="328" type="qcurve" smooth="yes"/>
      <point x="77" y="326"/>
      <point x="66" y="328" type="qcurve" smooth="yes"/>
      <point x="56" y="330"/>
      <point x="58" y="334" type="qcurve" smooth="yes"/>
      <point x="68" y="371" type="line"/>
      <point x="71" y="374"/>
      <point x="79" y="374" type="qcurve"/>
      <point x="208" y="423"/>
      <point x="308" y="423" type="qcurve" smooth="yes"/>
      <point x="312" y="423" type="line" smooth="yes"/>
      <point x="382" y="423"/>
      <point x="496" y="383" type="qcurve" smooth="yes"/>
      <point x="532" y="370"/>
      <point x="585" y="357" type="qcurve" smooth="yes"/>
      <point x="632" y="345"/>
      <point x="652" y="345" type="qcurve" smooth="yes"/>
      <point x="664" y="345" type="line" smooth="yes"/>
      <point x="745" y="345"/>
      <point x="892" y="398" type="qcurve"/>
      <point x="903" y="397"/>
    </contour>
  </outline>
</glyph>
<glyph name="exclamdown" format="1">
  <advance width="179"/>
  <unicode hex="00A1"/>
  <outline>
    <contour>
      <point x="135" y="578" type="line" smooth="yes"/>
      <point x="135" y="573"/>
      <point x="122" y="573" type="qcurve" smooth="yes"/>
      <point x="83" y="573" type="line" smooth="yes"/>
      <point x="71" y="573"/>
      <point x="71" y="578" type="qcurve" smooth="yes"/>
      <point x="71" y="614" type="line" smooth="yes"/>
      <point x="71" y="619"/>
      <point x="83" y="619" type="qcurve" smooth="yes"/>
      <point x="122" y="619" type="line" smooth="yes"/>
      <point x="135" y="619"/>
      <point x="135" y="614" type="qcurve" smooth="yes"/>
    </contour>
    <contour>
      <point x="137" y="-181" type="line" smooth="yes"/>
      <point x="137" y="-186"/>
      <point x="125" y="-186" type="qcurve" smooth="yes"/>
      <point x="82" y="-186" type="line" smooth="yes"/>
      <point x="69" y="-186"/>
      <point x="69" y="-181" type="qcurve" smooth="yes"/>
      <point x="69" y="495" type="line" smooth="yes"/>
      <point x="69" y="500"/>
      <point x="82" y="500" type="qcurve" smooth="yes"/>
      <point x="125" y="500" type="line" smooth="yes"/>
      <point x="137" y="500"/>
      <point x="137" y="495" type="qcurve" smooth="yes"/>
    </contour>
  </outline>
</glyph>
<glyph name="cent" format="1">
  <advance width="502"/>
  <unicode hex="00A2"/>
  <outline>
    <contour>
      <point x="485" y="228" type="line" smooth="yes"/>
      <point x="485" y="119"/>
      <point x="328" y="106" type="qcurve"/>
      <point x="328" y="45" type="line" smooth="yes"/>
      <point x="328" y="40"/>
      <point x="310" y="40" type="qcurve" smooth="yes"/>
      <point x="248" y="40" type="line" smooth="yes"/>
      <point x="230" y="40"/>
      <point x="230" y="45" type="qcurve" smooth="yes"/>
      <point x="230" y="106" type="line"/>
      <point x="71" y="120"/>
      <point x="71" y="228" type="qcurve" smooth="yes"/>
      <point x="71" y="558" type="line" smooth="yes"/>
      <point x="71" y="666"/>
      <point x="230" y="681" type="qcurve"/>
      <point x="230" y="761" type="line" smooth="yes"/>
      <point x="230" y="765"/>
      <point x="248" y="765" type="qcurve" smooth="yes"/>
      <point x="310" y="765" type="line" smooth="yes"/>
      <point x="328" y="765"/>
      <point x="328" y="761" type="qcurve" smooth="yes"/>
      <point x="328" y="681" type="line"/>
      <point x="485" y="666"/>
      <point x="485" y="558" type="qcurve" smooth="yes"/>
      <point x="485" y="502" type="line" smooth="yes"/>
      <point x="485" y="497"/>
      <point x="467" y="497" type="qcurve" smooth="yes"/>
      <point x="405" y="497" type="line" smooth="yes"/>
      <point x="387" y="497"/>
      <point x="387" y="502" type="qcurve" smooth="yes"/>
      <point x="387" y="560" type="line" smooth="yes"/>
      <point x="387" y="626"/>
      <point x="328" y="643" type="qcurve"/>
      <point x="328" y="143" type="line"/>
      <point x="387" y="158"/>
      <point x="387" y="226" type="qcurve" smooth="yes"/>
      <point x="387" y="289" type="line" smooth="yes"/>
      <point x="387" y="294"/>
      <point x="405" y="294" type="qcurve" smooth="yes"/>
      <point x="467" y="294" type="line" smooth="yes"/>
      <point x="485" y="294"/>
      <point x="485" y="289" type="qcurve" smooth="yes"/>
    </contour>
    <contour>
      <point x="230" y="142" type="qcurve"/>
      <point x="230" y="643" type="line"/>
      <point x="168" y="626"/>
      <point x="168" y="560" type="qcurve" smooth="yes"/>
      <point x="168" y="226" type="line" smooth="yes"/>
      <point x="168" y="157"/>
    </contour>
  </outline>
</glyph>
<glyph name="sterling" format="1">
  <advance width="455"/>
  <unicode hex="00A3"/>
  <outline>
    <contour>
      <point x="492" y="5" type="line" smooth="yes"/>
      <point x="492" y="0"/>
      <point x="474" y="0" type="qcurve" smooth="yes"/>
      <point x="94" y="0" type="line" smooth="yes"/>
      <point x="76" y="0"/>
      <point x="76" y="5" type="qcurve" smooth="yes"/>
      <point x="76" y="318" type="line"/>
      <point x="15" y="318" type="line" smooth="yes"/>
      <point x="-4" y="318"/>
      <point x="-4" y="323" type="qcurve" smooth="yes"/>
      <point x="-4" y="358" type="line" smooth="yes"/>
      <point x="-4" y="362"/>
      <point x="15" y="362" type="qcurve" smooth="yes"/>
      <point x="76" y="362" type="line"/>
      <point x="76" y="456" type="line"/>
      <point x="15" y="456" type="line" smooth="yes"/>
      <point x="-4" y="456"/>
      <point x="-4" y="461" type="qcurve" smooth="yes"/>
      <point x="-4" y="495" type="line" smooth="yes"/>
      <point x="-4" y="500"/>
      <point x="15" y="500" type="qcurve" smooth="yes"/>
      <point x="76" y="500" type="line"/>
      <point x="76" y="799" type="line" smooth="yes"/>
      <point x="76" y="804"/>
      <point x="94" y="804" type="qcurve" smooth="yes"/>
      <point x="157" y="804" type="line" smooth="yes"/>
      <point x="176" y="804"/>
      <point x="176" y="799" type="qcurve" smooth="yes"/>
      <point x="176" y="500" type="line"/>
      <point x="405" y="500" type="line" smooth="yes"/>
      <point x="424" y="500"/>
      <point x="424" y="495" type="qcurve" smooth="yes"/>
      <point x="424" y="461" type="line" smooth="yes"/>
      <point x="424" y="456"/>
      <point x="405" y="456" type="qcurve" smooth="yes"/>
      <point x="176" y="456" type="line"/>
      <point x="176" y="362" type="line"/>
      <point x="405" y="362" type="line" smooth="yes"/>
      <point x="424" y="362"/>
      <point x="424" y="358" type="qcurve" smooth="yes"/>
      <point x="424" y="323" type="line" smooth="yes"/>
      <point x="424" y="318"/>
      <point x="405" y="318" type="qcurve" smooth="yes"/>
      <point x="176" y="318" type="line"/>
      <point x="176" y="36" type="line"/>
      <point x="474" y="36" type="line" smooth="yes"/>
      <point x="492" y="36"/>
      <point x="492" y="31" type="qcurve" smooth="yes"/>
    </contour>
  </outline>
</glyph>
<glyph name="currency" format="1">
  <advance width="549"/>
  <unicode hex="00A4"/>
  <outline>
    <contour>
      <point x="542" y="118" type="line" smooth="yes"/>
      <point x="542" y="-8"/>
      <point x="329" y="-8" type="qcurve" smooth="yes"/>
      <point x="117" y="-8"/>
      <point x="117" y="118" type="qcurve" smooth="yes"/>
      <point x="117" y="337" type="line"/>
      <point x="24" y="337" type="line" smooth="yes"/>
      <point x="6" y="337"/>
      <point x="6" y="342" type="qcurve" smooth="yes"/>
      <point x="6" y="376" type="line" smooth="yes"/>
      <point x="6" y="381"/>
      <point x="24" y="381" type="qcurve" smooth="yes"/>
      <point x="117" y="381" type="line"/>
      <point x="117" y="474" type="line"/>
      <point x="76" y="474" type="line" smooth="yes"/>
      <point x="58" y="474"/>
      <point x="58" y="479" type="qcurve" smooth="yes"/>
      <point x="58" y="514" type="line" smooth="yes"/>
      <point x="58" y="519"/>
      <point x="76" y="519" type="qcurve" smooth="yes"/>
      <point x="117" y="519" type="line"/>
      <point x="117" y="687" type="line" smooth="yes"/>
      <point x="117" y="811"/>
      <point x="329" y="811" type="qcurve" smooth="yes"/>
      <point x="542" y="811"/>
      <point x="542" y="687" type="qcurve" smooth="yes"/>
      <point x="542" y="629" type="line" smooth="yes"/>
      <point x="542" y="624"/>
      <point x="523" y="624" type="qcurve" smooth="yes"/>
      <point x="460" y="624" type="line" smooth="yes"/>
      <point x="441" y="624"/>
      <point x="441" y="629" type="qcurve" smooth="yes"/>
      <point x="441" y="689" type="line" smooth="yes"/>
      <point x="441" y="776"/>
      <point x="329" y="776" type="qcurve" smooth="yes"/>
      <point x="218" y="776"/>
      <point x="218" y="689" type="qcurve" smooth="yes"/>
      <point x="218" y="519" type="line"/>
      <point x="460" y="519" type="line" smooth="yes"/>
      <point x="478" y="519"/>
      <point x="478" y="514" type="qcurve" smooth="yes"/>
      <point x="478" y="479" type="line" smooth="yes"/>
      <point x="478" y="474"/>
      <point x="460" y="474" type="qcurve" smooth="yes"/>
      <point x="218" y="474" type="line"/>
      <point x="218" y="381" type="line"/>
      <point x="409" y="381" type="line" smooth="yes"/>
      <point x="428" y="381"/>
      <point x="428" y="376" type="qcurve" smooth="yes"/>
      <point x="428" y="342" type="line" smooth="yes"/>
      <point x="428" y="337"/>
      <point x="409" y="337" type="qcurve" smooth="yes"/>
      <point x="218" y="337" type="line"/>
      <point x="218" y="116" type="line" smooth="yes"/>
      <point x="218" y="27"/>
      <point x="329" y="27" type="qcurve" smooth="yes"/>
      <point x="441" y="27"/>
      <point x="441" y="116" type="qcurve" smooth="yes"/>
      <point x="441" y="179" type="line" smooth="yes"/>
      <point x="441" y="184"/>
      <point x="460" y="184" type="qcurve" smooth="yes"/>
      <point x="523" y="184" type="line" smooth="yes"/>
      <point x="542" y="184"/>
      <point x="542" y="179" type="qcurve" smooth="yes"/>
    </contour>
  </outline>
</glyph>
<glyph name="yen" format="1">
  <advance width="488"/>
  <unicode hex="00A5"/>
  <outline>
    <contour>
      <point x="526" y="799" type="qcurve"/>
      <point x="523" y="796" type="line"/>
      <point x="314" y="412" type="line"/>
      <point x="314" y="371" type="line"/>
      <point x="462" y="371" type="line" smooth="yes"/>
      <point x="481" y="371"/>
      <point x="481" y="366" type="qcurve" smooth="yes"/>
      <point x="481" y="332" type="line" smooth="yes"/>
      <point x="481" y="327"/>
      <point x="462" y="327" type="qcurve" smooth="yes"/>
      <point x="314" y="327" type="line"/>
      <point x="314" y="261" type="line"/>
      <point x="462" y="261" type="line" smooth="yes"/>
      <point x="481" y="261"/>
      <point x="481" y="256" type="qcurve" smooth="yes"/>
      <point x="481" y="221" type="line" smooth="yes"/>
      <point x="481" y="216"/>
      <point x="462" y="216" type="qcurve" smooth="yes"/>
      <point x="314" y="216" type="line"/>
      <point x="314" y="5" type="line" smooth="yes"/>
      <point x="314" y="0"/>
      <point x="295" y="0" type="qcurve" smooth="yes"/>
      <point x="232" y="0" type="line" smooth="yes"/>
      <point x="214" y="0"/>
      <point x="214" y="5" type="qcurve" smooth="yes"/>
      <point x="214" y="216" type="line"/>
      <point x="69" y="216" type="line" smooth="yes"/>
      <point x="50" y="216"/>
      <point x="50" y="221" type="qcurve" smooth="yes"/>
      <point x="50" y="256" type="line" smooth="yes"/>
      <point x="50" y="261"/>
      <point x="69" y="261" type="qcurve" smooth="yes"/>
      <point x="214" y="261" type="line"/>
      <point x="214" y="327" type="line"/>
      <point x="69" y="327" type="line" smooth="yes"/>
      <point x="50" y="327"/>
      <point x="50" y="332" type="qcurve" smooth="yes"/>
      <point x="50" y="366" type="line" smooth="yes"/>
      <point x="50" y="371"/>
      <point x="69" y="371" type="qcurve" smooth="yes"/>
      <point x="214" y="371" type="line"/>
      <point x="214" y="414" type="line"/>
      <point x="216" y="412" type="line"/>
      <point x="8" y="797" type="line"/>
      <point x="5" y="798"/>
      <point x="5" y="800" type="qcurve" smooth="yes"/>
      <point x="5" y="804"/>
      <point x="24" y="804" type="qcurve" smooth="yes"/>
      <point x="93" y="804" type="line" smooth="yes"/>
      <point x="104" y="804"/>
      <point x="110" y="801" type="qcurve"/>
      <point x="266" y="493" type="line"/>
      <point x="428" y="801" type="line"/>
      <point x="434" y="804"/>
      <point x="444" y="804" type="qcurve" smooth="yes"/>
      <point x="507" y="804" type="line" smooth="yes"/>
      <point x="526" y="804"/>
    </contour>
  </outline>
</glyph>
<glyph name="brokenbar" format="1">
  <advance width="325"/>
  <unicode hex="00A6"/>
  <outline>
    <contour>
      <point x="215" y="370" type="line" smooth="yes"/>
      <point x="215" y="365"/>
      <point x="201" y="365" type="qcurve" smooth="yes"/>
      <point x="148" y="365" type="line" smooth="yes"/>
      <point x="135" y="365"/>
      <point x="135" y="370" type="qcurve" smooth="yes"/>
      <point x="135" y="779" type="line" smooth="yes"/>
      <point x="135" y="784"/>
      <point x="148" y="784" type="qcurve" smooth="yes"/>
      <point x="201" y="784" type="line" smooth="yes"/>
      <point x="215" y="784"/>
      <point x="215" y="779" type="qcurve" smooth="yes"/>
    </contour>
    <contour>
      <point x="215" y="-184" type="line" smooth="yes"/>
      <point x="215" y="-189"/>
      <point x="201" y="-189" type="qcurve" smooth="yes"/>
      <point x="148" y="-189" type="line" smooth="yes"/>
      <point x="135" y="-189"/>
      <point x="135" y="-184" type="qcurve" smooth="yes"/>
      <point x="135" y="225" type="line" smooth="yes"/>
      <point x="135" y="230"/>
      <point x="148" y="230" type="qcurve" smooth="yes"/>
      <point x="201" y="230" type="line" smooth="yes"/>
      <point x="215" y="230"/>
      <point x="215" y="225" type="qcurve" smooth="yes"/>
    </contour>
  </outline>
</glyph>
<glyph name="section" format="1">
  <advance width="520"/>
  <unicode hex="00A7"/>
  <outline>
    <contour>
      <point x="487" y="26" type="line"/>
      <point x="485" y="-4" type="line"/>
      <point x="485" y="-55" type="line" smooth="yes"/>
      <point x="485" y="-181"/>
      <point x="281" y="-181" type="qcurve" smooth="yes"/>
      <point x="71" y="-181"/>
      <point x="71" y="-55" type="qcurve" smooth="yes"/>
      <point x="71" y="1" type="line" smooth="yes"/>
      <point x="71" y="6"/>
      <point x="89" y="6" type="qcurve" smooth="yes"/>
      <point x="153" y="6" type="line" smooth="yes"/>
      <point x="172" y="6"/>
      <point x="172" y="1" type="qcurve" smooth="yes"/>
      <point x="172" y="-57" type="line" smooth="yes"/>
      <point x="172" y="-144"/>
      <point x="390" y="-144"/>
      <point x="390" y="-57" type="qcurve" smooth="yes"/>
      <point x="390" y="48" type="line" smooth="yes"/>
      <point x="390" y="118"/>
      <point x="281" y="118" type="qcurve" smooth="yes"/>
      <point x="132" y="118"/>
      <point x="92" y="179" type="qcurve" smooth="yes"/>
      <point x="71" y="211"/>
      <point x="71" y="247" type="qcurve" smooth="yes"/>
      <point x="71" y="292" type="line" smooth="yes"/>
      <point x="71" y="360"/>
      <point x="159" y="387" type="qcurve"/>
      <point x="86" y="409"/>
      <point x="74" y="462" type="qcurve"/>
      <point x="71" y="464"/>
      <point x="71" y="465" type="qcurve" smooth="yes"/>
      <point x="71" y="578" type="line" smooth="yes"/>
      <point x="71" y="703"/>
      <point x="276" y="703" type="qcurve" smooth="yes"/>
      <point x="485" y="703"/>
      <point x="485" y="578" type="qcurve" smooth="yes"/>
      <point x="485" y="521" type="line" smooth="yes"/>
      <point x="485" y="516"/>
      <point x="467" y="516" type="qcurve" smooth="yes"/>
      <point x="405" y="516" type="line" smooth="yes"/>
      <point x="387" y="516"/>
      <point x="387" y="521" type="qcurve" smooth="yes"/>
      <point x="387" y="580" type="line" smooth="yes"/>
      <point x="387" y="667"/>
      <point x="276" y="667" type="qcurve" smooth="yes"/>
      <point x="168" y="667"/>
      <point x="168" y="580" type="qcurve" smooth="yes"/>
      <point x="168" y="475" type="line" smooth="yes"/>
      <point x="168" y="425"/>
      <point x="215" y="414" type="qcurve"/>
      <point x="213" y="414" type="line"/>
      <point x="232" y="411"/>
      <point x="277" y="407" type="qcurve" smooth="yes"/>
      <point x="341" y="401" type="line" smooth="yes"/>
      <point x="403" y="395"/>
      <point x="440" y="367" type="qcurve" smooth="yes"/>
      <point x="485" y="334"/>
      <point x="485" y="277" type="qcurve" smooth="yes"/>
      <point x="485" y="231" type="line" smooth="yes"/>
      <point x="485" y="163"/>
      <point x="397" y="136" type="qcurve"/>
      <point x="471" y="112"/>
      <point x="483" y="60" type="qcurve"/>
      <point x="485" y="60"/>
      <point x="485" y="58" type="qcurve" smooth="yes"/>
      <point x="485" y="44" type="line"/>
      <point x="487" y="36" type="line"/>
    </contour>
    <contour>
      <point x="387" y="244" type="qcurve" smooth="yes"/>
      <point x="387" y="270" type="line"/>
      <point x="385" y="272"/>
      <point x="385" y="273" type="qcurve" smooth="yes"/>
      <point x="385" y="283" type="line" smooth="yes"/>
      <point x="385" y="325"/>
      <point x="371" y="342" type="qcurve"/>
      <point x="374" y="341" type="line"/>
      <point x="343" y="366"/>
      <point x="281" y="366" type="qcurve" smooth="yes"/>
      <point x="172" y="366"/>
      <point x="172" y="278" type="qcurve" smooth="yes"/>
      <point x="172" y="241" type="line" smooth="yes"/>
      <point x="172" y="194"/>
      <point x="183" y="183" type="qcurve"/>
      <point x="215" y="157"/>
      <point x="276" y="157" type="qcurve" smooth="yes"/>
      <point x="387" y="157"/>
    </contour>
  </outline>
</glyph>
<glyph name="dieresis" format="1">
  <advance width="302"/>
  <unicode hex="00A8"/>
  <outline>
    <contour>
      <point x="298" y="545" type="line" smooth="yes"/>
      <point x="298" y="541"/>
      <point x="281" y="541" type="qcurve" smooth="yes"/>
      <point x="226" y="541" type="line" smooth="yes"/>
      <point x="208" y="541"/>
      <point x="208" y="545" type="qcurve" smooth="yes"/>
      <point x="208" y="574" type="line" smooth="yes"/>
      <point x="208" y="578"/>
      <point x="226" y="578" type="qcurve" smooth="yes"/>
      <point x="281" y="578" type="line" smooth="yes"/>
      <point x="298" y="578"/>
      <point x="298" y="574" type="qcurve" smooth="yes"/>
    </contour>
    <contour>
      <point x="128" y="545" type="line" smooth="yes"/>
      <point x="128" y="541"/>
      <point x="111" y="541" type="qcurve" smooth="yes"/>
      <point x="54" y="541" type="line" smooth="yes"/>
      <point x="36" y="541"/>
      <point x="36" y="545" type="qcurve" smooth="yes"/>
      <point x="36" y="574" type="line" smooth="yes"/>
      <point x="36" y="578"/>
      <point x="54" y="578" type="qcurve" smooth="yes"/>
      <point x="111" y="578" type="line" smooth="yes"/>
      <point x="128" y="578"/>
      <point x="128" y="574" type="qcurve" smooth="yes"/>
    </contour>
  </outline>
</glyph>
<glyph name="copyright" format="1">
  <advance width="1807"/>
  <unicode hex="00A9"/>
  <outline>
    <contour>
      <point x="1555" y="392" type="qcurve" smooth="yes"/>
      <point x="1555" y="183"/>
      <point x="1328" y="91" type="qcurve" smooth="yes"/>
      <point x="1170" y="27"/>
      <point x="923" y="27" type="qcurve" smooth="yes"/>
      <point x="681" y="27"/>
      <point x="519" y="92" type="qcurve" smooth="yes"/>
      <point x="291" y="184"/>
      <point x="291" y="392" type="qcurve" smooth="yes"/>
      <point x="291" y="601"/>
      <point x="518" y="693" type="qcurve" smooth="yes"/>
      <point x="674" y="757"/>
      <point x="923" y="757" type="qcurve" smooth="yes"/>
      <point x="1555" y="757"/>
    </contour>
    <contour>
      <point x="1448" y="392" type="qcurve" smooth="yes"/>
      <point x="1448" y="712"/>
      <point x="923" y="712" type="qcurve" smooth="yes"/>
      <point x="397" y="712"/>
      <point x="397" y="392" type="qcurve" smooth="yes"/>
      <point x="397" y="207"/>
      <point x="581" y="128" type="qcurve" smooth="yes"/>
      <point x="716" y="70"/>
      <point x="923" y="70" type="qcurve" smooth="yes"/>
      <point x="1448" y="70"/>
    </contour>
    <contour>
      <point x="1144" y="254" type="line" smooth="yes"/>
      <point x="1144" y="129"/>
      <point x="921" y="129" type="qcurve" smooth="yes"/>
      <point x="702" y="129"/>
      <point x="702" y="254" type="qcurve" smooth="yes"/>
      <point x="702" y="547" type="line" smooth="yes"/>
      <point x="702" y="672"/>
      <point x="921" y="672" type="qcurve" smooth="yes"/>
      <point x="1144" y="672"/>
      <point x="1144" y="547" type="qcurve" smooth="yes"/>
      <point x="1144" y="490" type="line" smooth="yes"/>
      <point x="1144" y="485"/>
      <point x="1124" y="485" type="qcurve" smooth="yes"/>
      <point x="1059" y="485" type="line" smooth="yes"/>
      <point x="1039" y="485"/>
      <point x="1039" y="490" type="qcurve" smooth="yes"/>
      <point x="1039" y="548" type="line" smooth="yes"/>
      <point x="1039" y="636"/>
      <point x="921" y="636" type="qcurve" smooth="yes"/>
      <point x="806" y="636"/>
      <point x="806" y="548" type="qcurve" smooth="yes"/>
      <point x="806" y="252" type="line" smooth="yes"/>
      <point x="806" y="164"/>
      <point x="921" y="164" type="qcurve" smooth="yes"/>
      <point x="1039" y="164"/>
      <point x="1039" y="252" type="qcurve" smooth="yes"/>
      <point x="1039" y="315" type="line" smooth="yes"/>
      <point x="1039" y="320"/>
      <point x="1059" y="320" type="qcurve" smooth="yes"/>
      <point x="1124" y="320" type="line" smooth="yes"/>
      <point x="1144" y="320"/>
      <point x="1144" y="315" type="qcurve" smooth="yes"/>
    </contour>
  </outline>
</glyph>
<glyph name="ordfeminine" format="1">
  <advance width="520"/>
  <unicode hex="00AA"/>
  <outline>
    <contour>
      <point x="485" y="454" type="line" smooth="yes"/>
      <point x="485" y="433"/>
      <point x="481" y="421" type="qcurve"/>
      <point x="481" y="338" type="line" smooth="yes"/>
      <point x="481" y="333"/>
      <point x="463" y="333" type="qcurve" smooth="yes"/>
      <point x="401" y="333" type="line" smooth="yes"/>
      <point x="383" y="333"/>
      <point x="383" y="338" type="qcurve" smooth="yes"/>
      <point x="383" y="340" type="line"/>
      <point x="339" y="329"/>
      <point x="275" y="329" type="qcurve" smooth="yes"/>
      <point x="71" y="329"/>
      <point x="71" y="454" type="qcurve" smooth="yes"/>
      <point x="71" y="493" type="line" smooth="yes"/>
      <point x="71" y="617"/>
      <point x="275" y="617" type="qcurve" smooth="yes"/>
      <point x="337" y="617"/>
      <point x="387" y="606" type="qcurve"/>
      <point x="387" y="672" type="line" smooth="yes"/>
      <point x="387" y="758"/>
      <point x="275" y="758" type="qcurve" smooth="yes"/>
      <point x="168" y="758"/>
      <point x="168" y="672" type="qcurve" smooth="yes"/>
      <point x="168" y="662" type="line" smooth="yes"/>
      <point x="168" y="657"/>
      <point x="150" y="657" type="qcurve" smooth="yes"/>
      <point x="89" y="657" type="line" smooth="yes"/>
      <point x="71" y="657"/>
      <point x="71" y="662" type="qcurve" smooth="yes"/>
      <point x="71" y="670" type="line" smooth="yes"/>
      <point x="71" y="794"/>
      <point x="275" y="794" type="qcurve" smooth="yes"/>
      <point x="485" y="794"/>
      <point x="485" y="670" type="qcurve" smooth="yes"/>
    </contour>
    <contour>
      <point x="384" y="426" type="qcurve"/>
      <point x="383" y="425" type="line"/>
      <point x="383" y="520" type="line"/>
      <point x="374" y="581"/>
      <point x="275" y="581" type="qcurve" smooth="yes"/>
      <point x="168" y="581"/>
      <point x="168" y="495" type="qcurve" smooth="yes"/>
      <point x="168" y="451" type="line" smooth="yes"/>
      <point x="168" y="393"/>
      <point x="197" y="379" type="qcurve"/>
      <point x="222" y="364"/>
      <point x="275" y="364" type="qcurve" smooth="yes"/>
      <point x="370" y="364"/>
    </contour>
  </outline>
</glyph>
<glyph name="guillemotleft" format="1">
  <advance width="915"/>
  <unicode hex="00AB"/>
  <outline>
    <contour>
      <point x="858" y="142" type="line" smooth="yes"/>
      <point x="858" y="136"/>
      <point x="833" y="137" type="qcurve"/>
      <point x="402" y="314" type="line"/>
      <point x="389" y="317"/>
      <point x="389" y="319" type="qcurve" smooth="yes"/>
      <point x="389" y="341" type="line" smooth="yes"/>
      <point x="389" y="343"/>
      <point x="402" y="346" type="qcurve"/>
      <point x="833" y="522" type="line"/>
      <point x="858" y="523"/>
      <point x="858" y="518" type="qcurve" smooth="yes"/>
      <point x="858" y="480" type="line" smooth="yes"/>
      <point x="858" y="477"/>
      <point x="847" y="475" type="qcurve"/>
      <point x="507" y="330" type="line"/>
      <point x="847" y="184" type="line"/>
      <point x="858" y="182"/>
      <point x="858" y="179" type="qcurve" smooth="yes"/>
    </contour>
    <contour>
      <point x="579" y="142" type="line" smooth="yes"/>
      <point x="579" y="136"/>
      <point x="554" y="137" type="qcurve"/>
      <point x="119" y="314" type="line"/>
      <point x="106" y="317"/>
      <point x="106" y="319" type="qcurve" smooth="yes"/>
      <point x="106" y="341" type="line" smooth="yes"/>
      <point x="106" y="343"/>
      <point x="119" y="346" type="qcurve"/>
      <point x="554" y="522" type="line"/>
      <point x="579" y="523"/>
      <point x="579" y="518" type="qcurve" smooth="yes"/>
      <point x="579" y="480" type="line" smooth="yes"/>
      <point x="579" y="478"/>
      <point x="568" y="475" type="qcurve"/>
      <point x="228" y="330" type="line"/>
      <point x="568" y="184" type="line"/>
      <point x="579" y="181"/>
      <point x="579" y="179" type="qcurve" smooth="yes"/>
    </contour>
  </outline>
</glyph>
<glyph name="logicalnot" format="1">
  <advance width="949"/>
  <unicode hex="00AC"/>
  <outline>
    <contour>
      <point x="919" y="249" type="line" smooth="yes"/>
      <point x="919" y="245"/>
      <point x="900" y="245" type="qcurve" smooth="yes"/>
      <point x="839" y="245" type="line" smooth="yes"/>
      <point x="819" y="245"/>
      <point x="819" y="249" type="qcurve" smooth="yes"/>
      <point x="819" y="330" type="line"/>
      <point x="88" y="330" type="line" smooth="yes"/>
      <point x="69" y="330"/>
      <point x="69" y="334" type="qcurve" smooth="yes"/>
      <point x="69" y="366" type="line" smooth="yes"/>
      <point x="69" y="371"/>
      <point x="88" y="371" type="qcurve" smooth="yes"/>
      <point x="900" y="371" type="line" smooth="yes"/>
      <point x="919" y="371"/>
      <point x="919" y="366" type="qcurve" smooth="yes"/>
    </contour>
  </outline>
</glyph>
<glyph name="sfthyphen" format="1">
  <advance width="489"/>
  <unicode hex="00AD"/>
  <outline>
    <contour>
      <point x="455" y="249" type="line" smooth="yes"/>
      <point x="455" y="245"/>
      <point x="437" y="245" type="qcurve" smooth="yes"/>
      <point x="89" y="245" type="line" smooth="yes"/>
      <point x="71" y="245"/>
      <point x="71" y="249" type="qcurve" smooth="yes"/>
      <point x="71" y="272" type="line" smooth="yes"/>
      <point x="71" y="276"/>
      <point x="89" y="276" type="qcurve" smooth="yes"/>
      <point x="437" y="276" type="line" smooth="yes"/>
      <point x="455" y="276"/>
      <point x="455" y="272" type="qcurve" smooth="yes"/>
    </contour>
  </outline>
</glyph>
<glyph name="registered" format="1">
  <advance width="1807"/>
  <unicode hex="00AE"/>
  <outline>
    <contour>
      <point x="1555" y="392" type="qcurve" smooth="yes"/>
      <point x="1555" y="183"/>
      <point x="1328" y="91" type="qcurve" smooth="yes"/>
      <point x="1170" y="27"/>
      <point x="923" y="27" type="qcurve" smooth="yes"/>
      <point x="681" y="27"/>
      <point x="519" y="92" type="qcurve" smooth="yes"/>
      <point x="291" y="184"/>
      <point x="291" y="392" type="qcurve" smooth="yes"/>
      <point x="291" y="601"/>
      <point x="518" y="693" type="qcurve" smooth="yes"/>
      <point x="674" y="757"/>
      <point x="923" y="757" type="qcurve" smooth="yes"/>
      <point x="1555" y="757"/>
    </contour>
    <contour>
      <point x="1448" y="392" type="qcurve" smooth="yes"/>
      <point x="1448" y="712"/>
      <point x="923" y="712" type="qcurve" smooth="yes"/>
      <point x="397" y="712"/>
      <point x="397" y="392" type="qcurve" smooth="yes"/>
      <point x="397" y="207"/>
      <point x="581" y="128" type="qcurve" smooth="yes"/>
      <point x="716" y="70"/>
      <point x="923" y="70" type="qcurve" smooth="yes"/>
      <point x="1448" y="70"/>
    </contour>
    <contour>
      <point x="1161" y="247" type="line" smooth="yes"/>
      <point x="1161" y="244"/>
      <point x="1157" y="243" type="qcurve"/>
      <point x="1157" y="134" type="line" smooth="yes"/>
      <point x="1157" y="129"/>
      <point x="1138" y="129" type="qcurve" smooth="yes"/>
      <point x="1076" y="129" type="line" smooth="yes"/>
      <point x="1057" y="129"/>
      <point x="1057" y="134" type="qcurve" smooth="yes"/>
      <point x="1057" y="300" type="line" smooth="yes"/>
      <point x="1057" y="350"/>
      <point x="1036" y="361" type="qcurve" smooth="yes"/>
      <point x="996" y="382"/>
      <point x="919" y="382" type="qcurve" smooth="yes"/>
      <point x="824" y="382" type="line"/>
      <point x="824" y="134" type="line" smooth="yes"/>
      <point x="824" y="129"/>
      <point x="805" y="129" type="qcurve" smooth="yes"/>
      <point x="739" y="129" type="line" smooth="yes"/>
      <point x="719" y="129"/>
      <point x="719" y="134" type="qcurve" smooth="yes"/>
      <point x="719" y="652" type="line" smooth="yes"/>
      <point x="719" y="657"/>
      <point x="739" y="657" type="qcurve" smooth="yes"/>
      <point x="934" y="657" type="line" smooth="yes"/>
      <point x="1068" y="657"/>
      <point x="1116" y="626" type="qcurve"/>
      <point x="1161" y="593"/>
      <point x="1161" y="529" type="qcurve" smooth="yes"/>
      <point x="1161" y="500" type="line" smooth="yes"/>
      <point x="1161" y="427"/>
      <point x="1055" y="403" type="qcurve"/>
      <point x="1161" y="378"/>
      <point x="1161" y="302" type="qcurve" smooth="yes"/>
    </contour>
    <contour>
      <point x="1057" y="503" type="qcurve" smooth="yes"/>
      <point x="1057" y="540" type="line" smooth="yes"/>
      <point x="1057" y="600"/>
      <point x="1018" y="613" type="qcurve"/>
      <point x="1019" y="613" type="line"/>
      <point x="995" y="620"/>
      <point x="919" y="620" type="qcurve" smooth="yes"/>
      <point x="824" y="620" type="line"/>
      <point x="824" y="421" type="line"/>
      <point x="919" y="421" type="line" smooth="yes"/>
      <point x="990" y="421"/>
      <point x="1018" y="430" type="qcurve" smooth="yes"/>
      <point x="1057" y="444"/>
    </contour>
  </outline>
</glyph>
<glyph name="macron" format="1">
  <advance width="427"/>
  <unicode hex="00AF"/>
  <outline>
    <contour>
      <point x="419" y="539" type="line" smooth="yes"/>
      <point x="419" y="532"/>
      <point x="385" y="532" type="qcurve" smooth="yes"/>
      <point x="109" y="532" type="line" smooth="yes"/>
      <point x="75" y="532"/>
      <point x="75" y="539" type="qcurve" smooth="yes"/>
      <point x="75" y="559" type="line" smooth="yes"/>
      <point x="75" y="566"/>
      <point x="109" y="566" type="qcurve" smooth="yes"/>
      <point x="385" y="566" type="line" smooth="yes"/>
      <point x="419" y="566"/>
      <point x="419" y="559" type="qcurve" smooth="yes"/>
    </contour>
  </outline>
</glyph>
<glyph name="degree" format="1">
  <advance width="691"/>
  <unicode hex="00B0"/>
  <outline>
    <contour>
      <point x="657" y="628" type="qcurve" smooth="yes"/>
      <point x="657" y="570"/>
      <point x="565" y="522" type="qcurve" smooth="yes"/>
      <point x="486" y="480"/>
      <point x="363" y="480" type="qcurve" smooth="yes"/>
      <point x="238" y="480"/>
      <point x="158" y="522" type="qcurve"/>
      <point x="158" y="521" type="line"/>
      <point x="69" y="566"/>
      <point x="69" y="628" type="qcurve" smooth="yes"/>
      <point x="69" y="686"/>
      <point x="159" y="732" type="qcurve" smooth="yes"/>
      <point x="241" y="775"/>
      <point x="365" y="775" type="qcurve" smooth="yes"/>
      <point x="485" y="775"/>
      <point x="567" y="731" type="qcurve" smooth="yes"/>
      <point x="657" y="682"/>
    </contour>
    <contour>
      <point x="569" y="628" type="qcurve" smooth="yes"/>
      <point x="569" y="677"/>
      <point x="514" y="705" type="qcurve" smooth="yes"/>
      <point x="449" y="739"/>
      <point x="365" y="739" type="qcurve" smooth="yes"/>
      <point x="275" y="739"/>
      <point x="212" y="706" type="qcurve"/>
      <point x="159" y="677"/>
      <point x="159" y="628" type="qcurve" smooth="yes"/>
      <point x="159" y="566"/>
      <point x="235" y="539" type="qcurve"/>
      <point x="234" y="539" type="line"/>
      <point x="300" y="516"/>
      <point x="365" y="516" type="qcurve" smooth="yes"/>
      <point x="500" y="516"/>
      <point x="556" y="584" type="qcurve"/>
      <point x="569" y="597"/>
    </contour>
  </outline>
</glyph>
<glyph name="plusminus" format="1">
  <advance width="752"/>
  <unicode hex="00B1"/>
  <outline>
    <contour>
      <point x="730" y="321" type="line" smooth="yes"/>
      <point x="730" y="316"/>
      <point x="711" y="316" type="qcurve" smooth="yes"/>
      <point x="451" y="316" type="line"/>
      <point x="451" y="176" type="line" smooth="yes"/>
      <point x="451" y="171"/>
      <point x="432" y="171" type="qcurve" smooth="yes"/>
      <point x="371" y="171" type="line" smooth="yes"/>
      <point x="353" y="171"/>
      <point x="353" y="176" type="qcurve" smooth="yes"/>
      <point x="353" y="316" type="line"/>
      <point x="92" y="316" type="line" smooth="yes"/>
      <point x="74" y="316"/>
      <point x="74" y="321" type="qcurve" smooth="yes"/>
      <point x="74" y="351" type="line" smooth="yes"/>
      <point x="74" y="356"/>
      <point x="92" y="356" type="qcurve" smooth="yes"/>
      <point x="353" y="356" type="line"/>
      <point x="353" y="495" type="line" smooth="yes"/>
      <point x="353" y="500"/>
      <point x="371" y="500" type="qcurve" smooth="yes"/>
      <point x="432" y="500" type="line" smooth="yes"/>
      <point x="451" y="500"/>
      <point x="451" y="495" type="qcurve" smooth="yes"/>
      <point x="451" y="356" type="line"/>
      <point x="711" y="356" type="line" smooth="yes"/>
      <point x="730" y="356"/>
      <point x="730" y="351" type="qcurve" smooth="yes"/>
    </contour>
    <contour>
      <point x="730" y="102" type="line" smooth="yes"/>
      <point x="730" y="98"/>
      <point x="711" y="98" type="qcurve" smooth="yes"/>
      <point x="92" y="98" type="line" smooth="yes"/>
      <point x="74" y="98"/>
      <point x="74" y="102" type="qcurve" smooth="yes"/>
      <point x="74" y="133" type="line" smooth="yes"/>
      <point x="74" y="138"/>
      <point x="92" y="138" type="qcurve" smooth="yes"/>
      <point x="711" y="138" type="line" smooth="yes"/>
      <point x="730" y="138"/>
      <point x="730" y="133" type="qcurve" smooth="yes"/>
    </contour>
  </outline>
</glyph>
<glyph name="twosuperior" format="1">
  <advance width="398"/>
  <unicode hex="00B2"/>
  <outline>
    <contour>
      <point x="398" y="316" type="line" smooth="yes"/>
      <point x="398" y="311"/>
      <point x="381" y="311" type="qcurve" smooth="yes"/>
      <point x="150" y="311" type="line" smooth="yes"/>
      <point x="132" y="311"/>
      <point x="132" y="316" type="qcurve" smooth="yes"/>
      <point x="132" y="529" type="line" smooth="yes"/>
      <point x="132" y="591"/>
      <point x="251" y="599" type="qcurve" smooth="yes"/>
      <point x="273" y="600"/>
      <point x="314" y="609" type="qcurve" smooth="yes"/>
      <point x="309" y="608" type="line" smooth="yes"/>
      <point x="313" y="609"/>
      <point x="313" y="638" type="qcurve" smooth="yes"/>
      <point x="313" y="726" type="line" smooth="yes"/>
      <point x="313" y="747"/>
      <point x="305" y="761" type="qcurve"/>
      <point x="311" y="760" type="line"/>
      <point x="291" y="771"/>
      <point x="237" y="771"/>
      <point x="220" y="760" type="qcurve"/>
      <point x="223" y="760" type="line"/>
      <point x="217" y="754"/>
      <point x="217" y="726" type="qcurve" smooth="yes"/>
      <point x="217" y="687" type="line" smooth="yes"/>
      <point x="217" y="682"/>
      <point x="200" y="682" type="qcurve" smooth="yes"/>
      <point x="150" y="682" type="line" smooth="yes"/>
      <point x="132" y="682"/>
      <point x="132" y="687" type="qcurve" smooth="yes"/>
      <point x="132" y="725" type="line" smooth="yes"/>
      <point x="132" y="805"/>
      <point x="264" y="805" type="qcurve" smooth="yes"/>
      <point x="398" y="805"/>
      <point x="398" y="725" type="qcurve" smooth="yes"/>
      <point x="398" y="636" type="line" smooth="yes"/>
      <point x="398" y="600"/>
      <point x="368" y="581" type="qcurve" smooth="yes"/>
      <point x="351" y="570"/>
      <point x="281" y="565" type="qcurve" smooth="yes"/>
      <point x="257" y="564"/>
      <point x="215" y="554" type="qcurve"/>
      <point x="220" y="555" type="line" smooth="yes"/>
      <point x="217" y="554"/>
      <point x="217" y="529" type="qcurve" smooth="yes"/>
      <point x="217" y="344" type="line"/>
      <point x="381" y="344" type="line" smooth="yes"/>
      <point x="398" y="344"/>
      <point x="398" y="339" type="qcurve" smooth="yes"/>
    </contour>
  </outline>
</glyph>
<glyph name="threesuperior" format="1">
  <advance width="398"/>
  <unicode hex="00B3"/>
  <outline>
    <contour>
      <point x="398" y="384" type="line" smooth="yes"/>
      <point x="398" y="304"/>
      <point x="264" y="304" type="qcurve" smooth="yes"/>
      <point x="132" y="304"/>
      <point x="132" y="384" type="qcurve" smooth="yes"/>
      <point x="132" y="425" type="line" smooth="yes"/>
      <point x="132" y="430"/>
      <point x="150" y="430" type="qcurve" smooth="yes"/>
      <point x="200" y="430" type="line" smooth="yes"/>
      <point x="217" y="430"/>
      <point x="217" y="425" type="qcurve" smooth="yes"/>
      <point x="217" y="383" type="line" smooth="yes"/>
      <point x="217" y="354"/>
      <point x="226" y="346" type="qcurve" smooth="yes"/>
      <point x="236" y="338"/>
      <point x="264" y="338" type="qcurve" smooth="yes"/>
      <point x="313" y="338"/>
      <point x="313" y="383" type="qcurve" smooth="yes"/>
      <point x="313" y="530" type="line" smooth="yes"/>
      <point x="313" y="562"/>
      <point x="299" y="570" type="qcurve" smooth="yes"/>
      <point x="292" y="573"/>
      <point x="254" y="573" type="qcurve" smooth="yes"/>
      <point x="212" y="573" type="line" smooth="yes"/>
      <point x="195" y="573"/>
      <point x="195" y="577" type="qcurve" smooth="yes"/>
      <point x="195" y="600" type="line" smooth="yes"/>
      <point x="195" y="605"/>
      <point x="212" y="605" type="qcurve" smooth="yes"/>
      <point x="254" y="605" type="line" smooth="yes"/>
      <point x="292" y="605"/>
      <point x="312" y="616" type="qcurve"/>
      <point x="306" y="615" type="line"/>
      <point x="313" y="626"/>
      <point x="313" y="649" type="qcurve" smooth="yes"/>
      <point x="313" y="725" type="line" smooth="yes"/>
      <point x="313" y="745"/>
      <point x="305" y="759" type="qcurve"/>
      <point x="311" y="758" type="line"/>
      <point x="292" y="771"/>
      <point x="264" y="771" type="qcurve" smooth="yes"/>
      <point x="240" y="771"/>
      <point x="226" y="763" type="qcurve" smooth="yes"/>
      <point x="217" y="758"/>
      <point x="217" y="725" type="qcurve" smooth="yes"/>
      <point x="217" y="686" type="line" smooth="yes"/>
      <point x="217" y="681"/>
      <point x="200" y="681" type="qcurve" smooth="yes"/>
      <point x="150" y="681" type="line" smooth="yes"/>
      <point x="132" y="681"/>
      <point x="132" y="686" type="qcurve" smooth="yes"/>
      <point x="132" y="723" type="line" smooth="yes"/>
      <point x="132" y="804"/>
      <point x="264" y="804" type="qcurve" smooth="yes"/>
      <point x="398" y="804"/>
      <point x="398" y="723" type="qcurve" smooth="yes"/>
      <point x="398" y="647" type="line" smooth="yes"/>
      <point x="398" y="609"/>
      <point x="351" y="589" type="qcurve"/>
      <point x="398" y="571"/>
      <point x="398" y="531" type="qcurve" smooth="yes"/>
    </contour>
  </outline>
</glyph>
<glyph name="acute" format="1">
  <advance width="249"/>
  <unicode hex="00B4"/>
  <outline>
    <contour>
      <point x="236" y="726" type="qcurve" smooth="yes"/>
      <point x="237" y="724"/>
      <point x="234" y="722"/>
      <point x="230" y="721" type="qcurve"/>
      <point x="126" y="605" type="line" smooth="yes"/>
      <point x="125" y="604"/>
      <point x="118" y="604" type="qcurve" smooth="yes"/>
      <point x="110" y="604" type="line"/>
      <point x="54" y="621" type="line"/>
      <point x="43" y="622"/>
      <point x="41" y="625" type="qcurve" smooth="yes"/>
      <point x="40" y="626"/>
      <point x="42" y="629"/>
      <point x="46" y="630" type="qcurve"/>
      <point x="149" y="745" type="line" smooth="yes"/>
      <point x="151" y="746"/>
      <point x="157" y="746" type="qcurve" smooth="yes"/>
      <point x="165" y="746" type="line"/>
      <point x="223" y="730" type="line" smooth="yes"/>
      <point x="234" y="728"/>
    </contour>
  </outline>
</glyph>
<glyph name="paragraph" format="1">
  <advance width="689"/>
  <unicode hex="00B6"/>
  <outline>
    <contour>
      <point x="685" y="768" type="line" smooth="yes"/>
      <point x="685" y="763"/>
      <point x="667" y="763" type="qcurve" smooth="yes"/>
      <point x="629" y="763" type="line"/>
      <point x="629" y="-54" type="line" smooth="yes"/>
      <point x="629" y="-59"/>
      <point x="610" y="-59" type="qcurve" smooth="yes"/>
      <point x="546" y="-59" type="line" smooth="yes"/>
      <point x="527" y="-59"/>
      <point x="527" y="-54" type="qcurve" smooth="yes"/>
      <point x="527" y="763" type="line"/>
      <point x="471" y="763" type="line"/>
      <point x="471" y="-54" type="line" smooth="yes"/>
      <point x="471" y="-59"/>
      <point x="452" y="-59" type="qcurve" smooth="yes"/>
      <point x="388" y="-59" type="line" smooth="yes"/>
      <point x="369" y="-59"/>
      <point x="369" y="-54" type="qcurve" smooth="yes"/>
      <point x="369" y="447" type="line"/>
      <point x="262" y="447" type="line" smooth="yes"/>
      <point x="41" y="447"/>
      <point x="41" y="561" type="qcurve" smooth="yes"/>
      <point x="41" y="676" type="line" smooth="yes"/>
      <point x="41" y="758"/>
      <point x="116" y="787" type="qcurve" smooth="yes"/>
      <point x="162" y="805"/>
      <point x="262" y="805" type="qcurve" smooth="yes"/>
      <point x="667" y="805" type="line" smooth="yes"/>
      <point x="685" y="805"/>
      <point x="685" y="800" type="qcurve" smooth="yes"/>
    </contour>
  </outline>
</glyph>
<glyph name="periodcentered" format="1">
  <advance width="748"/>
  <unicode hex="00B7"/>
  <outline>
    <contour>
      <point x="700" y="352" type="qcurve" smooth="yes"/>
      <point x="700" y="347"/>
      <point x="679" y="344" type="qcurve"/>
      <point x="641" y="324" type="line"/>
      <point x="612" y="324" type="line"/>
      <point x="567" y="347" type="line"/>
      <point x="502" y="323"/>
      <point x="400" y="323" type="qcurve" smooth="yes"/>
      <point x="306" y="323"/>
      <point x="244" y="345" type="qcurve"/>
      <point x="203" y="324" type="line"/>
      <point x="199" y="324"/>
      <point x="196" y="323" type="qcurve"/>
      <point x="188" y="323" type="line"/>
      <point x="174" y="323" type="line"/>
      <point x="137" y="342" type="line"/>
      <point x="113" y="346"/>
      <point x="113" y="356"/>
      <point x="137" y="360" type="qcurve"/>
      <point x="134" y="360" type="line"/>
      <point x="171" y="380" type="line"/>
      <point x="107" y="422"/>
      <point x="107" y="470" type="qcurve" smooth="yes"/>
      <point x="107" y="515"/>
      <point x="170" y="557" type="qcurve"/>
      <point x="134" y="576" type="line"/>
      <point x="113" y="579"/>
      <point x="113" y="584" type="qcurve" smooth="yes"/>
      <point x="113" y="588"/>
      <point x="137" y="593" type="qcurve"/>
      <point x="134" y="593" type="line"/>
      <point x="174" y="614" type="line"/>
      <point x="203" y="614" type="line"/>
      <point x="243" y="593" type="line"/>
      <point x="309" y="618"/>
      <point x="403" y="618" type="qcurve" smooth="yes"/>
      <point x="503" y="618"/>
      <point x="569" y="591" type="qcurve"/>
      <point x="612" y="614" type="line"/>
      <point x="616" y="614"/>
      <point x="619" y="615" type="qcurve"/>
      <point x="626" y="615" type="line"/>
      <point x="634" y="615" type="line"/>
      <point x="637" y="614"/>
      <point x="641" y="614" type="qcurve"/>
      <point x="679" y="593" type="line"/>
      <point x="699" y="588"/>
      <point x="699" y="585" type="qcurve" smooth="yes"/>
      <point x="699" y="580"/>
      <point x="679" y="577" type="qcurve"/>
      <point x="638" y="554" type="line"/>
      <point x="696" y="511"/>
      <point x="696" y="470" type="qcurve" smooth="yes"/>
      <point x="696" y="428"/>
      <point x="635" y="385" type="qcurve"/>
      <point x="680" y="360" type="line"/>
      <point x="674" y="361" type="line" smooth="yes"/>
      <point x="700" y="356"/>
    </contour>
    <contour>
      <point x="574" y="470" type="qcurve" smooth="yes"/>
      <point x="574" y="521"/>
      <point x="534" y="542" type="qcurve" smooth="yes"/>
      <point x="477" y="572"/>
      <point x="403" y="572" type="qcurve" smooth="yes"/>
      <point x="288" y="572"/>
      <point x="236" y="508" type="qcurve"/>
      <point x="229" y="501"/>
      <point x="229" y="470" type="qcurve" smooth="yes"/>
      <point x="229" y="420"/>
      <point x="270" y="397" type="qcurve"/>
      <point x="327" y="367"/>
      <point x="403" y="367" type="qcurve" smooth="yes"/>
      <point x="512" y="367"/>
      <point x="562" y="426" type="qcurve"/>
      <point x="559" y="427"/>
      <point x="566" y="430" type="qcurve"/>
      <point x="574" y="441"/>
    </contour>
    <contour>
      <point x="134" y="576" type="line"/>
      <point x="137" y="575" type="line" smooth="yes"/>
      <point x="136" y="575"/>
      <point x="136" y="576" type="qcurve"/>
    </contour>
  </outline>
</glyph>
<glyph name="cedilla" format="1">
  <advance width="412"/>
  <unicode hex="00B8"/>
  <outline>
    <contour>
      <point x="318" y="-132" type="line" smooth="yes"/>
      <point x="318" y="-186"/>
      <point x="215" y="-186" type="qcurve" smooth="yes"/>
      <point x="142" y="-186" type="line" smooth="yes"/>
      <point x="126" y="-186"/>
      <point x="126" y="-181" type="qcurve" smooth="yes"/>
      <point x="126" y="-161" type="line" smooth="yes"/>
      <point x="126" y="-156"/>
      <point x="142" y="-156" type="qcurve" smooth="yes"/>
      <point x="223" y="-156" type="line"/>
      <point x="242" y="-153"/>
      <point x="242" y="-132" type="qcurve" smooth="yes"/>
      <point x="242" y="-96" type="line" smooth="yes"/>
      <point x="242" y="-76"/>
      <point x="212" y="-76" type="qcurve" smooth="yes"/>
      <point x="209" y="-76"/>
      <point x="207" y="-77" type="qcurve"/>
      <point x="202" y="-77" type="line"/>
      <point x="190" y="-77" type="line" smooth="yes"/>
      <point x="174" y="-77"/>
      <point x="174" y="-72" type="qcurve" smooth="yes"/>
      <point x="174" y="10" type="line" smooth="yes"/>
      <point x="174" y="14"/>
      <point x="190" y="14" type="qcurve" smooth="yes"/>
      <point x="227" y="14" type="line" smooth="yes"/>
      <point x="243" y="14"/>
      <point x="243" y="10" type="qcurve" smooth="yes"/>
      <point x="243" y="-49" type="line"/>
      <point x="318" y="-49"/>
      <point x="318" y="-91" type="qcurve" smooth="yes"/>
    </contour>
  </outline>
</glyph>
<glyph name="onesuperior" format="1">
  <advance width="347"/>
  <unicode hex="00B9"/>
  <outline>
    <contour>
      <point x="293" y="314" type="line" smooth="yes"/>
      <point x="293" y="309"/>
      <point x="278" y="309" type="qcurve" smooth="yes"/>
      <point x="184" y="309" type="line" smooth="yes"/>
      <point x="169" y="309"/>
      <point x="169" y="314" type="qcurve" smooth="yes"/>
      <point x="169" y="340" type="line" smooth="yes"/>
      <point x="169" y="345"/>
      <point x="184" y="345" type="qcurve" smooth="yes"/>
      <point x="193" y="345" type="line"/>
      <point x="193" y="749" type="line"/>
      <point x="180" y="746" type="line"/>
      <point x="161" y="745"/>
      <point x="161" y="751" type="qcurve" smooth="yes"/>
      <point x="161" y="778" type="line" smooth="yes"/>
      <point x="161" y="783"/>
      <point x="173" y="783" type="qcurve"/>
      <point x="250" y="801" type="line"/>
      <point x="269" y="802"/>
      <point x="269" y="796" type="qcurve" smooth="yes"/>
      <point x="269" y="345" type="line"/>
      <point x="278" y="345" type="line" smooth="yes"/>
      <point x="293" y="345"/>
      <point x="293" y="340" type="qcurve" smooth="yes"/>
    </contour>
  </outline>
</glyph>
